<?xml version="1.0" encoding="UTF-8" standalone="no"?>
<svg
   xmlns:dc="http://purl.org/dc/elements/1.1/"
   xmlns:cc="http://creativecommons.org/ns#"
   xmlns:rdf="http://www.w3.org/1999/02/22-rdf-syntax-ns#"
   xmlns:svg="http://www.w3.org/2000/svg"
   xmlns="http://www.w3.org/2000/svg"
   xmlns:sodipodi="http://sodipodi.sourceforge.net/DTD/sodipodi-0.dtd"
   xmlns:inkscape="http://www.inkscape.org/namespaces/inkscape"
   viewBox="0 0 1200 675"
   height="675"
   width="1200"
   xml:space="preserve"
   version="1.1"
   id="svg2"
   inkscape:version="0.91 r13725"
   sodipodi:docname="fdl_slide_15.svg"><sodipodi:namedview
     pagecolor="#ffffff"
     bordercolor="#666666"
     borderopacity="1"
     objecttolerance="10"
     gridtolerance="10"
     guidetolerance="10"
     inkscape:pageopacity="0"
     inkscape:pageshadow="2"
     inkscape:window-width="640"
     inkscape:window-height="480"
     id="namedview227"
     showgrid="false"
     inkscape:zoom="1.2"
     inkscape:cx="600"
     inkscape:cy="337.5"
     inkscape:current-layer="svg2" /><metadata
     id="metadata8"><rdf:RDF><cc:Work
         rdf:about=""><dc:format>image/svg+xml</dc:format><dc:type
           rdf:resource="http://purl.org/dc/dcmitype/StillImage" /></cc:Work></rdf:RDF></metadata><defs
     id="defs6"><clipPath
       id="clipPath16"
       clipPathUnits="userSpaceOnUse"><path
         style="clip-rule:evenodd"
         id="path18"
         d="m 0,1.2207e-4 960,0 0,539.99999793 -960,0 L 0,1.2207e-4 Z" /></clipPath><clipPath
       id="clipPath26"
       clipPathUnits="userSpaceOnUse"><path
         style="clip-rule:evenodd"
         id="path28"
         d="M -3.815e-6,2.4414e-4 960,2.4414e-4 960,540.00024 l -960.000003815,0 0,-539.99999586 z" /></clipPath><clipPath
       id="clipPath36"
       clipPathUnits="userSpaceOnUse"><path
         id="path38"
         d="m 0,0 450.75,0 0,39.715 L 0,39.715 0,0 Z" /></clipPath><clipPath
       id="clipPath66"
       clipPathUnits="userSpaceOnUse"><path
         style="clip-rule:evenodd"
         id="path68"
         d="M 1.4305e-5,0 960.00001,0 l 0,540 -959.999995695,0 0,-540 z" /></clipPath><clipPath
       id="clipPath78"
       clipPathUnits="userSpaceOnUse"><path
         style="clip-rule:evenodd"
         id="path80"
         d="M 1.4305e-5,0 960.00001,0 l 0,540 -959.999995695,0 0,-540 z" /></clipPath><clipPath
       id="clipPath90"
       clipPathUnits="userSpaceOnUse"><path
         style="clip-rule:evenodd"
         id="path92"
         d="m 0,1.8311e-4 960,0 0,539.99999689 -960,0 L 0,1.8311e-4 Z" /></clipPath><clipPath
       id="clipPath100"
       clipPathUnits="userSpaceOnUse"><path
         id="path102"
         d="m 0,0 938.33,0 0,411.05 L 0,411.05 0,0 Z" /></clipPath></defs><g
     transform="matrix(1.2500602,0,0,-1.2502045,13.5,626.85)"
     id="g96"><g
       clip-path="url(#clipPath100)"
       id="g98"><g
         id="g104"><g
           id="g106"><g
             id="g108" /></g><path
           id="path110"
           style="fill:#000000;fill-opacity:1;fill-rule:nonzero;stroke:none"
           d="m 199.89,214.76 18.54,0 0,1.38 -18.54,0 0,-1.38 z"
           inkscape:connector-curvature="0" /><path
           id="path112"
           style="fill:#000000;fill-opacity:1;fill-rule:nonzero;stroke:none"
           d="m 148.29,214.76 18.6,0 0,1.38 -18.6,0 0,-1.38 z"
           inkscape:connector-curvature="0" /><path
           id="path114"
           style="fill:#ffffff;fill-opacity:1;fill-rule:nonzero;stroke:none"
           d="m 166.2,198.29 34.38,0 0,34.38 -34.38,0 0,-34.38 z"
           inkscape:connector-curvature="0" /><path
           id="path116"
           style="fill:#000000;fill-opacity:1;fill-rule:nonzero;stroke:none"
           d="m 165.18,232.67 1.02,1.02 34.38,0 1.02,-1.02 0,-34.38 -1.02,-1.02 -34.38,0 -1.02,1.02 0,34.38 z m 2.04,-34.38 -1.02,1.02 34.38,0 -1.02,-1.02 0,34.38 1.02,-1.02 -34.38,0 1.02,1.02 0,-34.38 z"
           inkscape:connector-curvature="0" /><path
           id="path118"
           style="fill:#000000;fill-opacity:1;fill-rule:nonzero;stroke:none"
           d="m 191.58,207.05 -2.64,0 -1.8,5.16 -8.04,0 -1.8,-5.16 -2.52,0 6.78,18.54 3.24,0 6.78,-18.54 z m -5.22,7.32 -3.24,9.06 -3.24,-9.06 6.48,0 z"
           inkscape:connector-curvature="0" /><path
           id="path120"
           style="fill:#000000;fill-opacity:1;fill-rule:nonzero;stroke:none"
           d="m 423.45,206.18 18.54,0 0,1.38 -18.54,0 0,-1.38 z"
           inkscape:connector-curvature="0" /><path
           id="path122"
           style="fill:#000000;fill-opacity:1;fill-rule:nonzero;stroke:none"
           d="m 371.85,206.18 18.6,0 0,1.38 -18.6,0 0,-1.38 z"
           inkscape:connector-curvature="0" /><path
           id="path124"
           style="fill:#000000;fill-opacity:1;fill-rule:nonzero;stroke:none"
           d="m 445.62,206.87 c 0,-2.34 -1.92,-4.26 -4.32,-4.26 -2.34,0 -4.26,1.92 -4.26,4.26 0,2.4 1.92,4.32 4.26,4.32 2.4,0 4.32,-1.92 4.32,-4.32 z"
           inkscape:connector-curvature="0" /><path
           id="path126"
           style="fill:#000000;fill-opacity:1;fill-rule:nonzero;stroke:none"
           d="m 612.57,292.16 18.6,0 0,1.38 -18.6,0 0,-1.38 z"
           inkscape:connector-curvature="0" /><path
           id="path128"
           style="fill:#000000;fill-opacity:1;fill-rule:nonzero;stroke:none"
           d="m 561.03,292.16 18.54,0 0,1.38 -18.54,0 0,-1.38 z"
           inkscape:connector-curvature="0" /><path
           id="path130"
           style="fill:#000000;fill-opacity:1;fill-rule:nonzero;stroke:none"
           d="m 612.57,120.2 18.6,0 0,1.38 -18.6,0 0,-1.38 z"
           inkscape:connector-curvature="0" /><path
           id="path132"
           style="fill:#000000;fill-opacity:1;fill-rule:nonzero;stroke:none"
           d="m 561.03,120.2 18.54,0 0,1.38 -18.54,0 0,-1.38 z"
           inkscape:connector-curvature="0" /><path
           id="path134"
           style="fill:#000000;fill-opacity:1;fill-rule:nonzero;stroke:none"
           d="m 836.13,197.6 18.6,0 0,1.38 -18.6,0 0,-1.38 z"
           inkscape:connector-curvature="0" /><path
           id="path136"
           style="fill:#000000;fill-opacity:1;fill-rule:nonzero;stroke:none"
           d="m 784.59,197.6 18.54,0 0,1.38 -18.54,0 0,-1.38 z"
           inkscape:connector-curvature="0" /><path
           id="path138"
           style="fill:#000000;fill-opacity:1;fill-rule:nonzero;stroke:none"
           d="m 858.36,198.29 c 0,-2.4 -1.92,-4.32 -4.32,-4.32 -2.4,0 -4.32,1.92 -4.32,4.32 0,2.34 1.92,4.32 4.32,4.32 2.4,0 4.32,-1.98 4.32,-4.32 z"
           inkscape:connector-curvature="0" /><path
           id="path140"
           style="fill:#ffffff;fill-opacity:1;fill-rule:nonzero;stroke:none"
           d="m 733.68,224.09 c 25.8,0 43.86,-12.9 51.6,-25.8 -7.74,-12.9 -25.8,-25.8 -51.6,-25.8 11.46,17.22 11.46,34.38 0,51.6 z"
           inkscape:connector-curvature="0" /><path
           id="path142"
           style="fill:#000000;fill-opacity:1;fill-rule:nonzero;stroke:none"
           d="m 732.82,223.54 0.88,1.57 2.39,-0.04 0.03,0 2.36,-0.11 0.03,0 2.3,-0.18 0.03,0 2.26,-0.25 0.03,-0.01 2.21,-0.31 0.04,-0.01 2.16,-0.38 0.03,0 2.11,-0.45 0.04,0 2.06,-0.51 0.03,0 2.02,-0.56 0.03,-0.01 1.96,-0.61 0.03,-0.01 1.92,-0.66 0.03,-0.02 1.86,-0.71 0.03,-0.01 1.82,-0.76 0.03,-0.01 1.77,-0.81 0.03,-0.01 1.71,-0.85 0.03,-0.02 1.65,-0.88 0.03,-0.02 1.61,-0.92 0.03,-0.02 1.55,-0.96 0.02,-0.02 1.5,-0.99 0.03,-0.02 1.45,-1.03 0.02,-0.01 1.39,-1.05 0.03,-0.02 1.33,-1.08 0.03,-0.03 1.27,-1.1 0.03,-0.02 1.22,-1.12 0.02,-0.02 1.17,-1.14 0.03,-0.03 1.11,-1.16 0.02,-0.03 1.05,-1.17 0.02,-0.02 0.99,-1.19 0.02,-0.02 0.94,-1.2 0.02,-0.03 0.87,-1.2 0.02,-0.03 0.82,-1.21 0.02,-0.03 0.75,-1.21 0,-1.08 -0.75,-1.21 -0.02,-0.03 -0.82,-1.2 -0.02,-0.03 -0.87,-1.2 -0.02,-0.03 -0.94,-1.2 -0.02,-0.03 -0.99,-1.18 -0.02,-0.03 -1.05,-1.17 -0.02,-0.02 -1.11,-1.16 -0.03,-0.03 -1.17,-1.14 -0.02,-0.02 -1.22,-1.13 -0.03,-0.02 -1.27,-1.1 -0.03,-0.02 -1.33,-1.08 -0.03,-0.02 -1.39,-1.05 -0.02,-0.02 -1.45,-1.03 -0.03,-0.02 -1.5,-0.99 -0.02,-0.01 -1.55,-0.97 -0.03,-0.02 -1.61,-0.92 -0.03,-0.01 -1.65,-0.89 -0.03,-0.01 -1.71,-0.85 -0.03,-0.02 -1.77,-0.81 -0.03,-0.01 -1.82,-0.76 -0.03,-0.01 -1.86,-0.71 -0.03,-0.01 -1.92,-0.67 -0.03,-0.01 -1.96,-0.61 -0.03,-0.01 -2.02,-0.55 -0.03,-0.01 -2.06,-0.5 -0.04,-0.01 -2.11,-0.44 -0.03,-0.01 -2.16,-0.38 -0.04,-0.01 -2.21,-0.31 -0.03,0 -2.26,-0.25 -0.03,0 -2.3,-0.18 -0.03,-0.01 -2.36,-0.11 -0.03,0 -2.39,-0.04 -0.88,1.58 1.05,1.61 -0.02,-0.03 0.97,1.62 -0.01,-0.04 0.9,1.62 -0.02,-0.02 0.84,1.61 -0.01,-0.03 0.77,1.61 -0.01,-0.03 0.7,1.61 -0.01,-0.03 0.63,1.61 -0.01,-0.03 0.58,1.61 -0.01,-0.04 0.5,1.62 -0.01,-0.04 0.43,1.61 -0.01,-0.04 0.37,1.61 -0.01,-0.04 0.3,1.61 0,-0.04 0.24,1.61 -0.01,-0.04 0.17,1.61 -0.01,-0.04 0.11,1.62 0,-0.05 0.03,1.61 0,-0.04 -0.03,1.62 0,-0.05 -0.11,1.61 0.01,-0.04 -0.17,1.62 0.01,-0.05 -0.24,1.61 0,-0.04 -0.3,1.61 0.01,-0.04 -0.37,1.61 0.01,-0.04 -0.43,1.62 0.01,-0.04 -0.5,1.61 0.01,-0.04 -0.58,1.61 0.01,-0.03 -0.63,1.61 0.01,-0.03 -0.7,1.61 0.01,-0.03 -0.77,1.61 0.01,-0.03 -0.84,1.62 0.02,-0.03 -0.9,1.62 0.01,-0.03 -0.97,1.61 0.02,-0.02 -1.05,1.61 z m 2.76,-0.51 0.02,-0.02 0.97,-1.61 0.02,-0.04 0.9,-1.62 0.01,-0.02 0.84,-1.61 0.02,-0.03 0.77,-1.62 0.01,-0.03 0.71,-1.61 0.01,-0.04 0.64,-1.61 0.01,-0.03 0.58,-1.61 0.01,-0.04 0.51,-1.61 0.01,-0.04 0.43,-1.61 0.01,-0.04 0.37,-1.62 0.01,-0.04 0.3,-1.6 0,-0.04 0.24,-1.61 0.01,-0.05 0.16,-1.61 0.01,-0.04 0.1,-1.61 0,-0.05 0.03,-1.61 0,-0.04 -0.03,-1.61 0,-0.05 -0.1,-1.61 -0.01,-0.04 -0.16,-1.61 -0.01,-0.05 -0.24,-1.61 0,-0.04 -0.3,-1.6 -0.01,-0.04 -0.37,-1.61 -0.01,-0.04 -0.43,-1.61 -0.01,-0.04 -0.51,-1.61 -0.01,-0.04 -0.58,-1.62 -0.01,-0.03 -0.64,-1.61 -0.01,-0.03 -0.71,-1.62 -0.01,-0.03 -0.77,-1.61 -0.02,-0.03 -0.84,-1.61 -0.01,-0.03 -0.9,-1.62 -0.02,-0.03 -0.97,-1.61 -0.02,-0.03 -1.04,-1.61 -0.88,1.57 2.4,0.04 -0.04,0 2.36,0.11 -0.03,0 2.3,0.18 -0.03,0 2.26,0.24 -0.04,0 2.22,0.31 -0.04,0 2.16,0.38 -0.03,0 2.12,0.44 -0.04,-0.01 2.07,0.5 -0.03,0 2.01,0.55 -0.03,-0.01 1.97,0.61 -0.04,-0.01 1.92,0.67 -0.02,-0.02 1.86,0.72 -0.03,-0.01 1.81,0.75 -0.03,-0.01 1.77,0.81 -0.03,-0.01 1.71,0.84 -0.03,-0.01 1.66,0.88 -0.03,-0.01 1.61,0.92 -0.03,-0.02 1.55,0.97 -0.02,-0.01 1.5,0.99 -0.03,-0.02 1.45,1.02 -0.03,-0.01 1.39,1.05 -0.03,-0.02 1.34,1.08 -0.03,-0.03 1.28,1.11 -0.03,-0.02 1.23,1.12 -0.02,-0.02 1.17,1.14 -0.03,-0.03 1.11,1.17 -0.02,-0.03 1.05,1.17 -0.03,-0.02 0.99,1.18 -0.02,-0.02 0.94,1.2 -0.02,-0.03 0.87,1.2 -0.02,-0.03 0.82,1.21 -0.02,-0.03 0.76,1.2 0,-1.08 -0.76,1.21 0.02,-0.03 -0.82,1.21 0.02,-0.03 -0.87,1.2 0.02,-0.03 -0.94,1.2 0.02,-0.03 -0.99,1.19 0.03,-0.03 -1.05,1.17 0.02,-0.02 -1.11,1.16 0.03,-0.03 -1.17,1.14 0.02,-0.02 -1.23,1.13 0.03,-0.02 -1.28,1.1 0.03,-0.02 -1.34,1.08 0.03,-0.02 -1.39,1.05 0.03,-0.02 -1.45,1.03 0.03,-0.02 -1.5,0.99 0.02,-0.02 -1.55,0.97 0.03,-0.02 -1.61,0.93 0.03,-0.02 -1.66,0.89 0.03,-0.02 -1.71,0.85 0.03,-0.02 -1.77,0.81 0.03,-0.01 -1.81,0.76 0.03,-0.01 -1.86,0.71 0.02,-0.01 -1.92,0.67 0.04,-0.01 -1.97,0.6 0.03,-0.01 -2.01,0.56 0.03,-0.01 -2.07,0.5 0.04,0 -2.12,0.44 0.03,-0.01 -2.16,0.39 0.04,-0.01 -2.22,0.31 0.04,0 -2.26,0.25 0.03,0 -2.3,0.18 0.03,-0.01 -2.36,0.12 0.04,-0.01 -2.4,0.04 0.88,1.58 1.04,-1.62 z"
           inkscape:connector-curvature="0" /><path
           id="path144"
           style="fill:#000000;fill-opacity:1;fill-rule:nonzero;stroke:none"
           d="m 784.59,197.6 9.96,0 0,1.38 -9.96,0 0,-1.38 z"
           inkscape:connector-curvature="0" /><path
           id="path146"
           style="fill:#000000;fill-opacity:1;fill-rule:nonzero;stroke:none"
           d="m 724.35,214.76 14.76,0 0,1.38 -14.76,0 0,-1.38 z"
           inkscape:connector-curvature="0" /><path
           id="path148"
           style="fill:#000000;fill-opacity:1;fill-rule:nonzero;stroke:none"
           d="m 724.35,197.6 18.6,0 0,1.38 -18.6,0 0,-1.38 z"
           inkscape:connector-curvature="0" /><path
           id="path150"
           style="fill:#000000;fill-opacity:1;fill-rule:nonzero;stroke:none"
           d="m 724.35,180.38 14.76,0 0,1.38 -14.76,0 0,-1.38 z"
           inkscape:connector-curvature="0" /><path
           id="path152"
           style="fill:#ffffff;fill-opacity:1;fill-rule:nonzero;stroke:none"
           d="m 484.32,318.65 c 25.8,0 43.86,-12.9 51.6,-25.8 -7.74,-12.9 -25.8,-25.8 -51.6,-25.8 11.46,17.22 11.46,34.44 0,51.6 z"
           inkscape:connector-curvature="0" /><path
           id="path154"
           style="fill:#000000;fill-opacity:1;fill-rule:nonzero;stroke:none"
           d="m 483.46,318.1 0.88,1.57 2.39,-0.04 0.03,0 2.36,-0.11 0.03,0 2.3,-0.18 0.03,0 2.26,-0.25 0.03,-0.01 2.21,-0.31 0.04,-0.01 2.16,-0.38 0.03,0 2.11,-0.45 0.04,0 2.06,-0.51 0.03,0 2.02,-0.56 0.03,-0.01 1.96,-0.61 0.03,-0.01 1.92,-0.66 0.03,-0.02 1.86,-0.71 0.03,-0.01 1.82,-0.76 0.03,-0.01 1.77,-0.81 0.03,-0.01 1.71,-0.85 0.03,-0.02 1.65,-0.88 0.03,-0.02 1.61,-0.92 0.03,-0.02 1.55,-0.96 0.02,-0.02 1.5,-0.99 0.03,-0.02 1.45,-1.03 0.02,-0.01 1.39,-1.05 0.03,-0.02 1.33,-1.08 0.03,-0.03 1.27,-1.1 0.03,-0.02 1.22,-1.12 0.02,-0.02 1.17,-1.14 0.03,-0.03 1.11,-1.16 0.02,-0.03 1.05,-1.17 0.02,-0.02 0.99,-1.19 0.02,-0.02 0.94,-1.2 0.02,-0.03 0.87,-1.2 0.02,-0.03 0.82,-1.21 0.02,-0.03 0.75,-1.21 0,-1.08 -0.75,-1.21 -0.02,-0.03 -0.82,-1.2 -0.02,-0.03 -0.87,-1.2 -0.02,-0.03 -0.94,-1.2 -0.02,-0.03 -0.99,-1.18 -0.02,-0.03 -1.05,-1.17 -0.02,-0.02 -1.11,-1.16 -0.03,-0.03 -1.17,-1.14 -0.02,-0.02 -1.22,-1.13 -0.03,-0.02 -1.27,-1.1 -0.03,-0.02 -1.33,-1.08 -0.03,-0.02 -1.39,-1.05 -0.02,-0.02 -1.45,-1.03 -0.03,-0.02 -1.5,-0.99 -0.02,-0.01 -1.55,-0.97 -0.03,-0.02 -1.61,-0.92 -0.03,-0.01 -1.65,-0.89 -0.03,-0.01 -1.71,-0.85 -0.03,-0.02 -1.77,-0.81 -0.03,-0.01 -1.82,-0.76 -0.03,-0.01 -1.86,-0.71 -0.03,-0.01 -1.92,-0.67 -0.03,-0.01 -1.96,-0.61 -0.03,-0.01 -2.02,-0.55 -0.03,-0.01 -2.06,-0.5 -0.04,-0.01 -2.11,-0.44 -0.03,-0.01 -2.16,-0.38 -0.04,-0.01 -2.21,-0.31 -0.03,0 -2.26,-0.25 -0.03,0 -2.3,-0.18 -0.03,-0.01 -2.36,-0.11 -0.03,0 -2.39,-0.04 -0.88,1.58 1.05,1.61 -0.02,-0.03 0.97,1.62 -0.01,-0.04 0.9,1.62 -0.02,-0.02 0.84,1.61 -0.01,-0.03 0.77,1.61 -0.01,-0.03 0.7,1.61 -0.01,-0.03 0.63,1.62 -0.01,-0.03 0.58,1.61 -0.01,-0.04 0.5,1.61 -0.01,-0.03 0.43,1.61 -0.01,-0.04 0.37,1.61 -0.01,-0.04 0.3,1.62 0,-0.04 0.24,1.62 -0.01,-0.05 0.17,1.61 -0.01,-0.03 0.11,1.61 0,-0.05 0.03,1.61 0,-0.03 -0.03,1.61 0,-0.05 -0.11,1.61 0.01,-0.03 -0.17,1.61 0.01,-0.05 -0.24,1.61 0,-0.03 -0.3,1.61 0.01,-0.04 -0.37,1.61 0.01,-0.04 -0.43,1.62 0.01,-0.04 -0.5,1.61 0.01,-0.04 -0.58,1.6 0.01,-0.03 -0.63,1.62 0.01,-0.04 -0.7,1.62 0.01,-0.04 -0.77,1.62 0.01,-0.04 -0.84,1.61 0.02,-0.02 -0.9,1.61 0.02,-0.03 -0.98,1.6 0.02,-0.02 -1.05,1.61 z m 2.76,-0.51 0.01,-0.02 0.98,-1.61 0.02,-0.03 0.9,-1.61 0.01,-0.02 0.84,-1.61 0.02,-0.03 0.77,-1.61 0.01,-0.04 0.71,-1.61 0.01,-0.03 0.64,-1.62 0.01,-0.02 0.58,-1.61 0.01,-0.04 0.51,-1.61 0.01,-0.04 0.43,-1.61 0.01,-0.04 0.37,-1.62 0.01,-0.04 0.3,-1.61 0,-0.04 0.24,-1.61 0.01,-0.04 0.16,-1.62 0.01,-0.03 0.1,-1.62 0,-0.04 0.03,-1.62 0,-0.03 -0.03,-1.62 0,-0.04 -0.1,-1.62 -0.01,-0.03 -0.16,-1.62 -0.01,-0.04 -0.24,-1.62 0,-0.03 -0.3,-1.62 -0.01,-0.04 -0.37,-1.61 -0.01,-0.04 -0.43,-1.62 -0.01,-0.03 -0.51,-1.62 -0.01,-0.04 -0.58,-1.61 -0.01,-0.03 -0.64,-1.62 -0.01,-0.03 -0.71,-1.62 -0.01,-0.03 -0.77,-1.61 -0.02,-0.03 -0.84,-1.61 -0.01,-0.03 -0.9,-1.62 -0.02,-0.03 -0.97,-1.61 -0.02,-0.03 -1.04,-1.61 -0.88,1.57 2.4,0.04 -0.04,0 2.36,0.11 -0.03,0 2.3,0.18 -0.03,0 2.26,0.24 -0.04,0 2.22,0.31 -0.04,0 2.16,0.38 -0.03,0 2.12,0.44 -0.04,-0.01 2.07,0.5 -0.03,0 2.01,0.55 -0.03,-0.01 1.97,0.61 -0.04,-0.01 1.92,0.67 -0.02,-0.02 1.85,0.72 -0.02,-0.01 1.81,0.75 -0.03,-0.01 1.77,0.81 -0.03,-0.01 1.71,0.84 -0.03,-0.01 1.66,0.88 -0.03,-0.01 1.61,0.92 -0.03,-0.02 1.55,0.97 -0.02,-0.01 1.5,0.99 -0.03,-0.02 1.45,1.02 -0.03,-0.01 1.39,1.05 -0.03,-0.02 1.34,1.08 -0.03,-0.03 1.28,1.11 -0.03,-0.02 1.23,1.12 -0.02,-0.02 1.17,1.14 -0.03,-0.03 1.11,1.17 -0.02,-0.03 1.05,1.17 -0.03,-0.02 0.99,1.18 -0.02,-0.02 0.94,1.2 -0.02,-0.03 0.87,1.2 -0.02,-0.03 0.82,1.21 -0.02,-0.03 0.76,1.2 0,-1.08 -0.76,1.21 0.02,-0.03 -0.82,1.21 0.02,-0.03 -0.87,1.2 0.02,-0.03 -0.94,1.2 0.02,-0.03 -0.99,1.19 0.03,-0.03 -1.05,1.17 0.02,-0.02 -1.11,1.16 0.03,-0.03 -1.17,1.14 0.02,-0.02 -1.23,1.13 0.03,-0.02 -1.28,1.1 0.03,-0.02 -1.34,1.08 0.03,-0.02 -1.39,1.05 0.03,-0.02 -1.45,1.03 0.03,-0.02 -1.5,0.99 0.02,-0.02 -1.55,0.97 0.03,-0.02 -1.61,0.93 0.03,-0.02 -1.66,0.88 0.03,-0.01 -1.71,0.85 0.03,-0.02 -1.77,0.81 0.03,-0.01 -1.81,0.76 0.02,-0.01 -1.85,0.71 0.02,-0.01 -1.92,0.67 0.04,-0.01 -1.97,0.6 0.03,-0.01 -2.01,0.56 0.03,-0.01 -2.07,0.5 0.04,0 -2.12,0.44 0.03,-0.01 -2.16,0.39 0.04,-0.01 -2.22,0.31 0.04,0 -2.26,0.25 0.03,0 -2.3,0.18 0.03,-0.01 -2.36,0.12 0.04,-0.01 -2.4,0.04 0.88,1.58 1.04,-1.62 z"
           inkscape:connector-curvature="0" /><path
           id="path156"
           style="fill:#000000;fill-opacity:1;fill-rule:nonzero;stroke:none"
           d="m 535.23,292.16 27.18,0 0,1.38 -27.18,0 0,-1.38 z"
           inkscape:connector-curvature="0" /><path
           id="path158"
           style="fill:#000000;fill-opacity:1;fill-rule:nonzero;stroke:none"
           d="m 475.05,309.38 14.76,0 0,1.38 -14.76,0 0,-1.38 z"
           inkscape:connector-curvature="0" /><path
           id="path160"
           style="fill:#000000;fill-opacity:1;fill-rule:nonzero;stroke:none"
           d="m 475.05,292.16 18.54,0 0,1.38 -18.54,0 0,-1.38 z"
           inkscape:connector-curvature="0" /><path
           id="path162"
           style="fill:#000000;fill-opacity:1;fill-rule:nonzero;stroke:none"
           d="m 475.05,275 14.76,0 0,1.38 -14.76,0 0,-1.38 z"
           inkscape:connector-curvature="0" /><path
           id="path164"
           style="fill:#ffffff;fill-opacity:1;fill-rule:nonzero;stroke:none"
           d="m 484.32,146.69 c 25.8,0 43.86,-12.9 51.6,-25.8 -7.74,-12.9 -25.8,-25.798 -51.6,-25.798 11.46,17.218 11.46,34.378 0,51.598 z"
           inkscape:connector-curvature="0" /><path
           id="path166"
           style="fill:#000000;fill-opacity:1;fill-rule:nonzero;stroke:none"
           d="m 483.46,146.14 0.88,1.57 2.39,-0.04 0.03,0 2.36,-0.11 0.03,0 2.3,-0.18 0.03,0 2.26,-0.25 0.03,-0.01 2.21,-0.31 0.04,-0.01 2.16,-0.38 0.03,0 2.11,-0.45 0.04,0 2.06,-0.51 0.03,0 2.02,-0.56 0.03,-0.01 1.96,-0.61 0.03,-0.01 1.92,-0.66 0.03,-0.02 1.86,-0.71 0.03,-0.01 1.82,-0.76 0.03,-0.01 1.77,-0.81 0.03,-0.01 1.71,-0.85 0.03,-0.02 1.65,-0.88 0.03,-0.02 1.61,-0.92 0.03,-0.02 1.55,-0.96 0.02,-0.02 1.5,-0.99 0.03,-0.02 1.45,-1.03 0.02,-0.01 1.39,-1.05 0.03,-0.02 1.33,-1.08 0.03,-0.03 1.27,-1.1 0.03,-0.02 1.22,-1.12 0.02,-0.02 1.17,-1.14 0.03,-0.03 1.11,-1.16 0.02,-0.03 1.05,-1.17 0.02,-0.02 0.99,-1.19 0.02,-0.02 0.94,-1.2 0.02,-0.03 0.87,-1.2 0.02,-0.03 0.82,-1.21 0.02,-0.03 0.75,-1.21 0,-1.08 -0.75,-1.21 -0.02,-0.03 -0.82,-1.2 -0.02,-0.03 -0.87,-1.2 -0.02,-0.03 -0.94,-1.2 -0.02,-0.03 -0.99,-1.18 -0.02,-0.03 -1.05,-1.17 -0.02,-0.02 -1.11,-1.16 -0.03,-0.03 -1.17,-1.14 -0.02,-0.02 -1.22,-1.13 -0.03,-0.02 -1.27,-1.1 -0.03,-0.02 -1.33,-1.08 -0.03,-0.02 -1.39,-1.05 -0.02,-0.02 -1.45,-1.03 -0.03,-0.02 -1.5,-0.99 -0.02,-0.01 -1.55,-0.97 -0.03,-0.02 -1.61,-0.92 -0.03,-0.01 -1.65,-0.89 -0.03,-0.01 -1.71,-0.85 -0.03,-0.02 -1.77,-0.805 -0.03,-0.014 -1.82,-0.757 -0.03,-0.012 -1.86,-0.712 -0.03,-0.011 -1.92,-0.668 -0.03,-0.011 -1.96,-0.607 -0.03,-0.009 -2.02,-0.555 -0.03,-0.008 -2.06,-0.502 -0.04,-0.008 -2.11,-0.442 -0.03,-0.006 -2.16,-0.383 -0.04,-0.005 -2.21,-0.315 -0.03,-0.004 -2.26,-0.248 -0.03,-0.003 -2.3,-0.18 -0.03,-0.002 -2.36,-0.112 -0.03,-0.001 -2.39,-0.038 -0.88,1.574 1.05,1.613 -0.02,-0.026 0.97,1.612 -0.01,-0.032 0.9,1.617 -0.02,-0.02 0.84,1.61 -0.01,-0.03 0.77,1.61 -0.01,-0.03 0.7,1.61 -0.01,-0.03 0.63,1.61 -0.01,-0.03 0.58,1.61 -0.01,-0.04 0.5,1.62 -0.01,-0.04 0.43,1.61 -0.01,-0.04 0.37,1.61 -0.01,-0.04 0.3,1.61 0,-0.04 0.24,1.61 -0.01,-0.04 0.17,1.61 -0.01,-0.04 0.11,1.62 0,-0.05 0.03,1.61 0,-0.04 -0.03,1.62 0,-0.05 -0.11,1.61 0.01,-0.04 -0.17,1.62 0.01,-0.05 -0.24,1.61 0,-0.04 -0.3,1.61 0.01,-0.04 -0.37,1.61 0.01,-0.04 -0.43,1.62 0.01,-0.04 -0.5,1.61 0.01,-0.04 -0.58,1.61 0.01,-0.03 -0.63,1.61 0.01,-0.03 -0.7,1.61 0.01,-0.03 -0.77,1.61 0.01,-0.03 -0.84,1.62 0.02,-0.03 -0.9,1.62 0.01,-0.03 -0.97,1.61 0.02,-0.02 -1.05,1.61 z m 2.76,-0.51 0.02,-0.02 0.97,-1.61 0.02,-0.04 0.9,-1.62 0.01,-0.02 0.84,-1.61 0.02,-0.03 0.77,-1.62 0.01,-0.03 0.71,-1.61 0.01,-0.04 0.64,-1.61 0.01,-0.03 0.58,-1.61 0.01,-0.04 0.51,-1.61 0.01,-0.04 0.43,-1.61 0.01,-0.04 0.37,-1.62 0.01,-0.04 0.3,-1.6 0,-0.04 0.24,-1.61 0.01,-0.05 0.16,-1.61 0.01,-0.04 0.1,-1.61 0,-0.05 0.03,-1.61 0,-0.04 -0.03,-1.61 0,-0.05 -0.1,-1.61 -0.01,-0.04 -0.16,-1.61 -0.01,-0.05 -0.24,-1.61 0,-0.04 -0.3,-1.6 -0.01,-0.04 -0.37,-1.61 -0.01,-0.04 -0.43,-1.61 -0.01,-0.04 -0.51,-1.61 -0.01,-0.04 -0.58,-1.62 -0.01,-0.03 -0.64,-1.61 -0.01,-0.03 -0.71,-1.62 -0.01,-0.03 -0.77,-1.61 -0.02,-0.03 -0.84,-1.614 -0.01,-0.024 -0.9,-1.62 -0.02,-0.032 -0.97,-1.613 -0.02,-0.026 -1.04,-1.612 -0.88,1.573 2.4,0.038 -0.04,-0.001 2.36,0.112 -0.03,-0.002 2.3,0.18 -0.03,-0.003 2.26,0.248 -0.04,-0.004 2.22,0.315 -0.04,-0.006 2.16,0.383 -0.03,-0.006 2.12,0.442 -0.04,-0.007 2.07,0.502 -0.03,-0.007 2.01,0.555 -0.03,-0.009 1.97,0.607 -0.04,-0.011 1.92,0.672 -0.02,-0.02 1.85,0.72 -0.02,-0.01 1.81,0.75 -0.03,-0.01 1.77,0.81 -0.03,-0.01 1.71,0.84 -0.03,-0.01 1.66,0.88 -0.03,-0.01 1.61,0.92 -0.03,-0.02 1.55,0.97 -0.02,-0.01 1.5,0.99 -0.03,-0.02 1.45,1.02 -0.03,-0.01 1.39,1.05 -0.03,-0.02 1.34,1.08 -0.03,-0.03 1.28,1.11 -0.03,-0.02 1.23,1.12 -0.02,-0.02 1.17,1.14 -0.03,-0.03 1.11,1.17 -0.02,-0.03 1.05,1.17 -0.03,-0.02 0.99,1.18 -0.02,-0.02 0.94,1.2 -0.02,-0.03 0.87,1.2 -0.02,-0.03 0.82,1.21 -0.02,-0.03 0.76,1.2 0,-1.08 -0.76,1.21 0.02,-0.03 -0.82,1.21 0.02,-0.03 -0.87,1.2 0.02,-0.03 -0.94,1.2 0.02,-0.03 -0.99,1.19 0.03,-0.03 -1.05,1.17 0.02,-0.02 -1.11,1.16 0.03,-0.03 -1.17,1.14 0.02,-0.02 -1.23,1.13 0.03,-0.02 -1.28,1.1 0.03,-0.02 -1.34,1.08 0.03,-0.02 -1.39,1.05 0.03,-0.02 -1.45,1.03 0.03,-0.02 -1.5,0.99 0.02,-0.02 -1.55,0.97 0.03,-0.02 -1.61,0.93 0.03,-0.02 -1.66,0.89 0.03,-0.02 -1.71,0.85 0.03,-0.02 -1.77,0.81 0.03,-0.01 -1.81,0.76 0.02,-0.01 -1.85,0.71 0.02,-0.01 -1.92,0.67 0.04,-0.01 -1.97,0.6 0.03,-0.01 -2.01,0.56 0.03,-0.01 -2.07,0.5 0.04,0 -2.12,0.44 0.03,-0.01 -2.16,0.39 0.04,-0.01 -2.22,0.31 0.04,0 -2.26,0.25 0.03,0 -2.3,0.18 0.03,-0.01 -2.36,0.12 0.04,-0.01 -2.4,0.04 0.88,1.58 1.04,-1.62 z"
           inkscape:connector-curvature="0" /><path
           id="path168"
           style="fill:#000000;fill-opacity:1;fill-rule:nonzero;stroke:none"
           d="m 535.23,120.2 27.18,0 0,1.38 -27.18,0 0,-1.38 z"
           inkscape:connector-curvature="0" /><path
           id="path170"
           style="fill:#000000;fill-opacity:1;fill-rule:nonzero;stroke:none"
           d="m 475.05,137.42 14.76,0 0,1.38 -14.76,0 0,-1.38 z"
           inkscape:connector-curvature="0" /><path
           id="path172"
           style="fill:#000000;fill-opacity:1;fill-rule:nonzero;stroke:none"
           d="m 475.05,120.2 18.54,0 0,1.38 -18.54,0 0,-1.38 z"
           inkscape:connector-curvature="0" /><path
           id="path174"
           style="fill:#000000;fill-opacity:1;fill-rule:nonzero;stroke:none"
           d="m 475.05,102.98 14.76,0 0,1.38 -14.76,0 0,-1.38 z"
           inkscape:connector-curvature="0" /><path
           id="path176"
           style="fill:#ffffff;fill-opacity:1;fill-rule:nonzero;stroke:none"
           d="m 286.56,241.25 c 34.38,0 58.44,-17.16 68.76,-34.38 -10.32,-17.16 -34.38,-34.38 -68.76,-34.38 15.3,22.92 15.3,45.84 0,68.76 z"
           inkscape:connector-curvature="0" /><path
           id="path178"
           style="fill:#000000;fill-opacity:1;fill-rule:nonzero;stroke:none"
           d="m 285.7,240.7 0.88,1.57 3.19,-0.05 0.03,0 3.13,-0.14 0.03,-0.01 3.08,-0.24 0.03,0 3.01,-0.34 0.03,0 2.94,-0.42 0.03,-0.01 2.88,-0.5 0.03,0 2.82,-0.6 0.03,0 2.76,-0.66 0.03,-0.01 2.68,-0.74 0.04,-0.01 2.61,-0.82 0.03,-0.01 2.56,-0.88 0.03,-0.01 2.49,-0.95 0.02,-0.01 2.43,-1.02 0.03,-0.01 2.34,-1.07 0.03,-0.02 2.28,-1.12 0.03,-0.02 2.21,-1.18 0.03,-0.02 2.14,-1.23 0.03,-0.01 2.07,-1.29 0.02,-0.01 2.01,-1.33 0.02,-0.02 1.92,-1.36 0.03,-0.02 1.85,-1.4 0.02,-0.02 1.78,-1.44 0.03,-0.02 1.7,-1.47 0.02,-0.02 1.64,-1.5 0.02,-0.02 1.56,-1.52 0.02,-0.03 1.48,-1.54 0.02,-0.03 1.4,-1.57 0.03,-0.02 1.32,-1.58 0.02,-0.03 1.24,-1.59 0.02,-0.03 1.17,-1.6 0.02,-0.03 1.09,-1.61 0.02,-0.04 1.01,-1.61 -0.01,-1.08 -1,-1.6 -0.02,-0.03 -1.09,-1.62 -0.02,-0.03 -1.17,-1.6 -0.02,-0.02 -1.24,-1.59 -0.03,-0.03 -1.32,-1.57 -0.02,-0.03 -1.4,-1.57 -0.02,-0.02 -1.48,-1.55 -0.02,-0.02 -1.56,-1.52 -0.02,-0.03 -1.64,-1.49 -0.02,-0.02 -1.7,-1.47 -0.03,-0.02 -1.77,-1.44 -0.03,-0.02 -1.85,-1.4 -0.03,-0.02 -1.92,-1.36 -0.02,-0.02 -2.01,-1.33 -0.03,-0.02 -2.07,-1.27 -0.02,-0.02 -2.14,-1.24 -0.03,-0.01 -2.21,-1.19 -0.03,-0.01 -2.28,-1.13 -0.03,-0.02 -2.34,-1.07 -0.03,-0.01 -2.43,-1.02 -0.02,-0.01 -2.49,-0.95 -0.03,-0.01 -2.56,-0.89 -0.03,-0.01 -2.62,-0.81 -0.02,-0.01 -2.69,-0.75 -0.03,0 -2.75,-0.67 -0.04,-0.01 -2.82,-0.58 -0.03,-0.01 -2.88,-0.51 -0.03,0 -2.94,-0.42 -0.03,-0.01 -3.01,-0.33 -0.03,0 -3.08,-0.25 -0.03,0 -3.13,-0.14 -0.03,-0.01 -3.19,-0.05 -0.88,1.58 1.39,2.14 -0.01,-0.02 1.3,2.15 -0.02,-0.03 1.21,2.15 -0.02,-0.04 1.12,2.16 -0.01,-0.03 1.03,2.15 -0.01,-0.04 0.93,2.15 -0.01,-0.03 0.86,2.15 -0.02,-0.04 0.77,2.15 -0.01,-0.03 0.66,2.14 -0.01,-0.04 0.59,2.16 -0.01,-0.04 0.49,2.14 -0.01,-0.04 0.4,2.15 0,-0.03 0.31,2.14 0,-0.04 0.22,2.15 0,-0.04 0.13,2.14 0,-0.04 0.05,2.15 0,-0.04 -0.05,2.15 0,-0.05 -0.13,2.16 0,-0.05 -0.22,2.15 0,-0.04 -0.31,2.15 0,-0.04 -0.4,2.15 0.01,-0.05 -0.49,2.16 0.01,-0.04 -0.59,2.14 0.01,-0.03 -0.66,2.15 0.01,-0.04 -0.77,2.14 0.02,-0.03 -0.86,2.15 0.02,-0.03 -0.94,2.15 0.01,-0.04 -1.03,2.16 0.01,-0.03 -1.11,2.14 0.01,-0.03 -1.21,2.16 0.02,-0.04 -1.3,2.15 0.01,-0.02 -1.39,2.15 z m 3.1,-1.05 0.02,-0.02 1.3,-2.15 0.02,-0.03 1.21,-2.15 0.01,-0.03 1.12,-2.14 0.02,-0.03 1.03,-2.15 0.02,-0.04 0.93,-2.14 0.02,-0.03 0.85,-2.16 0.02,-0.03 0.76,-2.15 0.01,-0.04 0.67,-2.15 0.01,-0.03 0.59,-2.15 0.01,-0.04 0.49,-2.15 0.01,-0.04 0.4,-2.15 0,-0.04 0.32,-2.15 0,-0.04 0.23,-2.14 0,-0.05 0.14,-2.15 0,-0.04 0.04,-2.15 0,-0.04 -0.04,-2.15 0,-0.04 -0.14,-2.15 0,-0.04 -0.23,-2.15 0,-0.05 -0.32,-2.14 0,-0.04 -0.4,-2.15 -0.01,-0.04 -0.49,-2.15 -0.01,-0.04 -0.59,-2.15 -0.01,-0.04 -0.67,-2.14 -0.01,-0.04 -0.76,-2.15 -0.02,-0.04 -0.85,-2.14 -0.01,-0.03 -0.94,-2.16 -0.02,-0.03 -1.03,-2.15 -0.02,-0.02 -1.11,-2.16 -0.02,-0.03 -1.21,-2.14 -0.02,-0.03 -1.3,-2.15 -0.02,-0.03 -1.38,-2.14 -0.88,1.57 3.2,0.05 -0.03,0 3.13,0.15 -0.04,-0.01 3.08,0.25 -0.03,0 3,0.33 -0.03,-0.01 2.94,0.42 -0.03,0 2.88,0.51 -0.03,-0.01 2.82,0.59 -0.04,-0.01 2.76,0.67 -0.04,-0.01 2.69,0.75 -0.03,-0.01 2.62,0.81 -0.03,-0.01 2.55,0.89 -0.03,-0.02 2.48,0.96 -0.02,-0.01 2.42,1.01 -0.03,-0.01 2.35,1.07 -0.03,-0.02 2.28,1.14 -0.03,-0.02 2.21,1.19 -0.03,-0.02 2.14,1.24 -0.02,-0.02 2.07,1.28 -0.03,-0.02 2,1.33 -0.03,-0.02 1.92,1.36 -0.02,-0.01 1.85,1.4 -0.03,-0.02 1.78,1.44 -0.02,-0.02 1.7,1.47 -0.02,-0.02 1.63,1.49 -0.02,-0.02 1.55,1.52 -0.02,-0.03 1.47,1.55 -0.02,-0.03 1.4,1.57 -0.02,-0.02 1.32,1.57 -0.02,-0.02 1.24,1.59 -0.02,-0.03 1.17,1.6 -0.02,-0.03 1.09,1.61 -0.02,-0.03 1.01,1.6 -0.01,-1.08 -1,1.62 0.02,-0.04 -1.09,1.62 0.02,-0.03 -1.17,1.6 0.02,-0.03 -1.24,1.59 0.02,-0.02 -1.32,1.58 0.02,-0.03 -1.4,1.57 0.02,-0.02 -1.47,1.54 0.02,-0.02 -1.55,1.52 0.02,-0.02 -1.63,1.5 0.02,-0.02 -1.7,1.47 0.02,-0.02 -1.78,1.43 0.03,-0.02 -1.85,1.4 0.02,-0.02 -1.92,1.37 0.03,-0.02 -2,1.33 0.02,-0.02 -2.07,1.28 0.03,-0.01 -2.14,1.23 0.03,-0.02 -2.21,1.19 0.03,-0.02 -2.28,1.13 0.03,-0.02 -2.35,1.07 0.03,-0.01 -2.42,1.01 0.02,-0.01 -2.48,0.95 0.04,-0.01 -2.56,0.88 0.03,-0.01 -2.62,0.82 0.03,-0.01 -2.68,0.74 0.03,-0.01 -2.75,0.66 0.03,0 -2.82,0.59 0.03,-0.01 -2.88,0.5 0.03,0 -2.94,0.42 0.03,0 -3.01,0.33 0.04,0 -3.08,0.24 0.04,0 -3.13,0.14 0.03,0 -3.2,0.05 0.88,1.57 1.38,-2.15 z"
           inkscape:connector-curvature="0" /><path
           id="path180"
           style="fill:#000000;fill-opacity:1;fill-rule:nonzero;stroke:none"
           d="m 354.63,206.18 18.6,0 0,1.38 -18.6,0 0,-1.38 z"
           inkscape:connector-curvature="0" /><path
           id="path182"
           style="fill:#000000;fill-opacity:1;fill-rule:nonzero;stroke:none"
           d="m 268.65,231.98 23.58,0 0,1.38 -23.58,0 0,-1.38 z"
           inkscape:connector-curvature="0" /><path
           id="path184"
           style="fill:#000000;fill-opacity:1;fill-rule:nonzero;stroke:none"
           d="m 268.65,214.76 29.34,0 0,1.38 -29.34,0 0,-1.38 z"
           inkscape:connector-curvature="0" /><path
           id="path186"
           style="fill:#000000;fill-opacity:1;fill-rule:nonzero;stroke:none"
           d="m 268.65,197.6 29.34,0 0,1.38 -29.34,0 0,-1.38 z"
           inkscape:connector-curvature="0" /><path
           id="path188"
           style="fill:#000000;fill-opacity:1;fill-rule:nonzero;stroke:none"
           d="m 268.65,180.38 23.58,0 0,1.38 -23.58,0 0,-1.38 z"
           inkscape:connector-curvature="0" /><path
           id="path190"
           style="fill:#ffffff;fill-opacity:1;fill-rule:nonzero;stroke:none"
           d="m 97.38,232.67 c 17.22,0 29.22,-8.58 34.38,-17.22 -5.16,-8.58 -17.16,-17.16 -34.38,-17.16 7.68,11.46 7.68,22.92 0,34.38 z"
           inkscape:connector-curvature="0" /><path
           id="path192"
           style="fill:#000000;fill-opacity:1;fill-rule:nonzero;stroke:none"
           d="m 96.516,232.13 0.878,1.56 1.598,-0.02 0.034,0 1.564,-0.08 0.03,0 1.54,-0.12 0.03,0 1.51,-0.17 0.05,0 2.92,-0.47 0.06,-0.01 2.79,-0.63 0.05,-0.02 2.66,-0.77 0.07,-0.02 2.52,-0.92 0.05,-0.03 2.39,-1.04 0.06,-0.03 2.24,-1.15 0.06,-0.03 2.1,-1.26 0.05,-0.04 1.96,-1.34 0.06,-0.04 1.81,-1.42 0.04,-0.04 1.67,-1.49 0.05,-0.04 1.51,-1.54 0.05,-0.05 1.36,-1.58 0.05,-0.06 1.2,-1.6 0.04,-0.05 1.05,-1.62 -0.01,-1.12 -1.05,-1.6 -0.03,-0.06 -1.2,-1.59 -0.05,-0.06 -1.37,-1.57 -0.04,-0.05 -1.52,-1.53 -0.04,-0.04 -1.67,-1.48 -0.05,-0.05 -1.8,-1.41 -0.06,-0.04 -1.96,-1.34 -0.06,-0.04 -2.1,-1.25 -0.05,-0.03 -2.24,-1.16 -0.06,-0.02 -2.39,-1.05 -0.06,-0.02 -2.52,-0.92 -0.06,-0.02 -2.66,-0.77 -0.05,-0.02 -2.79,-0.63 -0.06,-0.01 -2.92,-0.46 -0.05,-0.01 -1.51,-0.16 -0.03,-0.01 -1.54,-0.12 -0.03,0 -1.564,-0.07 -0.034,-0.01 -1.598,-0.02 -0.877,1.57 1.35,2.14 -0.033,-0.06 1.17,2.16 -0.03,-0.06 0.99,2.14 -0.029,-0.07 0.815,2.16 -0.03,-0.08 0.63,2.15 -0.02,-0.08 0.45,2.15 -0.01,-0.08 0.27,2.15 -0.01,-0.09 0.09,2.15 0,-0.08 -0.09,2.14 0.01,-0.08 -0.27,2.15 0.01,-0.08 -0.45,2.15 0.02,-0.08 -0.63,2.15 0.03,-0.07 -0.814,2.14 0.027,-0.06 -0.99,2.15 0.032,-0.06 -1.17,2.14 0.031,-0.05 -1.35,2.15 z m 3.078,-1.07 0.031,-0.05 1.175,-2.15 0.03,-0.06 0.99,-2.15 0.02,-0.07 0.81,-2.14 0.03,-0.08 0.63,-2.15 0.02,-0.08 0.45,-2.14 0.01,-0.08 0.27,-2.16 0.01,-0.08 0.09,-2.14 0,-0.09 -0.09,-2.15 -0.01,-0.09 -0.27,-2.14 -0.01,-0.08 -0.45,-2.16 -0.02,-0.08 -0.63,-2.14 -0.03,-0.07 -0.81,-2.15 -0.02,-0.07 -0.99,-2.15 -0.03,-0.06 -1.174,-2.15 -0.033,-0.06 -1.35,-2.14 -0.877,1.56 1.597,0.02 -0.034,0 1.571,0.08 -0.03,0 1.53,0.12 -0.03,-0.01 1.51,0.17 -0.05,-0.01 2.92,0.47 -0.07,-0.02 2.78,0.63 -0.05,-0.01 2.65,0.77 -0.06,-0.02 2.52,0.92 -0.06,-0.03 2.38,1.04 -0.06,-0.02 2.25,1.15 -0.06,-0.03 2.1,1.25 -0.05,-0.03 1.96,1.34 -0.05,-0.04 1.81,1.42 -0.05,-0.04 1.66,1.48 -0.04,-0.04 1.51,1.53 -0.04,-0.05 1.36,1.57 -0.05,-0.06 1.2,1.6 -0.03,-0.05 1.05,1.6 -0.01,-1.11 -1.05,1.62 0.04,-0.06 -1.2,1.6 0.05,-0.06 -1.37,1.59 0.05,-0.05 -1.52,1.53 0.05,-0.04 -1.66,1.48 0.04,-0.04 -1.8,1.43 0.05,-0.04 -1.96,1.34 0.05,-0.03 -2.1,1.26 0.06,-0.03 -2.25,1.15 0.06,-0.03 -2.38,1.05 0.05,-0.03 -2.52,0.92 0.07,-0.02 -2.65,0.78 0.05,-0.02 -2.78,0.63 0.07,-0.01 -2.92,0.46 0.05,0 -1.51,0.16 0.03,0 -1.53,0.12 0.03,0 -1.571,0.07 0.034,0 -1.597,0.02 0.878,1.56 1.35,-2.15 z"
           inkscape:connector-curvature="0" /><path
           id="path194"
           style="fill:#000000;fill-opacity:1;fill-rule:nonzero;stroke:none"
           d="m 131.07,214.76 18.6,0 0,1.38 -18.6,0 0,-1.38 z"
           inkscape:connector-curvature="0" /><path
           id="path196"
           style="fill:#000000;fill-opacity:1;fill-rule:nonzero;stroke:none"
           d="m 79.53,223.4 22.86,0 0,1.38 -22.86,0 0,-1.38 z"
           inkscape:connector-curvature="0" /><path
           id="path198"
           style="fill:#000000;fill-opacity:1;fill-rule:nonzero;stroke:none"
           d="m 79.53,206.18 22.86,0 0,1.38 -22.86,0 0,-1.38 z"
           inkscape:connector-curvature="0" /><path
           id="path200"
           style="fill:#000000;fill-opacity:1;fill-rule:nonzero;stroke:none"
           d="m 669.18,120.89 c 0,-2.34 -1.92,-4.32 -4.32,-4.32 -2.34,0 -4.26,1.98 -4.26,4.32 0,2.4 1.92,4.32 4.26,4.32 2.4,0 4.32,-1.92 4.32,-4.32 z"
           inkscape:connector-curvature="0" /><path
           id="path202"
           style="fill:#000000;fill-opacity:1;fill-rule:nonzero;stroke:none"
           d="m 668.22,292.85 c 0,-2.34 -1.92,-4.26 -4.32,-4.26 -2.34,0 -4.26,1.92 -4.26,4.26 0,2.4 1.92,4.32 4.26,4.32 2.4,0 4.32,-1.92 4.32,-4.32 z"
           inkscape:connector-curvature="0" /><path
           id="path204"
           style="fill:#000000;fill-opacity:1;fill-rule:nonzero;stroke:none"
           d="m 445.62,138.11 c 0,-2.4 -1.92,-4.32 -4.32,-4.32 -2.34,0 -4.26,1.92 -4.26,4.32 0,2.34 1.92,4.26 4.26,4.26 2.4,0 4.32,-1.92 4.32,-4.26 z"
           inkscape:connector-curvature="0" /><path
           id="path206"
           style="fill:#ffffff;fill-opacity:1;fill-rule:nonzero;stroke:none"
           d="m 41.34,228.53 4.44,0 4.5,-4.44 -4.5,-4.5 -4.44,0 0,8.94 z"
           inkscape:connector-curvature="0" /><path
           id="path208"
           style="fill:#000000;fill-opacity:1;fill-rule:nonzero;stroke:none"
           d="m 40.32,228.53 1.02,1.02 4.44,0 0.716,-0.29 4.5,-4.44 0.005,-1.45 -4.5,-4.5 -0.721,-0.3 -4.44,0 -1.02,1.02 0,8.94 z m 2.04,-8.94 -1.02,1.02 4.44,0 -0.721,-0.3 4.5,4.5 0.005,-1.44 -4.5,4.44 0.716,-0.3 -4.44,0 1.02,1.02 0,-8.94 z"
           inkscape:connector-curvature="0" /><path
           id="path210"
           style="fill:#ffffff;fill-opacity:1;fill-rule:nonzero;stroke:none"
           d="m 239.1,202.73 4.44,0 4.5,-4.44 -4.5,-4.5 -4.44,0 0,8.94 z"
           inkscape:connector-curvature="0" /><path
           id="path212"
           style="fill:#000000;fill-opacity:1;fill-rule:nonzero;stroke:none"
           d="m 238.08,202.73 1.02,1.02 4.44,0 0.72,-0.29 4.5,-4.44 0,-1.45 -4.5,-4.5 -0.72,-0.3 -4.44,0 -1.02,1.02 0,8.94 z m 2.04,-8.94 -1.02,1.02 4.44,0 -0.72,-0.3 4.5,4.5 0,-1.44 -4.5,4.44 0.72,-0.3 -4.44,0 1.02,1.02 0,-8.94 z"
           inkscape:connector-curvature="0" /><path
           id="path214"
           style="fill:#ffffff;fill-opacity:1;fill-rule:nonzero;stroke:none"
           d="m 436.86,125.39 4.44,0 4.5,-4.5 -4.5,-4.44 -4.44,0 0,8.94 z"
           inkscape:connector-curvature="0" /><path
           id="path216"
           style="fill:#000000;fill-opacity:1;fill-rule:nonzero;stroke:none"
           d="m 435.84,125.39 1.02,1.02 4.44,0 0.72,-0.3 4.5,-4.5 0,-1.44 -4.5,-4.44 -0.72,-0.3 -4.44,0 -1.02,1.02 0,8.94 z m 2.04,-8.94 -1.02,1.02 4.44,0 -0.72,-0.29 4.5,4.44 0,-1.45 -4.5,4.5 0.72,-0.3 -4.44,0 1.02,1.02 0,-8.94 z"
           inkscape:connector-curvature="0" /><path
           id="path218"
           style="fill:#ffffff;fill-opacity:1;fill-rule:nonzero;stroke:none"
           d="m 436.86,297.35 4.44,0 4.5,-4.5 -4.5,-4.44 -4.44,0 0,8.94 z"
           inkscape:connector-curvature="0" /><path
           id="path220"
           style="fill:#000000;fill-opacity:1;fill-rule:nonzero;stroke:none"
           d="m 435.84,297.35 1.02,1.02 4.44,0 0.72,-0.3 4.5,-4.5 0,-1.44 -4.5,-4.44 -0.72,-0.3 -4.44,0 -1.02,1.02 0,8.94 z m 2.04,-8.94 -1.02,1.02 4.44,0 -0.72,-0.29 4.5,4.44 0,-1.45 -4.5,4.5 0.72,-0.3 -4.44,0 1.02,1.02 0,-8.94 z"
           inkscape:connector-curvature="0" /><path
           id="path222"
           style="fill:#ffffff;fill-opacity:1;fill-rule:nonzero;stroke:none"
           d="m 694.8,202.73 4.5,0 4.44,-4.44 -4.44,-4.5 -4.5,0 0,8.94 z"
           inkscape:connector-curvature="0" /><path
           id="path224"
           style="fill:#000000;fill-opacity:1;fill-rule:nonzero;stroke:none"
           d="m 693.78,202.73 1.02,1.02 4.5,0 0.72,-0.3 4.44,-4.44 0.01,-1.43 -4.44,-4.5 -0.73,-0.31 -4.5,0 -1.02,1.02 0,8.94 z m 2.04,-8.94 -1.02,1.02 4.5,0 -0.73,-0.3 4.44,4.5 0.01,-1.44 -4.44,4.44 0.72,-0.3 -4.5,0 1.02,1.02 0,-8.94 z"
           inkscape:connector-curvature="0" /><path
           id="path226"
           style="fill:#ffffff;fill-opacity:1;fill-rule:nonzero;stroke:none"
           d="m 883.98,202.73 4.44,0 4.5,-4.44 -4.5,-4.5 -4.44,0 0,8.94 z"
           inkscape:connector-curvature="0" /><path
           id="path228"
           style="fill:#000000;fill-opacity:1;fill-rule:nonzero;stroke:none"
           d="m 882.96,202.73 1.02,1.02 4.44,0 0.72,-0.29 4.5,-4.44 0,-1.45 -4.5,-4.5 -0.72,-0.3 -4.44,0 -1.02,1.02 0,8.94 z m 2.04,-8.94 -1.02,1.02 4.44,0 -0.72,-0.3 4.5,4.5 0,-1.44 -4.5,4.44 0.72,-0.3 -4.44,0 1.02,1.02 0,-8.94 z"
           inkscape:connector-curvature="0" /><path
           id="path230"
           style="fill:#ffffff;fill-opacity:1;fill-rule:nonzero;stroke:none"
           d="m 694.8,297.35 4.5,0 4.44,-4.5 -4.44,-4.44 -4.5,0 0,8.94 z"
           inkscape:connector-curvature="0" /><path
           id="path232"
           style="fill:#000000;fill-opacity:1;fill-rule:nonzero;stroke:none"
           d="m 693.78,297.35 1.02,1.02 4.5,0 0.73,-0.3 4.44,-4.5 -0.01,-1.44 -4.44,-4.44 -0.72,-0.3 -4.5,0 -1.02,1.02 0,8.94 z m 2.04,-8.94 -1.02,1.02 4.5,0 -0.72,-0.3 4.44,4.44 -0.01,-1.43 -4.44,4.5 0.73,-0.31 -4.5,0 1.02,1.02 0,-8.94 z"
           inkscape:connector-curvature="0" /><path
           id="path234"
           style="fill:#ffffff;fill-opacity:1;fill-rule:nonzero;stroke:none"
           d="m 694.8,125.39 4.5,0 4.44,-4.5 -4.44,-4.44 -4.5,0 0,8.94 z"
           inkscape:connector-curvature="0" /><path
           id="path236"
           style="fill:#000000;fill-opacity:1;fill-rule:nonzero;stroke:none"
           d="m 693.78,125.39 1.02,1.02 4.5,0 0.73,-0.3 4.44,-4.5 -0.01,-1.44 -4.44,-4.44 -0.72,-0.3 -4.5,0 -1.02,1.02 0,8.94 z m 2.04,-8.94 -1.02,1.02 4.5,0 -0.72,-0.3 4.44,4.44 -0.01,-1.43 -4.44,4.5 0.73,-0.31 -4.5,0 1.02,1.02 0,-8.94 z"
           inkscape:connector-curvature="0" /><path
           id="path238"
           style="fill:#ffffff;fill-opacity:1;fill-rule:nonzero;stroke:none"
           d="m 471.24,211.37 4.5,0 4.44,-4.5 -4.44,-4.44 -4.5,0 0,8.94 z"
           inkscape:connector-curvature="0" /><path
           id="path240"
           style="fill:#000000;fill-opacity:1;fill-rule:nonzero;stroke:none"
           d="m 470.22,211.37 1.02,1.02 4.5,0 0.73,-0.3 4.44,-4.5 -0.01,-1.44 -4.44,-4.44 -0.72,-0.3 -4.5,0 -1.02,1.02 0,8.94 z m 2.04,-8.94 -1.02,1.02 4.5,0 -0.72,-0.3 4.44,4.44 -0.01,-1.43 -4.44,4.5 0.73,-0.31 -4.5,0 1.02,1.02 0,-8.94 z"
           inkscape:connector-curvature="0" /><path
           id="path242"
           style="fill:#ffffff;fill-opacity:1;fill-rule:nonzero;stroke:none"
           d="m 247.68,297.35 4.5,0 4.44,-4.5 -4.44,-4.44 -4.5,0 0,8.94 z"
           inkscape:connector-curvature="0" /><path
           id="path244"
           style="fill:#000000;fill-opacity:1;fill-rule:nonzero;stroke:none"
           d="m 246.66,297.35 1.02,1.02 4.5,0 0.73,-0.3 4.44,-4.5 -0.01,-1.44 -4.44,-4.44 -0.72,-0.3 -4.5,0 -1.02,1.02 0,8.94 z m 2.04,-8.94 -1.02,1.02 4.5,0 -0.72,-0.3 4.44,4.44 -0.01,-1.43 -4.44,4.5 0.73,-0.31 -4.5,0 1.02,1.02 0,-8.94 z"
           inkscape:connector-curvature="0" /><path
           id="path246"
           style="fill:#000000;fill-opacity:1;fill-rule:nonzero;stroke:none"
           d="m 234.72,215.45 c 0,-2.34 -1.92,-4.26 -4.32,-4.26 -2.34,0 -4.26,1.92 -4.26,4.26 0,2.4 1.92,4.32 4.26,4.32 2.4,0 4.32,-1.92 4.32,-4.32 z"
           inkscape:connector-curvature="0" /><path
           id="path248"
           style="fill:#000000;fill-opacity:1;fill-rule:nonzero;stroke:none"
           d="m 372.18,204.35 0.72,5.1 -0.36,-2.58 -0.36,-2.52 z"
           inkscape:connector-curvature="0" /><path
           id="path250"
           style="fill:#000000;fill-opacity:1;fill-rule:nonzero;stroke:none"
           d="m 788.37,197.6 2.4,0 0,1.38 -2.4,0 0,-1.38 z"
           inkscape:connector-curvature="0" /><path
           id="path252"
           style="fill:#000000;fill-opacity:1;fill-rule:nonzero;stroke:none"
           d="m 789.39,197.6 5.16,0 0,1.38 -5.16,0 0,-1.38 z"
           inkscape:connector-curvature="0" /><path
           id="path254"
           style="fill:#000000;fill-opacity:1;fill-rule:nonzero;stroke:none"
           d="m 784.59,197.6 5.16,0 0,1.38 -5.16,0 0,-1.38 z"
           inkscape:connector-curvature="0" /><path
           id="path256"
           style="fill:#000000;fill-opacity:1;fill-rule:nonzero;stroke:none"
           d="m 559.44,291.59 4.5,2.58 -2.22,-1.32 -2.28,-1.26 z"
           inkscape:connector-curvature="0" /><path
           id="path258"
           style="fill:#000000;fill-opacity:1;fill-rule:nonzero;stroke:none"
           d="m 563.22,118.85 -3.06,4.08 1.56,-2.04 1.5,-2.04 z"
           inkscape:connector-curvature="0" /><path
           id="path260"
           style="fill:#000000;fill-opacity:1;fill-rule:nonzero;stroke:none"
           d="m 148.74,212.93 0.48,5.1 -0.24,-2.58 -0.24,-2.52 z"
           inkscape:connector-curvature="0" /><path
           id="path262"
           style="fill:#000000;fill-opacity:1;fill-rule:nonzero;stroke:none"
           d="m 440.61,209.96 0,65.73 0.69,0.69 31.35,0 0,-1.38 -31.35,0 0.69,0.69 0,-65.73 -1.38,0 z"
           inkscape:connector-curvature="0" /><path
           id="path264"
           style="fill:#000000;fill-opacity:1;fill-rule:nonzero;stroke:none"
           d="m 440.61,206.18 1.38,0 0,5.16 -1.38,0 0,-5.16 z"
           inkscape:connector-curvature="0" /><path
           id="path266"
           style="fill:#000000;fill-opacity:1;fill-rule:nonzero;stroke:none"
           d="m 471.27,275 5.16,0 0,1.38 -5.16,0 0,-1.38 z"
           inkscape:connector-curvature="0" /><path
           id="path268"
           style="fill:#000000;fill-opacity:1;fill-rule:nonzero;stroke:none"
           d="m 853.35,201.38 0,143.07 0.69,-0.69 -395.52,0 0.69,0.69 0,-34.38 -0.69,0.69 14.13,0 0,-1.38 -14.13,0 -0.69,0.69 0,34.38 0.69,0.69 395.52,0 0.69,-0.69 0,-143.07 -1.38,0 z"
           inkscape:connector-curvature="0" /><path
           id="path270"
           style="fill:#000000;fill-opacity:1;fill-rule:nonzero;stroke:none"
           d="m 853.35,197.6 1.38,0 0,5.16 -1.38,0 0,-5.16 z"
           inkscape:connector-curvature="0" /><path
           id="path272"
           style="fill:#000000;fill-opacity:1;fill-rule:nonzero;stroke:none"
           d="m 471.27,309.38 5.16,0 0,1.38 -5.16,0 0,-1.38 z"
           inkscape:connector-curvature="0" /><path
           id="path274"
           style="fill:#000000;fill-opacity:1;fill-rule:nonzero;stroke:none"
           d="m 854.73,195.2 0,-125.908 -0.69,-0.69 -395.52,0 -0.69,0.69 0,34.378 0.69,0.69 14.13,0 0,-1.38 -14.13,0 0.69,0.69 0,-34.378 -0.69,0.69 395.52,0 -0.69,-0.69 0,125.908 1.38,0 z"
           inkscape:connector-curvature="0" /><path
           id="path276"
           style="fill:#000000;fill-opacity:1;fill-rule:nonzero;stroke:none"
           d="m 853.35,193.82 1.38,0 0,5.16 -1.38,0 0,-5.16 z"
           inkscape:connector-curvature="0" /><path
           id="path278"
           style="fill:#000000;fill-opacity:1;fill-rule:nonzero;stroke:none"
           d="m 471.27,102.98 5.16,0 0,1.38 -5.16,0 0,-1.38 z"
           inkscape:connector-curvature="0" /><path
           id="path280"
           style="fill:#000000;fill-opacity:1;fill-rule:nonzero;stroke:none"
           d="m 633.57,120.2 27.72,0 0,1.38 -27.72,0 0,-1.38 z"
           inkscape:connector-curvature="0" /><path
           id="path282"
           style="fill:#000000;fill-opacity:1;fill-rule:nonzero;stroke:none"
           d="m 629.79,120.2 5.16,0 0,1.38 -5.16,0 0,-1.38 z"
           inkscape:connector-curvature="0" /><path
           id="path284"
           style="fill:#000000;fill-opacity:1;fill-rule:nonzero;stroke:none"
           d="m 664.17,124.52 0,56.55 0.69,0.69 57.09,0 0,-1.38 -57.09,0 0.69,0.69 0,-56.55 -1.38,0 z"
           inkscape:connector-curvature="0" /><path
           id="path286"
           style="fill:#000000;fill-opacity:1;fill-rule:nonzero;stroke:none"
           d="m 720.57,180.38 5.16,0 0,1.38 -5.16,0 0,-1.38 z"
           inkscape:connector-curvature="0" /><path
           id="path288"
           style="fill:#000000;fill-opacity:1;fill-rule:nonzero;stroke:none"
           d="m 665.55,117.26 0,-65.128 -0.69,-0.69 -254.28,0 -0.69,0.69 0,59.818 0.69,-0.69 -158.4,0 -0.69,0.69 0,69.12 0.69,0.69 14.07,0 0,-1.38 -14.07,0 0.69,0.69 0,-69.12 -0.69,0.69 158.4,0 0.69,-0.69 0,-59.818 -0.69,0.69 254.28,0 -0.69,-0.69 0,65.128 1.38,0 z"
           inkscape:connector-curvature="0" /><path
           id="path290"
           style="fill:#000000;fill-opacity:1;fill-rule:nonzero;stroke:none"
           d="m 264.87,180.38 5.16,0 0,1.38 -5.16,0 0,-1.38 z"
           inkscape:connector-curvature="0" /><path
           id="path292"
           style="fill:#000000;fill-opacity:1;fill-rule:nonzero;stroke:none"
           d="m 633.57,292.16 26.76,0 0,1.38 -26.76,0 0,-1.38 z"
           inkscape:connector-curvature="0" /><path
           id="path294"
           style="fill:#000000;fill-opacity:1;fill-rule:nonzero;stroke:none"
           d="m 629.79,292.16 5.16,0 0,1.38 -5.16,0 0,-1.38 z"
           inkscape:connector-curvature="0" /><path
           id="path296"
           style="fill:#000000;fill-opacity:1;fill-rule:nonzero;stroke:none"
           d="m 664.64,289.29 0.91,-73.83 -0.69,0.68 57.09,0 0,-1.38 -57.09,0 -0.69,0.68 -0.91,73.83 1.38,0.02 z"
           inkscape:connector-curvature="0" /><path
           id="path298"
           style="fill:#000000;fill-opacity:1;fill-rule:nonzero;stroke:none"
           d="m 720.57,214.76 5.16,0 0,1.38 -5.16,0 0,-1.38 z"
           inkscape:connector-curvature="0" /><path
           id="path300"
           style="fill:#000000;fill-opacity:1;fill-rule:nonzero;stroke:none"
           d="m 663.21,296.48 0,65.19 0.69,-0.69 -283.62,0 0.69,0.69 0,-91.62 -0.69,-0.69 -110.94,0 0.69,0.69 0,-34.29 -1.38,0 0,34.29 0.69,0.69 110.94,0 -0.69,-0.69 0,91.62 0.69,0.69 283.62,0 0.69,-0.69 0,-65.19 -1.38,0 z"
           inkscape:connector-curvature="0" /><path
           id="path302"
           style="fill:#000000;fill-opacity:1;fill-rule:nonzero;stroke:none"
           d="m 268.65,231.98 1.38,0 0,5.16 -1.38,0 0,-5.16 z"
           inkscape:connector-curvature="0" /><path
           id="path304"
           style="fill:#000000;fill-opacity:1;fill-rule:nonzero;stroke:none"
           d="m 440.61,141.68 1.38,0 0,62.1 -1.38,0 0,-62.1 z"
           inkscape:connector-curvature="0" /><path
           id="path306"
           style="fill:#000000;fill-opacity:1;fill-rule:nonzero;stroke:none"
           d="m 440.61,202.4 1.38,0 0,5.16 -1.38,0 0,-5.16 z"
           inkscape:connector-curvature="0" /><path
           id="path308"
           style="fill:#000000;fill-opacity:1;fill-rule:nonzero;stroke:none"
           d="m 444.93,137.42 27.72,0 0,1.38 -27.72,0 0,-1.38 z"
           inkscape:connector-curvature="0" /><path
           id="path310"
           style="fill:#000000;fill-opacity:1;fill-rule:nonzero;stroke:none"
           d="m 471.27,137.42 5.16,0 0,1.38 -5.16,0 0,-1.38 z"
           inkscape:connector-curvature="0" /><path
           id="path312"
           style="fill:#000000;fill-opacity:1;fill-rule:nonzero;stroke:none"
           d="m 437.73,137.42 -357.51,0 -0.69,0.69 0,65.67 1.38,0 0,-65.67 -0.69,0.69 357.51,0 0,-1.38 z"
           inkscape:connector-curvature="0" /><path
           id="path314"
           style="fill:#000000;fill-opacity:1;fill-rule:nonzero;stroke:none"
           d="m 79.53,202.4 1.38,0 0,5.16 -1.38,0 0,-5.16 z"
           inkscape:connector-curvature="0" /><path
           id="path316"
           style="fill:#000000;fill-opacity:1;fill-rule:nonzero;stroke:none"
           d="m 220.83,214.76 6,0 0,1.38 -6,0 0,-1.38 z"
           inkscape:connector-curvature="0" /><path
           id="path318"
           style="fill:#000000;fill-opacity:1;fill-rule:nonzero;stroke:none"
           d="m 217.05,214.76 5.16,0 0,1.38 -5.16,0 0,-1.38 z"
           inkscape:connector-curvature="0" /><path
           id="path320"
           style="fill:#000000;fill-opacity:1;fill-rule:nonzero;stroke:none"
           d="m 234.03,214.76 32.22,0 0,1.38 -32.22,0 0,-1.38 z"
           inkscape:connector-curvature="0" /><path
           id="path322"
           style="fill:#000000;fill-opacity:1;fill-rule:nonzero;stroke:none"
           d="m 264.87,214.76 5.16,0 0,1.38 -5.16,0 0,-1.38 z"
           inkscape:connector-curvature="0" /><path
           id="path324"
           style="fill:#000000;fill-opacity:1;fill-rule:nonzero;stroke:none"
           d="m 229.71,219.08 0,73.77 0.69,0.69 17.97,0 0,-1.38 -17.97,0 0.69,0.69 0,-73.77 -1.38,0 z"
           inkscape:connector-curvature="0" /><path
           id="path326"
           style="fill:#000000;fill-opacity:1;fill-rule:nonzero;stroke:none"
           d="m 247.35,197.6 18.9,0 0,1.38 -18.9,0 0,-1.38 z"
           inkscape:connector-curvature="0" /><path
           id="path328"
           style="fill:#000000;fill-opacity:1;fill-rule:nonzero;stroke:none"
           d="m 264.87,197.6 5.16,0 0,1.38 -5.16,0 0,-1.38 z"
           inkscape:connector-curvature="0" /><path
           id="path330"
           style="fill:#000000;fill-opacity:1;fill-rule:nonzero;stroke:none"
           d="m 49.59,223.4 27.54,0 0,1.38 -27.54,0 0,-1.38 z"
           inkscape:connector-curvature="0" /><path
           id="path332"
           style="fill:#000000;fill-opacity:1;fill-rule:nonzero;stroke:none"
           d="m 75.75,223.4 5.16,0 0,1.38 -5.16,0 0,-1.38 z"
           inkscape:connector-curvature="0" /><path
           id="path334"
           style="fill:#000000;fill-opacity:1;fill-rule:nonzero;stroke:none"
           d="m 445.11,292.16 27.54,0 0,1.38 -27.54,0 0,-1.38 z"
           inkscape:connector-curvature="0" /><path
           id="path336"
           style="fill:#000000;fill-opacity:1;fill-rule:nonzero;stroke:none"
           d="m 471.27,292.16 5.16,0 0,1.38 -5.16,0 0,-1.38 z"
           inkscape:connector-curvature="0" /><path
           id="path338"
           style="fill:#000000;fill-opacity:1;fill-rule:nonzero;stroke:none"
           d="m 445.11,120.2 27.54,0 0,1.38 -27.54,0 0,-1.38 z"
           inkscape:connector-curvature="0" /><path
           id="path340"
           style="fill:#000000;fill-opacity:1;fill-rule:nonzero;stroke:none"
           d="m 471.27,120.2 5.16,0 0,1.38 -5.16,0 0,-1.38 z"
           inkscape:connector-curvature="0" /><path
           id="path342"
           style="fill:#000000;fill-opacity:1;fill-rule:nonzero;stroke:none"
           d="m 703.05,197.6 18.9,0 0,1.38 -18.9,0 0,-1.38 z"
           inkscape:connector-curvature="0" /><path
           id="path344"
           style="fill:#000000;fill-opacity:1;fill-rule:nonzero;stroke:none"
           d="m 720.57,197.6 5.16,0 0,1.38 -5.16,0 0,-1.38 z"
           inkscape:connector-curvature="0" /><path
           id="path346"
           style="fill:#000000;fill-opacity:1;fill-rule:nonzero;stroke:none"
           d="m 857.13,197.6 27.54,0 0,1.38 -27.54,0 0,-1.38 z"
           inkscape:connector-curvature="0" /><path
           id="path348"
           style="fill:#000000;fill-opacity:1;fill-rule:nonzero;stroke:none"
           d="m 853.35,197.6 5.16,0 0,1.38 -5.16,0 0,-1.38 z"
           inkscape:connector-curvature="0" /><path
           id="path350"
           style="fill:#000000;fill-opacity:1;fill-rule:nonzero;stroke:none"
           d="m 668.49,120.2 27,0 0,1.38 -27,0 0,-1.38 z"
           inkscape:connector-curvature="0" /><path
           id="path352"
           style="fill:#000000;fill-opacity:1;fill-rule:nonzero;stroke:none"
           d="m 667.53,292.16 27.96,0 0,1.38 -27.96,0 0,-1.38 z"
           inkscape:connector-curvature="0" /><path
           id="path354"
           style="fill:#000000;fill-opacity:1;fill-rule:nonzero;stroke:none"
           d="m 444.39,206.18 27.54,0 0,1.38 -27.54,0 0,-1.38 z"
           inkscape:connector-curvature="0" /><path
           id="path356"
           style="fill:#000000;fill-opacity:1;fill-rule:nonzero;stroke:none"
           d="m 440.61,206.18 5.16,0 0,1.38 -5.16,0 0,-1.38 z"
           inkscape:connector-curvature="0" /><path
           id="path358"
           style="fill:#ffffff;fill-opacity:1;fill-rule:nonzero;stroke:none"
           d="m 389.76,189.71 34.38,0 0,34.38 -34.38,0 0,-34.38 z"
           inkscape:connector-curvature="0" /><path
           id="path360"
           style="fill:#000000;fill-opacity:1;fill-rule:nonzero;stroke:none"
           d="m 388.74,224.09 1.02,1.02 34.38,0 1.02,-1.02 0,-34.38 -1.02,-1.02 -34.38,0 -1.02,1.02 0,34.38 z m 2.04,-34.38 -1.02,1.02 34.38,0 -1.02,-1.02 0,34.38 1.02,-1.02 -34.38,0 1.02,1.02 0,-34.38 z"
           inkscape:connector-curvature="0" /><path
           id="path362"
           style="fill:#000000;fill-opacity:1;fill-rule:nonzero;stroke:none"
           d="m 415.02,202.67 c 0,-0.9 -0.18,-1.68 -0.48,-2.4 -0.36,-0.72 -0.84,-1.32 -1.44,-1.74 -0.72,-0.54 -1.44,-0.96 -2.28,-1.2 -0.84,-0.24 -1.92,-0.36 -3.18,-0.36 l -6.6,0 0,18.54 5.52,0 c 1.32,0 2.34,-0.06 3,-0.12 0.72,-0.12 1.32,-0.3 1.98,-0.66 0.66,-0.36 1.14,-0.78 1.44,-1.38 0.3,-0.54 0.48,-1.2 0.48,-1.98 0,-0.9 -0.24,-1.62 -0.66,-2.28 -0.48,-0.6 -1.08,-1.08 -1.8,-1.44 l 0,-0.12 c 1.26,-0.24 2.22,-0.78 2.94,-1.62 0.72,-0.84 1.08,-1.92 1.08,-3.24 z m -4.14,8.4 c 0,0.42 -0.06,0.78 -0.24,1.08 -0.12,0.36 -0.36,0.6 -0.72,0.78 -0.36,0.24 -0.84,0.36 -1.38,0.42 -0.6,0.06 -1.26,0.06 -2.1,0.06 l -2.94,0 0,-5.34 3.18,0 c 0.78,0 1.44,0.06 1.86,0.12 0.48,0.06 0.9,0.24 1.26,0.48 0.42,0.24 0.66,0.6 0.84,0.96 0.18,0.42 0.24,0.9 0.24,1.44 z m 1.56,-8.46 c 0,0.72 -0.06,1.32 -0.3,1.74 -0.24,0.48 -0.66,0.84 -1.2,1.14 -0.42,0.24 -0.9,0.36 -1.5,0.42 -0.54,0.06 -1.26,0.06 -2.04,0.06 l -3.9,0 0,-6.84 3.3,0 c 1.08,0 1.92,0 2.64,0.12 0.66,0.12 1.26,0.36 1.68,0.66 0.48,0.3 0.84,0.66 1.02,1.08 0.24,0.42 0.3,0.96 0.3,1.62 z"
           inkscape:connector-curvature="0" /><path
           id="path364"
           style="fill:#ffffff;fill-opacity:1;fill-rule:nonzero;stroke:none"
           d="m 578.88,275.69 34.38,0 0,34.38 -34.38,0 0,-34.38 z"
           inkscape:connector-curvature="0" /><path
           id="path366"
           style="fill:#000000;fill-opacity:1;fill-rule:nonzero;stroke:none"
           d="m 577.86,310.07 1.02,1.02 34.38,0 1.02,-1.02 0,-34.38 -1.02,-1.02 -34.38,0 -1.02,1.02 0,34.38 z m 2.04,-34.38 -1.02,1.02 34.38,0 -1.02,-1.02 0,34.38 1.02,-1.02 -34.38,0 1.02,1.02 0,-34.38 z"
           inkscape:connector-curvature="0" /><path
           id="path368"
           style="fill:#000000;fill-opacity:1;fill-rule:nonzero;stroke:none"
           d="m 603.9,286.13 c -0.48,-0.24 -0.84,-0.42 -1.26,-0.6 -0.36,-0.18 -0.84,-0.36 -1.44,-0.54 -0.48,-0.12 -1.02,-0.3 -1.62,-0.36 -0.6,-0.12 -1.26,-0.18 -1.98,-0.18 -1.32,0 -2.58,0.18 -3.66,0.54 -1.08,0.36 -2.04,0.96 -2.88,1.8 -0.78,0.78 -1.38,1.74 -1.86,3 -0.42,1.2 -0.66,2.64 -0.66,4.2 0,1.56 0.24,2.94 0.66,4.14 0.42,1.2 1.02,2.22 1.86,3 0.78,0.84 1.74,1.44 2.82,1.86 1.14,0.42 2.4,0.66 3.72,0.66 1.02,0 1.98,-0.12 3,-0.36 0.96,-0.24 2.1,-0.66 3.3,-1.32 l 0,-2.88 -0.18,0 c -1.02,0.84 -2.04,1.44 -3.06,1.86 -0.96,0.36 -2.04,0.6 -3.18,0.6 -0.96,0 -1.8,-0.18 -2.58,-0.48 -0.72,-0.3 -1.38,-0.78 -1.98,-1.44 -0.6,-0.6 -1.02,-1.38 -1.32,-2.34 -0.36,-0.96 -0.48,-2.04 -0.48,-3.3 0,-1.26 0.18,-2.4 0.48,-3.36 0.36,-0.9 0.84,-1.68 1.38,-2.28 0.6,-0.6 1.26,-1.08 2.04,-1.38 0.78,-0.24 1.62,-0.42 2.46,-0.42 1.2,0 2.28,0.24 3.36,0.6 1.02,0.42 1.98,1.02 2.88,1.86 l 0.18,0 0,-2.88 z"
           inkscape:connector-curvature="0" /><path
           id="path370"
           style="fill:#ffffff;fill-opacity:1;fill-rule:nonzero;stroke:none"
           d="m 578.88,103.67 34.38,0 0,34.44 -34.38,0 0,-34.44 z"
           inkscape:connector-curvature="0" /><path
           id="path372"
           style="fill:#000000;fill-opacity:1;fill-rule:nonzero;stroke:none"
           d="m 577.86,138.11 1.02,1.02 34.38,0 1.02,-1.02 0,-34.44 -1.02,-1.02 -34.38,0 -1.02,1.02 0,34.44 z m 2.04,-34.44 -1.02,1.02 34.38,0 -1.02,-1.02 0,34.44 1.02,-1.02 -34.38,0 1.02,1.02 0,-34.44 z"
           inkscape:connector-curvature="0" /><path
           id="path374"
           style="fill:#000000;fill-opacity:1;fill-rule:nonzero;stroke:none"
           d="m 605.7,121.31 c 0,-1.68 -0.36,-3.24 -1.14,-4.56 -0.72,-1.38 -1.68,-2.46 -2.88,-3.24 -0.84,-0.48 -1.8,-0.9 -2.88,-1.08 -1.02,-0.24 -2.4,-0.36 -4.08,-0.36 l -4.68,0 0,18.54 4.62,0 c 1.8,0 3.24,-0.18 4.32,-0.42 1.08,-0.24 1.98,-0.6 2.7,-1.08 1.26,-0.78 2.22,-1.86 2.94,-3.12 0.72,-1.32 1.08,-2.88 1.08,-4.68 z m -2.58,0 c 0,1.5 -0.24,2.7 -0.78,3.72 -0.48,0.96 -1.26,1.74 -2.22,2.34 -0.78,0.42 -1.56,0.72 -2.34,0.84 -0.84,0.18 -1.8,0.24 -2.94,0.24 l -2.34,0 0,-14.28 2.34,0 c 1.14,0 2.22,0.06 3.06,0.24 0.9,0.18 1.74,0.54 2.46,1.02 0.9,0.54 1.62,1.32 2.04,2.28 0.48,0.96 0.72,2.16 0.72,3.6 z"
           inkscape:connector-curvature="0" /><path
           id="path376"
           style="fill:#ffffff;fill-opacity:1;fill-rule:nonzero;stroke:none"
           d="m 802.44,181.07 34.38,0 0,34.38 -34.38,0 0,-34.38 z"
           inkscape:connector-curvature="0" /><path
           id="path378"
           style="fill:#000000;fill-opacity:1;fill-rule:nonzero;stroke:none"
           d="m 801.42,215.45 1.02,1.02 34.38,0 1.02,-1.02 0,-34.38 -1.02,-1.02 -34.38,0 -1.02,1.02 0,34.38 z m 2.04,-34.38 -1.02,1.02 34.38,0 -1.02,-1.02 0,34.38 1.02,-1.02 -34.38,0 1.02,1.02 0,-34.38 z"
           inkscape:connector-curvature="0" /><path
           id="path380"
           style="fill:#000000;fill-opacity:1;fill-rule:nonzero;stroke:none"
           d="m 825.72,189.53 -12.24,0 0,18.48 12.24,0 0,-2.16 -9.78,0 0,-5.1 9.78,0 0,-2.16 -9.78,0 0,-6.9 9.78,0 0,-2.16 z"
           inkscape:connector-curvature="0" /><path
           id="path382"
           style="fill:#00419b;fill-opacity:1;fill-rule:nonzero;stroke:none"
           d="m 174.48,382.79 5.7,0 7.02,-15.54 3.18,11.88 c 0.06,0.24 0.06,0.48 0.06,0.66 0,0.66 -0.18,1.08 -0.54,1.44 -0.42,0.36 -0.96,0.48 -1.68,0.48 l -0.6,0 0.24,1.08 7.08,0 -0.24,-1.08 c -1.56,-0.06 -2.58,-0.84 -2.94,-2.34 l -4.56,-16.8 -0.9,0 -7.92,17.4 -3.48,-13.14 c -0.18,-0.6 -0.24,-1.02 -0.24,-1.32 0,-0.42 0.06,-0.78 0.24,-1.08 0.18,-0.24 0.42,-0.48 0.72,-0.54 0.6,-0.24 1.14,-0.3 1.74,-0.3 l 0.42,0 -0.24,-1.02 -7.62,0 0.24,1.02 c 1.08,0.12 1.8,0.36 2.22,0.78 0.42,0.36 0.78,1.2 1.14,2.46 l 3.66,13.5 c 0,0.12 0,0.18 0,0.24 0,0.3 -0.12,0.6 -0.42,0.78 -0.42,0.24 -1.02,0.36 -1.74,0.36 l -0.78,0 0.24,1.08 z"
           inkscape:connector-curvature="0" /><path
           id="path384"
           style="fill:#00419b;fill-opacity:1;fill-rule:nonzero;stroke:none"
           d="m 195.9,367.49 c 0,-0.42 -0.06,-0.78 -0.06,-1.08 0,-0.96 0.24,-1.74 0.72,-2.28 0.48,-0.54 1.2,-0.78 1.98,-0.78 0.66,0 1.32,0.18 1.98,0.48 0.6,0.36 1.44,1.02 2.4,2.1 l 0.6,-0.6 c -1.74,-2.1 -3.54,-3.18 -5.46,-3.18 -1.32,0 -2.4,0.48 -3.3,1.5 -0.9,0.96 -1.38,2.22 -1.38,3.72 0,1.38 0.36,2.7 1.14,4.02 0.78,1.26 1.74,2.34 3,3.12 1.32,0.84 2.46,1.2 3.54,1.2 0.96,0 1.74,-0.24 2.34,-0.78 0.6,-0.54 0.9,-1.2 0.9,-1.98 0,-0.66 -0.24,-1.32 -0.72,-2.04 -0.48,-0.6 -1.2,-1.2 -2.28,-1.74 -1.02,-0.54 -2.82,-1.08 -5.4,-1.68 z m 0.18,0.9 c 1.74,0.42 3,0.78 3.72,1.2 0.78,0.42 1.32,0.9 1.68,1.56 0.42,0.6 0.6,1.26 0.6,1.92 0,0.54 -0.18,0.96 -0.42,1.26 -0.3,0.3 -0.66,0.42 -1.14,0.42 -0.9,0 -1.74,-0.48 -2.58,-1.5 -0.78,-0.96 -1.38,-2.58 -1.86,-4.86 z"
           inkscape:connector-curvature="0" /><path
           id="path386"
           style="fill:#00419b;fill-opacity:1;fill-rule:nonzero;stroke:none"
           d="m 210.78,379.73 2.28,0 -1.32,-4.38 2.34,0 -0.24,-1.14 -2.4,0 -2.4,-8.4 c -0.12,-0.48 -0.18,-0.9 -0.18,-1.26 0,-0.36 0.06,-0.6 0.18,-0.78 0.18,-0.18 0.36,-0.3 0.54,-0.3 0.96,0 2.1,1.2 3.48,3.54 l 0.78,-0.42 c -1.62,-2.94 -3.3,-4.44 -5.1,-4.44 -0.66,0 -1.14,0.18 -1.56,0.6 -0.36,0.42 -0.54,0.96 -0.54,1.56 0,0.6 0.06,1.2 0.24,1.8 l 2.34,8.1 -2.52,0 0.36,1.14 2.46,0 1.26,4.38 z"
           inkscape:connector-curvature="0" /><path
           id="path388"
           style="fill:#00419b;fill-opacity:1;fill-rule:nonzero;stroke:none"
           d="m 224.94,366.23 c -0.96,-1.5 -1.86,-2.52 -2.82,-3.18 -0.96,-0.6 -1.86,-0.9 -2.7,-0.9 -0.78,0 -1.44,0.24 -1.92,0.78 -0.54,0.54 -0.78,1.2 -0.78,1.98 0,0.42 0.12,1.02 0.36,1.74 l 0.18,0.54 1.92,5.94 c 0.06,0.12 0.06,0.24 0.06,0.3 0,0.3 -0.12,0.48 -0.36,0.66 -0.3,0.18 -0.72,0.24 -1.32,0.24 l -0.48,0 0.36,1.02 4.74,0.24 -3,-9.18 c -0.18,-0.54 -0.24,-1.02 -0.24,-1.5 0,-0.48 0.12,-0.84 0.36,-1.08 0.24,-0.3 0.6,-0.42 0.96,-0.42 0.9,0 1.86,0.54 2.76,1.62 1.26,1.44 2.28,3.54 3.06,6.3 l 1.14,4.02 2.22,0 -1.86,-6.54 c -0.12,-0.42 -0.3,-1.02 -0.42,-1.8 l -0.06,-0.48 c -0.06,-0.24 -0.06,-0.42 -0.06,-0.66 0,-0.84 0.18,-1.44 0.48,-1.86 0.3,-0.36 0.72,-0.54 1.26,-0.54 0.66,0 1.38,0.3 2.1,0.96 0.78,0.6 1.5,1.68 2.16,3.12 0.66,1.44 1.02,2.82 1.02,4.02 0,0.3 -0.06,0.6 -0.12,0.84 -0.12,0.18 -0.3,0.54 -0.6,0.9 -0.36,0.42 -0.54,0.72 -0.66,0.84 -0.06,0.12 -0.06,0.24 -0.06,0.36 0,0.3 0.12,0.6 0.36,0.84 0.24,0.24 0.48,0.36 0.78,0.36 0.36,0 0.72,-0.18 1.08,-0.66 0.3,-0.48 0.48,-1.08 0.48,-1.92 0,-1.44 -0.3,-3.06 -0.9,-4.74 -0.72,-2.1 -1.68,-3.72 -2.88,-4.74 -1.2,-1.02 -2.4,-1.5 -3.54,-1.5 -0.66,0 -1.2,0.12 -1.68,0.42 -0.48,0.3 -0.78,0.66 -1.02,1.14 -0.18,0.48 -0.3,1.32 -0.36,2.52 z"
           inkscape:connector-curvature="0" /><path
           id="path390"
           style="fill:#00419b;fill-opacity:1;fill-rule:nonzero;stroke:none"
           d="m 244.56,375.71 c 1.38,0 2.58,-0.48 3.54,-1.56 0.96,-1.02 1.5,-2.34 1.5,-3.96 0,-1.38 -0.36,-2.7 -1.08,-4.02 -0.66,-1.32 -1.56,-2.28 -2.7,-3 -1.08,-0.66 -2.22,-1.02 -3.36,-1.02 -1.44,0 -2.64,0.54 -3.6,1.56 -1.02,1.08 -1.5,2.4 -1.5,4.02 0,1.32 0.36,2.64 1.02,3.96 0.72,1.26 1.62,2.28 2.76,3 1.08,0.66 2.22,1.02 3.42,1.02 z m 0,-0.9 c -0.66,0 -1.32,-0.3 -2.04,-0.9 -0.72,-0.54 -1.32,-1.56 -1.92,-3 -0.54,-1.44 -0.84,-2.94 -0.84,-4.38 0,-1.08 0.3,-1.98 0.78,-2.58 0.48,-0.6 1.08,-0.9 1.8,-0.9 0.72,0 1.44,0.3 2.1,0.84 0.66,0.6 1.32,1.62 1.86,3.12 0.6,1.5 0.9,2.94 0.9,4.38 0,1.08 -0.3,1.92 -0.78,2.52 -0.48,0.6 -1.08,0.9 -1.86,0.9 z"
           inkscape:connector-curvature="0" /><path
           id="path392"
           style="fill:#00419b;fill-opacity:1;fill-rule:nonzero;stroke:none"
           d="m 254.28,362.57 -2.28,-0.18 2.4,8.76 c 0.3,0.96 0.42,1.56 0.42,1.92 0,0.42 -0.12,0.78 -0.42,0.96 -0.3,0.24 -0.72,0.36 -1.38,0.36 l -0.6,0 0.3,0.96 4.56,0.24 -1.26,-5.52 c 0.78,1.86 1.44,3.12 1.86,3.78 0.42,0.66 0.9,1.14 1.44,1.44 0.48,0.3 1.02,0.42 1.5,0.42 0.6,0 1.08,-0.18 1.5,-0.54 0.36,-0.42 0.6,-0.84 0.6,-1.44 0,-0.54 -0.18,-0.96 -0.48,-1.26 -0.24,-0.36 -0.6,-0.48 -1.02,-0.48 -0.36,0 -0.66,0.12 -0.9,0.36 -0.24,0.24 -0.36,0.48 -0.36,0.84 0,0.12 0.06,0.3 0.18,0.54 0.06,0.18 0.06,0.3 0.06,0.36 0,0.12 0,0.24 -0.06,0.3 -0.12,0.06 -0.18,0.12 -0.36,0.12 -0.24,0 -0.48,-0.18 -0.84,-0.42 -0.6,-0.54 -1.2,-1.44 -1.74,-2.76 -1.08,-2.34 -1.8,-4.26 -2.28,-5.76 l -0.84,-3 z"
           inkscape:connector-curvature="0" /><path
           id="path394"
           style="fill:#00419b;fill-opacity:1;fill-rule:nonzero;stroke:none"
           d="m 271.92,382.97 -3.3,-11.4 c 1.2,1.56 2.28,2.64 3.24,3.24 0.96,0.6 1.86,0.9 2.7,0.9 0.84,0 1.44,-0.24 1.98,-0.66 0.48,-0.48 0.78,-1.08 0.78,-1.68 0,-0.9 -0.42,-1.74 -1.32,-2.58 -0.84,-0.78 -2.22,-1.5 -4.2,-2.1 0.6,-0.24 1.08,-0.6 1.32,-1.08 0.18,-0.36 0.36,-1.08 0.48,-2.28 0.12,-0.6 0.18,-1.02 0.24,-1.2 0.12,-0.24 0.3,-0.36 0.48,-0.36 0.6,0 1.56,0.96 2.82,2.94 l 0.66,-0.36 c -1.56,-2.7 -3,-4.08 -4.38,-4.08 -0.6,0 -1.08,0.24 -1.44,0.72 -0.36,0.42 -0.54,1.14 -0.54,1.98 l 0,2.28 c 0,0.54 -0.18,0.9 -0.48,1.14 -0.36,-0.12 -0.66,-0.12 -0.84,-0.12 -0.3,0 -0.48,0 -0.66,0.12 -0.12,0.12 -0.24,0.3 -0.24,0.48 0,0.18 0.06,0.3 0.18,0.36 0.12,0.12 0.3,0.18 0.54,0.18 0.12,0 0.3,-0.06 0.54,-0.06 0.24,-0.06 0.42,-0.06 0.6,-0.06 1.02,0 1.98,0.36 2.88,1.2 0.9,0.78 1.32,1.56 1.32,2.4 0,0.48 -0.18,0.9 -0.48,1.2 -0.3,0.3 -0.66,0.42 -1.08,0.42 -0.66,0 -1.44,-0.3 -2.28,-0.96 -0.84,-0.6 -1.68,-1.68 -2.58,-3.24 -0.72,-1.08 -1.26,-2.34 -1.62,-3.72 l -1.2,-4.02 -2.28,-0.18 5.22,18.12 c 0.06,0.18 0.06,0.3 0.06,0.42 0,0.24 -0.12,0.42 -0.3,0.6 -0.24,0.12 -0.6,0.18 -1.14,0.18 l -0.9,0 0.24,1.08 4.98,0.18 z"
           inkscape:connector-curvature="0" /><path
           id="path396"
           style="fill:#00419b;fill-opacity:1;fill-rule:nonzero;stroke:none"
           d="m 293.46,375.59 -1.2,-4.44 c 2.1,2.94 4.08,4.44 5.88,4.44 0.72,0 1.26,-0.24 1.74,-0.72 0.42,-0.42 0.66,-1.08 0.66,-1.92 0,-0.66 -0.18,-1.5 -0.48,-2.4 l -1.44,-4.56 -0.36,-1.14 c -0.06,-0.24 -0.12,-0.48 -0.12,-0.6 0,-0.24 0.06,-0.36 0.18,-0.54 0.12,-0.12 0.24,-0.18 0.42,-0.18 0.36,0 0.84,0.3 1.5,0.9 0.6,0.6 1.14,1.5 1.62,2.76 l 0.84,-0.3 c -0.6,-1.5 -1.32,-2.64 -2.22,-3.42 -0.9,-0.78 -1.74,-1.2 -2.52,-1.2 -0.54,0 -0.96,0.24 -1.32,0.6 -0.36,0.42 -0.54,0.96 -0.54,1.56 0,0.54 0.12,1.14 0.3,1.74 l 1.62,4.98 c 0.18,0.54 0.3,1.08 0.3,1.62 0,0.42 -0.12,0.78 -0.36,1.02 -0.24,0.24 -0.54,0.36 -0.9,0.36 -0.78,0 -1.8,-0.66 -3.06,-1.98 -1.26,-1.38 -2.16,-3.18 -2.88,-5.52 l -1.14,-4.08 -2.28,-0.12 3,10.62 c 0.06,0.18 0.06,0.3 0.06,0.48 0,0.3 -0.06,0.48 -0.24,0.6 -0.24,0.18 -0.54,0.3 -1.02,0.3 l -1.2,0 0.3,0.9 4.86,0.24 z"
           inkscape:connector-curvature="0" /><path
           id="path398"
           style="fill:#00419b;fill-opacity:1;fill-rule:nonzero;stroke:none"
           d="m 311.4,375.71 c 1.44,0 2.58,-0.48 3.6,-1.56 0.96,-1.02 1.44,-2.34 1.44,-3.96 0,-1.38 -0.3,-2.7 -1.02,-4.02 -0.72,-1.32 -1.62,-2.28 -2.7,-3 -1.08,-0.66 -2.22,-1.02 -3.42,-1.02 -1.38,0 -2.58,0.54 -3.6,1.56 -0.96,1.08 -1.5,2.4 -1.5,4.02 0,1.32 0.36,2.64 1.08,3.96 0.72,1.26 1.62,2.28 2.76,3 1.08,0.66 2.22,1.02 3.36,1.02 z m 0.06,-0.9 c -0.66,0 -1.38,-0.3 -2.04,-0.9 -0.72,-0.54 -1.32,-1.56 -1.92,-3 -0.54,-1.44 -0.84,-2.94 -0.84,-4.38 0,-1.08 0.24,-1.98 0.72,-2.58 0.48,-0.6 1.14,-0.9 1.86,-0.9 0.72,0 1.38,0.3 2.1,0.84 0.66,0.6 1.26,1.62 1.86,3.12 0.54,1.5 0.84,2.94 0.84,4.38 0,1.08 -0.24,1.92 -0.72,2.52 -0.48,0.6 -1.08,0.9 -1.86,0.9 z"
           inkscape:connector-curvature="0" /><path
           id="path400"
           style="fill:#00419b;fill-opacity:1;fill-rule:nonzero;stroke:none"
           d="m 334.44,383.03 -5.1,-17.52 c -0.12,-0.48 -0.18,-0.9 -0.18,-1.26 0,-0.24 0.06,-0.36 0.18,-0.48 0.12,-0.12 0.24,-0.18 0.48,-0.18 0.78,0 1.86,1.14 3.18,3.48 l 0.78,-0.36 c -0.84,-1.68 -1.68,-2.82 -2.52,-3.54 -0.78,-0.66 -1.5,-1.02 -2.16,-1.02 -0.6,0 -1.08,0.18 -1.38,0.6 -0.3,0.48 -0.48,1.08 -0.54,1.92 -1.26,-1.68 -2.7,-2.52 -4.2,-2.52 -0.78,0 -1.56,0.18 -2.22,0.6 -0.66,0.42 -1.2,1.02 -1.62,1.74 -0.36,0.78 -0.54,1.62 -0.54,2.52 0,1.44 0.36,2.88 1.14,4.32 0.72,1.44 1.68,2.52 2.76,3.3 1.08,0.72 2.16,1.08 3.3,1.08 0.78,0 1.44,-0.18 2.04,-0.54 0.6,-0.42 1.14,-0.96 1.62,-1.74 l 2.04,7.26 c 0,0.12 0.06,0.18 0.06,0.24 0,0.24 -0.12,0.48 -0.3,0.6 -0.18,0.12 -0.48,0.18 -0.9,0.18 l -1.44,0 0.3,1.08 5.22,0.24 z m -8.34,-8.46 c -0.84,0 -1.62,-0.36 -2.4,-1.14 -0.84,-0.72 -1.5,-1.98 -2.04,-3.72 -0.36,-1.26 -0.6,-2.4 -0.6,-3.3 0,-0.96 0.24,-1.68 0.72,-2.22 0.42,-0.54 1.02,-0.84 1.68,-0.84 0.84,0 1.62,0.42 2.46,1.2 0.78,0.78 1.44,1.92 1.98,3.48 0.54,1.56 0.78,2.82 0.78,3.72 0,0.84 -0.24,1.56 -0.72,2.04 -0.48,0.54 -1.08,0.78 -1.86,0.78 z"
           inkscape:connector-curvature="0" /><path
           id="path402"
           style="fill:#00419b;fill-opacity:1;fill-rule:nonzero;stroke:none"
           d="m 337.92,367.49 c 0,-0.42 -0.06,-0.78 -0.06,-1.08 0,-0.96 0.24,-1.74 0.72,-2.28 0.48,-0.54 1.2,-0.78 2.04,-0.78 0.6,0 1.26,0.18 1.92,0.48 0.66,0.36 1.44,1.02 2.4,2.1 l 0.6,-0.6 c -1.68,-2.1 -3.54,-3.18 -5.46,-3.18 -1.32,0 -2.4,0.48 -3.3,1.5 -0.9,0.96 -1.38,2.22 -1.38,3.72 0,1.38 0.36,2.7 1.14,4.02 0.78,1.26 1.74,2.34 3,3.12 1.32,0.84 2.46,1.2 3.54,1.2 0.96,0 1.74,-0.24 2.34,-0.78 0.6,-0.54 0.9,-1.2 0.9,-1.98 0,-0.66 -0.24,-1.32 -0.72,-2.04 -0.48,-0.6 -1.2,-1.2 -2.28,-1.74 -1.02,-0.54 -2.82,-1.08 -5.4,-1.68 z m 0.24,0.9 c 1.74,0.42 2.94,0.78 3.66,1.2 0.78,0.42 1.32,0.9 1.68,1.56 0.42,0.6 0.6,1.26 0.6,1.92 0,0.54 -0.12,0.96 -0.42,1.26 -0.3,0.3 -0.66,0.42 -1.14,0.42 -0.9,0 -1.74,-0.48 -2.52,-1.5 -0.84,-0.96 -1.44,-2.58 -1.86,-4.86 z"
           inkscape:connector-curvature="0" /><path
           id="path404"
           style="fill:#00419b;fill-opacity:1;fill-rule:nonzero;stroke:none"
           d="m 354.36,375.71 c 1.32,0 2.34,-0.24 3,-0.78 0.72,-0.54 1.08,-1.2 1.08,-1.98 0,-0.48 -0.12,-0.9 -0.42,-1.2 -0.3,-0.3 -0.6,-0.48 -1.02,-0.48 -0.36,0 -0.66,0.12 -0.96,0.42 -0.24,0.24 -0.36,0.54 -0.36,0.9 0,0.24 0.06,0.48 0.3,0.78 0.12,0.18 0.24,0.36 0.24,0.48 0,0.24 -0.18,0.48 -0.48,0.66 -0.3,0.18 -0.78,0.3 -1.38,0.3 -0.96,0 -1.68,-0.24 -2.28,-0.78 -0.54,-0.48 -0.84,-1.08 -0.84,-1.74 0,-0.54 0.18,-0.9 0.48,-1.2 0.3,-0.3 1.2,-0.66 2.64,-1.08 1.2,-0.42 2.04,-0.84 2.52,-1.44 0.48,-0.54 0.72,-1.2 0.72,-1.98 0,-1.2 -0.54,-2.22 -1.56,-3.12 -1.02,-0.9 -2.34,-1.32 -3.96,-1.32 -1.44,0 -2.52,0.3 -3.3,0.9 -0.78,0.66 -1.14,1.38 -1.14,2.28 0,0.6 0.12,1.02 0.42,1.38 0.3,0.36 0.72,0.48 1.14,0.48 0.36,0 0.72,-0.12 0.96,-0.36 0.24,-0.24 0.36,-0.54 0.36,-0.96 0,-0.18 0,-0.3 -0.06,-0.48 -0.06,-0.12 -0.24,-0.3 -0.48,-0.54 -0.18,-0.18 -0.3,-0.36 -0.3,-0.54 0,-0.3 0.24,-0.6 0.66,-0.9 0.42,-0.24 1.02,-0.36 1.8,-0.36 0.96,0 1.8,0.24 2.4,0.78 0.66,0.54 0.96,1.2 0.96,1.92 0,0.54 -0.12,0.96 -0.48,1.32 -0.36,0.3 -1.08,0.66 -2.22,1.02 -1.38,0.42 -2.28,0.9 -2.7,1.38 -0.48,0.48 -0.66,1.08 -0.66,1.8 0,1.2 0.48,2.22 1.44,3.12 0.96,0.9 2.1,1.32 3.48,1.32 z"
           inkscape:connector-curvature="0" /><path
           id="path406"
           style="fill:#00419b;fill-opacity:1;fill-rule:nonzero;stroke:none"
           d="m 206.03,358.45 -19.74,-116.76 -1.18,0.2 19.74,116.76 1.18,-0.2 z"
           inkscape:connector-curvature="0" /><path
           id="path408"
           style="fill:#00419b;fill-opacity:1;fill-rule:evenodd;stroke:none"
           d="m 187.74,253.67 -3.96,5.52 1.92,-17.4 7.56,15.78 -5.52,-3.9 z"
           inkscape:connector-curvature="0" /><path
           id="path410"
           style="fill:#00419b;fill-opacity:1;fill-rule:nonzero;stroke:none"
           d="m 188.09,253.18 -0.84,0.14 -3.96,5.52 1.09,0.42 1.92,-17.4 -1.14,0.19 7.56,15.78 0.89,-0.75 -5.52,-3.9 z m 4.82,4.88 0.89,-0.75 -7.56,-15.78 -1.14,0.2 -1.92,17.4 1.09,0.41 3.96,-5.52 -0.84,0.14 5.52,3.9 z"
           inkscape:connector-curvature="0" /><path
           id="path412"
           style="fill:#00419b;fill-opacity:1;fill-rule:nonzero;stroke:none"
           d="m 140.34,67.732 5.7,0 7.02,-15.48 3.18,11.88 c 0.06,0.18 0.06,0.42 0.06,0.66 0,0.6 -0.18,1.08 -0.54,1.44 -0.42,0.3 -0.96,0.48 -1.68,0.48 l -0.6,0 0.24,1.02 7.08,0 -0.24,-1.02 c -1.56,-0.06 -2.52,-0.9 -2.94,-2.4 l -4.56,-16.8 -0.9,0 -7.92,17.4 -3.48,-13.08 c -0.18,-0.6 -0.24,-1.08 -0.24,-1.32 0,-0.42 0.06,-0.78 0.24,-1.08 0.18,-0.3 0.42,-0.48 0.72,-0.6 0.6,-0.18 1.14,-0.3 1.74,-0.3 l 0.42,0 -0.24,-1.02 -7.62,0 0.24,1.02 c 1.08,0.18 1.8,0.42 2.22,0.78 0.42,0.42 0.78,1.26 1.14,2.52 l 3.66,13.5 c 0,0.06 0,0.18 0,0.24 0,0.3 -0.12,0.54 -0.42,0.72 -0.42,0.3 -1.02,0.42 -1.74,0.42 l -0.78,0 0.24,1.02 z"
           inkscape:connector-curvature="0" /><path
           id="path414"
           style="fill:#00419b;fill-opacity:1;fill-rule:nonzero;stroke:none"
           d="m 161.76,52.492 c 0,-0.42 -0.06,-0.78 -0.06,-1.08 0,-1.02 0.24,-1.74 0.72,-2.28 0.54,-0.54 1.2,-0.84 2.04,-0.84 0.66,0 1.26,0.18 1.92,0.54 0.66,0.36 1.44,1.02 2.4,2.04 l 0.6,-0.54 c -1.68,-2.16 -3.54,-3.18 -5.46,-3.18 -1.32,0 -2.4,0.48 -3.3,1.44 -0.9,1.02 -1.38,2.28 -1.38,3.78 0,1.38 0.42,2.7 1.14,3.96 0.78,1.32 1.8,2.34 3.06,3.18 1.26,0.78 2.4,1.2 3.54,1.2 0.9,0 1.68,-0.24 2.28,-0.84 0.6,-0.54 0.9,-1.2 0.9,-1.98 0,-0.66 -0.24,-1.32 -0.72,-1.98 -0.48,-0.66 -1.2,-1.26 -2.28,-1.74 -1.02,-0.54 -2.82,-1.08 -5.4,-1.68 z m 0.24,0.9 c 1.74,0.36 2.94,0.78 3.72,1.2 0.72,0.42 1.26,0.9 1.62,1.5 0.42,0.6 0.6,1.26 0.6,1.92 0,0.54 -0.12,0.96 -0.42,1.26 -0.3,0.3 -0.66,0.48 -1.14,0.48 -0.9,0 -1.74,-0.48 -2.52,-1.5 -0.84,-1.02 -1.44,-2.64 -1.86,-4.86 z"
           inkscape:connector-curvature="0" /><path
           id="path416"
           style="fill:#00419b;fill-opacity:1;fill-rule:nonzero;stroke:none"
           d="m 176.7,64.732 2.22,0 -1.32,-4.44 2.34,0 -0.24,-1.14 -2.4,0 -2.4,-8.4 c -0.12,-0.42 -0.18,-0.84 -0.18,-1.26 0,-0.3 0.06,-0.6 0.18,-0.78 0.18,-0.18 0.36,-0.24 0.54,-0.24 0.96,0 2.1,1.2 3.48,3.54 l 0.78,-0.42 c -1.62,-3 -3.3,-4.44 -5.04,-4.44 -0.66,0 -1.2,0.18 -1.62,0.6 -0.36,0.36 -0.54,0.9 -0.54,1.56 0,0.54 0.06,1.14 0.24,1.8 l 2.34,8.04 -2.52,0 0.36,1.14 2.46,0 1.32,4.44 z"
           inkscape:connector-curvature="0" /><path
           id="path418"
           style="fill:#00419b;fill-opacity:1;fill-rule:nonzero;stroke:none"
           d="m 190.86,51.172 c -0.96,-1.44 -1.92,-2.52 -2.88,-3.12 -0.9,-0.6 -1.8,-0.9 -2.7,-0.9 -0.78,0 -1.38,0.24 -1.92,0.78 -0.54,0.48 -0.78,1.14 -0.78,1.98 0,0.42 0.12,1.02 0.36,1.74 l 0.18,0.54 1.92,5.94 c 0.06,0.06 0.06,0.18 0.06,0.3 0,0.24 -0.12,0.48 -0.36,0.66 -0.24,0.18 -0.72,0.24 -1.32,0.24 l -0.48,0 0.36,0.96 4.74,0.3 -3,-9.18 c -0.12,-0.54 -0.24,-1.02 -0.24,-1.56 0,-0.42 0.12,-0.78 0.36,-1.08 0.3,-0.24 0.6,-0.36 0.96,-0.36 0.9,0 1.86,0.54 2.76,1.62 1.26,1.44 2.28,3.48 3.06,6.24 l 1.14,4.02 2.22,0 -1.86,-6.48 c -0.12,-0.42 -0.3,-1.02 -0.42,-1.86 l -0.06,-0.48 c -0.06,-0.18 -0.06,-0.42 -0.06,-0.6 0,-0.84 0.18,-1.5 0.48,-1.86 0.3,-0.42 0.72,-0.6 1.26,-0.6 0.66,0 1.38,0.36 2.16,0.96 0.72,0.66 1.44,1.68 2.1,3.18 0.72,1.44 1.02,2.76 1.02,3.96 0,0.36 -0.06,0.66 -0.12,0.84 -0.06,0.24 -0.3,0.54 -0.6,0.96 -0.36,0.42 -0.54,0.66 -0.6,0.78 -0.06,0.18 -0.12,0.3 -0.12,0.42 0,0.3 0.12,0.6 0.36,0.84 0.24,0.24 0.54,0.36 0.78,0.36 0.42,0 0.72,-0.24 1.08,-0.72 0.3,-0.42 0.48,-1.08 0.48,-1.86 0,-1.44 -0.3,-3.06 -0.9,-4.8 -0.72,-2.1 -1.62,-3.66 -2.88,-4.68 -1.2,-1.02 -2.4,-1.5 -3.54,-1.5 -0.66,0 -1.2,0.12 -1.68,0.42 -0.48,0.24 -0.78,0.66 -1.02,1.14 -0.18,0.42 -0.3,1.26 -0.3,2.46 z"
           inkscape:connector-curvature="0" /><path
           id="path420"
           style="fill:#00419b;fill-opacity:1;fill-rule:nonzero;stroke:none"
           d="m 210.42,60.712 c 1.38,0 2.58,-0.54 3.54,-1.56 1.02,-1.02 1.5,-2.34 1.5,-3.96 0,-1.38 -0.36,-2.76 -1.08,-4.02 -0.66,-1.32 -1.56,-2.34 -2.64,-3 -1.14,-0.72 -2.28,-1.02 -3.42,-1.02 -1.44,0 -2.64,0.48 -3.6,1.56 -1.02,1.08 -1.5,2.4 -1.5,4.02 0,1.32 0.36,2.64 1.08,3.9 0.66,1.32 1.62,2.34 2.7,3 1.08,0.72 2.22,1.08 3.42,1.08 z m 0.06,-0.9 c -0.72,0 -1.38,-0.3 -2.1,-0.9 -0.72,-0.6 -1.32,-1.56 -1.86,-3.06 -0.6,-1.44 -0.84,-2.88 -0.84,-4.32 0,-1.14 0.24,-1.98 0.72,-2.58 0.48,-0.6 1.08,-0.9 1.8,-0.9 0.72,0 1.44,0.3 2.1,0.84 0.66,0.54 1.32,1.62 1.86,3.06 0.6,1.56 0.9,3 0.9,4.44 0,1.08 -0.24,1.92 -0.78,2.52 -0.48,0.6 -1.08,0.9 -1.8,0.9 z"
           inkscape:connector-curvature="0" /><path
           id="path422"
           style="fill:#00419b;fill-opacity:1;fill-rule:nonzero;stroke:none"
           d="m 220.14,47.512 -2.28,-0.18 2.4,8.82 c 0.3,0.9 0.42,1.56 0.42,1.92 0,0.42 -0.12,0.72 -0.42,0.96 -0.3,0.24 -0.72,0.36 -1.38,0.36 l -0.6,0 0.3,0.9 4.56,0.3 -1.26,-5.52 c 0.84,1.86 1.44,3.12 1.86,3.78 0.48,0.66 0.96,1.14 1.44,1.44 0.54,0.3 1.02,0.42 1.5,0.42 0.6,0 1.08,-0.18 1.5,-0.54 0.36,-0.42 0.6,-0.9 0.6,-1.44 0,-0.54 -0.18,-0.96 -0.48,-1.32 -0.24,-0.3 -0.6,-0.48 -1.02,-0.48 -0.36,0 -0.66,0.12 -0.84,0.36 -0.24,0.24 -0.36,0.54 -0.36,0.9 0,0.12 0,0.3 0.12,0.54 0.06,0.12 0.06,0.24 0.06,0.36 0,0.12 0,0.24 -0.06,0.3 -0.06,0.06 -0.18,0.06 -0.3,0.06 -0.24,0 -0.54,-0.12 -0.84,-0.36 -0.66,-0.54 -1.2,-1.44 -1.8,-2.76 -1.08,-2.4 -1.8,-4.32 -2.22,-5.76 l -0.9,-3.06 z"
           inkscape:connector-curvature="0" /><path
           id="path424"
           style="fill:#00419b;fill-opacity:1;fill-rule:nonzero;stroke:none"
           d="m 237.78,67.972 -3.3,-11.46 c 1.2,1.62 2.28,2.7 3.24,3.3 0.96,0.6 1.86,0.9 2.7,0.9 0.84,0 1.5,-0.24 1.98,-0.72 0.54,-0.48 0.78,-1.02 0.78,-1.68 0,-0.84 -0.42,-1.68 -1.32,-2.52 -0.84,-0.84 -2.22,-1.5 -4.14,-2.1 0.6,-0.24 1.02,-0.66 1.26,-1.08 0.18,-0.36 0.36,-1.14 0.54,-2.28 0.06,-0.66 0.12,-1.02 0.18,-1.2 0.12,-0.24 0.3,-0.42 0.48,-0.42 0.6,0 1.56,1.02 2.82,3 l 0.72,-0.42 c -1.62,-2.7 -3.06,-4.02 -4.44,-4.02 -0.6,0 -1.08,0.24 -1.44,0.66 -0.36,0.48 -0.54,1.14 -0.54,2.04 l 0,2.28 c 0,0.54 -0.18,0.9 -0.48,1.08 -0.36,-0.06 -0.6,-0.12 -0.84,-0.12 -0.3,0 -0.48,0.06 -0.66,0.18 -0.12,0.12 -0.24,0.24 -0.24,0.42 0,0.18 0.06,0.3 0.18,0.42 0.12,0.12 0.3,0.12 0.54,0.12 0.12,0 0.3,0 0.54,-0.06 0.24,0 0.42,0 0.6,0 1.02,0 1.98,0.36 2.88,1.14 0.9,0.84 1.32,1.62 1.32,2.4 0,0.54 -0.18,0.9 -0.48,1.2 -0.24,0.3 -0.6,0.48 -1.08,0.48 -0.66,0 -1.38,-0.3 -2.22,-0.96 -0.84,-0.66 -1.74,-1.74 -2.64,-3.24 -0.66,-1.14 -1.2,-2.4 -1.62,-3.78 l -1.14,-4.02 -2.34,-0.12 5.22,18.12 c 0.06,0.12 0.06,0.24 0.06,0.36 0,0.3 -0.12,0.48 -0.3,0.6 -0.24,0.18 -0.6,0.24 -1.14,0.24 l -0.9,0 0.24,1.02 4.98,0.24 z"
           inkscape:connector-curvature="0" /><path
           id="path426"
           style="fill:#00419b;fill-opacity:1;fill-rule:nonzero;stroke:none"
           d="m 255.6,52.492 c -0.06,-0.42 -0.12,-0.78 -0.12,-1.08 0,-1.02 0.24,-1.74 0.72,-2.28 0.54,-0.54 1.2,-0.84 2.04,-0.84 0.66,0 1.26,0.18 1.92,0.54 0.66,0.36 1.44,1.02 2.4,2.04 l 0.6,-0.54 c -1.68,-2.16 -3.54,-3.18 -5.46,-3.18 -1.32,0 -2.4,0.48 -3.3,1.44 -0.9,1.02 -1.38,2.28 -1.38,3.78 0,1.38 0.42,2.7 1.14,3.96 0.78,1.32 1.8,2.34 3.06,3.18 1.26,0.78 2.4,1.2 3.54,1.2 0.9,0 1.68,-0.24 2.28,-0.84 0.6,-0.54 0.9,-1.2 0.9,-1.98 0,-0.66 -0.24,-1.32 -0.72,-1.98 -0.48,-0.66 -1.2,-1.26 -2.28,-1.74 -1.02,-0.54 -2.82,-1.08 -5.34,-1.68 z m 0.18,0.9 c 1.74,0.36 2.94,0.78 3.72,1.2 0.72,0.42 1.26,0.9 1.68,1.5 0.36,0.6 0.54,1.26 0.54,1.92 0,0.54 -0.12,0.96 -0.42,1.26 -0.3,0.3 -0.66,0.48 -1.14,0.48 -0.84,0 -1.74,-0.48 -2.52,-1.5 -0.84,-1.02 -1.44,-2.64 -1.86,-4.86 z"
           inkscape:connector-curvature="0" /><path
           id="path428"
           style="fill:#00419b;fill-opacity:1;fill-rule:nonzero;stroke:none"
           d="m 281.58,68.032 -5.04,-17.52 c -0.18,-0.48 -0.24,-0.96 -0.24,-1.32 0,-0.18 0.06,-0.36 0.18,-0.48 0.12,-0.12 0.3,-0.18 0.48,-0.18 0.78,0 1.86,1.2 3.18,3.54 l 0.78,-0.36 c -0.84,-1.68 -1.68,-2.88 -2.46,-3.54 -0.84,-0.72 -1.56,-1.02 -2.22,-1.02 -0.6,0 -1.02,0.18 -1.38,0.6 -0.3,0.42 -0.48,1.08 -0.54,1.92 -1.26,-1.68 -2.64,-2.52 -4.2,-2.52 -0.78,0 -1.5,0.18 -2.22,0.6 -0.66,0.42 -1.2,0.96 -1.56,1.74 -0.42,0.72 -0.6,1.56 -0.6,2.52 0,1.38 0.36,2.82 1.14,4.26 0.78,1.5 1.68,2.58 2.76,3.3 1.08,0.78 2.22,1.14 3.3,1.14 0.78,0 1.44,-0.18 2.1,-0.54 0.6,-0.42 1.14,-1.02 1.56,-1.74 l 2.04,7.26 c 0.06,0.06 0.06,0.18 0.06,0.24 0,0.24 -0.06,0.42 -0.3,0.54 -0.18,0.18 -0.48,0.24 -0.84,0.24 l -1.44,0 0.24,1.02 5.22,0.3 z m -8.28,-8.46 c -0.84,0 -1.68,-0.42 -2.46,-1.14 -0.78,-0.72 -1.44,-1.98 -1.98,-3.72 -0.42,-1.32 -0.6,-2.4 -0.6,-3.36 0,-0.9 0.18,-1.68 0.66,-2.16 0.48,-0.54 1.02,-0.84 1.74,-0.84 0.78,0 1.62,0.42 2.4,1.14 0.84,0.78 1.5,1.98 1.98,3.54 0.54,1.56 0.78,2.76 0.78,3.72 0,0.84 -0.24,1.5 -0.72,2.04 -0.42,0.48 -1.08,0.78 -1.8,0.78 z"
           inkscape:connector-curvature="0" /><path
           id="path430"
           style="fill:#00419b;fill-opacity:1;fill-rule:nonzero;stroke:none"
           d="m 292.38,60.292 c 1.08,0.96 2.1,1.38 3,1.38 0.54,0 0.96,-0.12 1.26,-0.36 0.3,-0.3 0.48,-0.6 0.48,-0.96 0,-0.36 -0.12,-0.6 -0.3,-0.84 -0.24,-0.18 -0.48,-0.3 -0.78,-0.3 -0.36,0 -0.66,0.18 -0.9,0.6 -0.18,0.24 -0.3,0.42 -0.42,0.48 -0.12,0.12 -0.24,0.12 -0.42,0.12 -0.42,0 -0.78,-0.18 -1.14,-0.54 1.2,-0.84 1.86,-1.86 1.86,-3.12 0,-1.32 -0.54,-2.4 -1.56,-3.3 -1.02,-0.96 -2.34,-1.44 -3.96,-1.44 -0.36,0 -0.84,0.06 -1.44,0.12 -0.54,0.06 -1.02,0.12 -1.26,0.12 -0.78,0 -1.38,-0.12 -1.8,-0.42 -0.42,-0.3 -0.6,-0.6 -0.6,-0.96 0,-0.18 0.06,-0.36 0.24,-0.54 0.12,-0.18 0.36,-0.3 0.66,-0.36 0.18,-0.06 0.78,-0.06 1.8,-0.12 2.1,-0.12 3.6,-0.3 4.38,-0.54 0.84,-0.24 1.44,-0.6 1.8,-1.08 0.36,-0.48 0.54,-1.02 0.54,-1.62 0,-0.78 -0.24,-1.5 -0.78,-2.16 -0.54,-0.72 -1.32,-1.26 -2.52,-1.74 -1.14,-0.42 -2.46,-0.66 -3.96,-0.66 -1.32,0 -2.4,0.12 -3.3,0.42 -0.9,0.3 -1.56,0.72 -1.92,1.2 -0.42,0.48 -0.6,0.9 -0.6,1.38 0,0.6 0.3,1.14 0.84,1.62 0.54,0.48 1.5,0.9 2.82,1.38 -0.54,0.24 -0.96,0.54 -1.26,0.9 -0.3,0.3 -0.42,0.72 -0.42,1.2 0,0.72 0.3,1.32 0.9,1.86 0.66,0.54 1.5,0.9 2.58,1.02 -1.26,0.72 -1.86,1.74 -1.86,3 0,0.72 0.24,1.5 0.72,2.22 0.48,0.72 1.2,1.26 2.16,1.74 0.96,0.48 1.92,0.72 3,0.72 0.36,0 0.72,0 1.08,-0.12 0.36,-0.06 0.72,-0.12 1.08,-0.3 z m -2.1,-0.42 c -0.9,0 -1.74,-0.36 -2.46,-1.2 -0.72,-0.84 -1.08,-1.86 -1.08,-3.06 0,-0.84 0.24,-1.56 0.66,-2.04 0.48,-0.48 1.08,-0.72 1.86,-0.72 0.9,0 1.68,0.42 2.34,1.2 0.72,0.84 1.02,1.86 1.02,3.18 0,0.84 -0.18,1.44 -0.66,1.92 -0.42,0.48 -0.96,0.72 -1.68,0.72 z m -3,-12.12 c -1.62,0 -2.76,-0.24 -3.42,-0.72 -0.66,-0.48 -1.02,-1.08 -1.02,-1.86 0,-0.66 0.3,-1.2 0.9,-1.62 0.66,-0.42 1.68,-0.66 3.06,-0.66 1.8,0 3.18,0.36 4.08,1.02 0.66,0.54 1.02,1.14 1.02,1.8 0,0.6 -0.3,1.08 -1.02,1.44 -0.66,0.42 -1.86,0.6 -3.6,0.6 z"
           inkscape:connector-curvature="0" /><path
           id="path432"
           style="fill:#00419b;fill-opacity:1;fill-rule:nonzero;stroke:none"
           d="m 300.12,52.492 c 0,-0.42 -0.06,-0.78 -0.06,-1.08 0,-1.02 0.24,-1.74 0.72,-2.28 0.54,-0.54 1.2,-0.84 2.04,-0.84 0.66,0 1.26,0.18 1.92,0.54 0.66,0.36 1.44,1.02 2.4,2.04 l 0.6,-0.54 c -1.68,-2.16 -3.54,-3.18 -5.46,-3.18 -1.32,0 -2.4,0.48 -3.3,1.44 -0.9,1.02 -1.38,2.28 -1.38,3.78 0,1.38 0.42,2.7 1.14,3.96 0.78,1.32 1.8,2.34 3.06,3.18 1.26,0.78 2.4,1.2 3.54,1.2 0.9,0 1.68,-0.24 2.28,-0.84 0.6,-0.54 0.9,-1.2 0.9,-1.98 0,-0.66 -0.24,-1.32 -0.72,-1.98 -0.48,-0.66 -1.2,-1.26 -2.28,-1.74 -1.02,-0.54 -2.82,-1.08 -5.4,-1.68 z m 0.24,0.9 c 1.74,0.36 2.94,0.78 3.72,1.2 0.72,0.42 1.26,0.9 1.62,1.5 0.42,0.6 0.6,1.26 0.6,1.92 0,0.54 -0.12,0.96 -0.42,1.26 -0.3,0.3 -0.66,0.48 -1.14,0.48 -0.9,0 -1.74,-0.48 -2.52,-1.5 -0.84,-1.02 -1.44,-2.64 -1.86,-4.86 z"
           inkscape:connector-curvature="0" /><path
           id="path434"
           style="fill:#00419b;fill-opacity:1;fill-rule:nonzero;stroke:none"
           d="m 316.56,60.712 c 1.32,0 2.34,-0.24 3,-0.78 0.72,-0.54 1.08,-1.2 1.08,-1.98 0,-0.48 -0.12,-0.9 -0.42,-1.2 -0.3,-0.36 -0.6,-0.48 -1.02,-0.48 -0.36,0 -0.66,0.12 -0.96,0.36 -0.24,0.24 -0.36,0.6 -0.36,0.96 0,0.24 0.12,0.48 0.3,0.78 0.12,0.18 0.24,0.36 0.24,0.48 0,0.24 -0.18,0.42 -0.48,0.66 -0.3,0.18 -0.78,0.3 -1.38,0.3 -0.96,0 -1.68,-0.3 -2.28,-0.78 -0.54,-0.48 -0.84,-1.08 -0.84,-1.8 0,-0.48 0.18,-0.84 0.48,-1.14 0.36,-0.3 1.2,-0.66 2.64,-1.14 1.2,-0.36 2.04,-0.84 2.52,-1.38 0.48,-0.54 0.72,-1.2 0.72,-1.98 0,-1.2 -0.54,-2.28 -1.56,-3.12 -1.02,-0.9 -2.34,-1.32 -3.96,-1.32 -1.44,0 -2.52,0.3 -3.3,0.9 -0.78,0.6 -1.14,1.38 -1.14,2.28 0,0.54 0.12,1.02 0.42,1.32 0.3,0.36 0.72,0.54 1.14,0.54 0.36,0 0.72,-0.12 0.96,-0.36 0.24,-0.3 0.36,-0.6 0.36,-0.96 0,-0.18 0,-0.36 -0.06,-0.48 -0.06,-0.18 -0.24,-0.36 -0.48,-0.54 -0.18,-0.24 -0.3,-0.42 -0.3,-0.6 0,-0.3 0.24,-0.6 0.66,-0.84 0.42,-0.24 1.02,-0.42 1.8,-0.42 0.96,0 1.8,0.3 2.4,0.84 0.66,0.54 0.96,1.14 0.96,1.92 0,0.48 -0.12,0.96 -0.48,1.26 -0.36,0.36 -1.08,0.72 -2.22,1.08 -1.38,0.42 -2.28,0.9 -2.7,1.38 -0.48,0.48 -0.66,1.08 -0.66,1.8 0,1.2 0.48,2.22 1.44,3.12 0.96,0.9 2.1,1.32 3.48,1.32 z"
           inkscape:connector-curvature="0" /><path
           id="path436"
           style="fill:#00419b;fill-opacity:1;fill-rule:nonzero;stroke:none"
           d="m 167.32,75.437 -46.86,121.743 1.12,0.43 46.86,-121.742 -1.12,-0.431 z"
           inkscape:connector-curvature="0" /><path
           id="path438"
           style="fill:#00419b;fill-opacity:1;fill-rule:evenodd;stroke:none"
           d="m 125.34,186.17 6.18,-2.76 -10.5,13.98 1.56,-17.4 2.76,6.18 z"
           inkscape:connector-curvature="0" /><path
           id="path440"
           style="fill:#00419b;fill-opacity:1;fill-rule:nonzero;stroke:none"
           d="m 124.79,186.42 0.79,0.3 6.18,-2.76 -0.72,-0.91 -10.5,13.98 1.08,0.42 1.56,-17.4 -1.15,0.19 2.76,6.18 z m -1.66,-6.67 -1.15,0.19 -1.56,17.4 1.08,0.41 10.5,-13.98 -0.72,-0.91 -6.18,2.76 0.79,0.31 -2.76,-6.18 z"
           inkscape:connector-curvature="0" /><path
           id="path442"
           style="fill:#00419b;fill-opacity:1;fill-rule:nonzero;stroke:none"
           d="m 331.03,359.46 58.92,-129.18 -1.1,-0.5 -58.92,129.18 1.1,0.5 z"
           inkscape:connector-curvature="0" /><path
           id="path444"
           style="fill:#00419b;fill-opacity:1;fill-rule:evenodd;stroke:none"
           d="m 384.42,240.95 -6.36,2.34 11.34,-13.26 -2.58,17.28 -2.4,-6.36 z"
           inkscape:connector-curvature="0" /><path
           id="path446"
           style="fill:#00419b;fill-opacity:1;fill-rule:nonzero;stroke:none"
           d="m 384.98,240.74 -0.77,-0.35 -6.36,2.34 0.67,0.95 11.34,-13.26 -1.05,-0.48 -2.58,17.28 1.15,-0.12 -2.4,-6.36 z m 1.28,6.78 1.15,-0.12 2.58,-17.28 -1.05,-0.48 -11.34,13.26 0.67,0.96 6.36,-2.34 -0.77,-0.36 2.4,6.36 z"
           inkscape:connector-curvature="0" /><path
           id="path448"
           style="fill:#00419b;fill-opacity:1;fill-rule:nonzero;stroke:none"
           d="m 279.25,75.759 16.5,90.961 1.18,-0.21 -16.5,-90.965 -1.18,0.214 z"
           inkscape:connector-curvature="0" /><path
           id="path450"
           style="fill:#00419b;fill-opacity:1;fill-rule:evenodd;stroke:none"
           d="m 294.24,154.79 3.84,-5.58 -1.74,17.4 -7.68,-15.66 5.58,3.84 z"
           inkscape:connector-curvature="0" /><path
           id="path452"
           style="fill:#00419b;fill-opacity:1;fill-rule:nonzero;stroke:none"
           d="m 293.9,155.29 0.83,-0.16 3.84,-5.58 -1.09,-0.4 -1.74,17.4 1.14,-0.2 -7.68,-15.66 -0.88,0.76 5.58,3.84 z m -4.9,-4.83 -0.88,0.76 7.68,15.66 1.14,-0.21 1.74,-17.4 -1.09,-0.4 -3.84,5.58 0.83,-0.15 -5.58,-3.84 z"
           inkscape:connector-curvature="0" /></g></g></g></svg>