<?xml version="1.0" encoding="UTF-8" standalone="no"?>
<svg
   xmlns:dc="http://purl.org/dc/elements/1.1/"
   xmlns:cc="http://creativecommons.org/ns#"
   xmlns:rdf="http://www.w3.org/1999/02/22-rdf-syntax-ns#"
   xmlns:svg="http://www.w3.org/2000/svg"
   xmlns="http://www.w3.org/2000/svg"
   xmlns:sodipodi="http://sodipodi.sourceforge.net/DTD/sodipodi-0.dtd"
   xmlns:inkscape="http://www.inkscape.org/namespaces/inkscape"
   viewBox="0 0 1200 675"
   height="675"
   width="1200"
   xml:space="preserve"
   version="1.1"
   id="svg2"
   inkscape:version="0.91 r13725"
   sodipodi:docname="fdl_slide_18.svg"><sodipodi:namedview
     pagecolor="#ffffff"
     bordercolor="#666666"
     borderopacity="1"
     objecttolerance="10"
     gridtolerance="10"
     guidetolerance="10"
     inkscape:pageopacity="0"
     inkscape:pageshadow="2"
     inkscape:window-width="640"
     inkscape:window-height="480"
     id="namedview213"
     showgrid="false"
     inkscape:zoom="0.67083333"
     inkscape:cx="345.83851"
     inkscape:cy="337.5"
     inkscape:current-layer="svg2" /><metadata
     id="metadata8"><rdf:RDF><cc:Work
         rdf:about=""><dc:format>image/svg+xml</dc:format><dc:type
           rdf:resource="http://purl.org/dc/dcmitype/StillImage" /></cc:Work></rdf:RDF></metadata><defs
     id="defs6"><clipPath
       id="clipPath16"
       clipPathUnits="userSpaceOnUse"><path
         style="clip-rule:evenodd"
         id="path18"
         d="m 0,1.2207e-4 960,0 0,539.99999793 -960,0 L 0,1.2207e-4 Z" /></clipPath><clipPath
       id="clipPath26"
       clipPathUnits="userSpaceOnUse"><path
         style="clip-rule:evenodd"
         id="path28"
         d="M -3.815e-6,2.4414e-4 960,2.4414e-4 960,540.00024 l -960.000003815,0 0,-539.99999586 z" /></clipPath><clipPath
       id="clipPath36"
       clipPathUnits="userSpaceOnUse"><path
         id="path38"
         d="m 0,0 450.75,0 0,39.715 L 0,39.715 0,0 Z" /></clipPath><clipPath
       id="clipPath66"
       clipPathUnits="userSpaceOnUse"><path
         style="clip-rule:evenodd"
         id="path68"
         d="M 1.4305e-5,0 960.00001,0 l 0,540 -959.999995695,0 0,-540 z" /></clipPath><clipPath
       id="clipPath78"
       clipPathUnits="userSpaceOnUse"><path
         style="clip-rule:evenodd"
         id="path80"
         d="m 0,1.8311e-4 960,0 0,539.99999689 -960,0 L 0,1.8311e-4 Z" /></clipPath><clipPath
       id="clipPath88"
       clipPathUnits="userSpaceOnUse"><path
         id="path90"
         d="m 0,0 938.33,0 0,411.05 L 0,411.05 0,0 Z" /></clipPath><clipPath
       id="clipPath394"
       clipPathUnits="userSpaceOnUse"><path
         style="clip-rule:evenodd"
         id="path396"
         d="M 1.4305e-5,0 960.00001,0 l 0,540 -959.999995695,0 0,-540 z" /></clipPath><clipPath
       id="clipPath406"
       clipPathUnits="userSpaceOnUse"><path
         style="clip-rule:evenodd"
         id="path408"
         d="M 1.4305e-5,0 960.00001,0 l 0,540 -959.999995695,0 0,-540 z" /></clipPath><clipPath
       id="clipPath418"
       clipPathUnits="userSpaceOnUse"><path
         style="clip-rule:evenodd"
         id="path420"
         d="M 1.4305e-5,0 960.00001,0 l 0,540 -959.999995695,0 0,-540 z" /></clipPath></defs><g
     id="g86"
     clip-path="url(#clipPath88)"
     transform="matrix(1.2500602,0,0,-1.2502045,13.5,626.85)"><g
       id="g92"><g
         id="g94"><g
           id="g96" /></g><path
         inkscape:connector-curvature="0"
         d="m 199.89,214.76 18.54,0 0,1.38 -18.54,0 0,-1.38 z"
         style="fill:#000000;fill-opacity:1;fill-rule:nonzero;stroke:none"
         id="path98" /><path
         inkscape:connector-curvature="0"
         d="m 148.29,214.76 18.6,0 0,1.38 -18.6,0 0,-1.38 z"
         style="fill:#000000;fill-opacity:1;fill-rule:nonzero;stroke:none"
         id="path100" /><path
         inkscape:connector-curvature="0"
         d="m 166.2,198.29 34.38,0 0,34.38 -34.38,0 0,-34.38 z"
         style="fill:#11ab00;fill-opacity:1;fill-rule:nonzero;stroke:none"
         id="path102" /><path
         inkscape:connector-curvature="0"
         d="m 165.18,232.67 1.02,1.02 34.38,0 1.02,-1.02 0,-34.38 -1.02,-1.02 -34.38,0 -1.02,1.02 0,34.38 z m 2.04,-34.38 -1.02,1.02 34.38,0 -1.02,-1.02 0,34.38 1.02,-1.02 -34.38,0 1.02,1.02 0,-34.38 z"
         style="fill:#000000;fill-opacity:1;fill-rule:nonzero;stroke:none"
         id="path104" /><path
         inkscape:connector-curvature="0"
         d="m 191.58,207.05 -2.64,0 -1.8,5.16 -8.04,0 -1.8,-5.16 -2.52,0 6.78,18.54 3.24,0 6.78,-18.54 z m -5.22,7.32 -3.24,9.06 -3.24,-9.06 6.48,0 z"
         style="fill:#000000;fill-opacity:1;fill-rule:nonzero;stroke:none"
         id="path106" /><path
         inkscape:connector-curvature="0"
         d="m 423.45,206.18 18.54,0 0,1.38 -18.54,0 0,-1.38 z"
         style="fill:#000000;fill-opacity:1;fill-rule:nonzero;stroke:none"
         id="path108" /><path
         inkscape:connector-curvature="0"
         d="m 371.85,206.18 18.6,0 0,1.38 -18.6,0 0,-1.38 z"
         style="fill:#000000;fill-opacity:1;fill-rule:nonzero;stroke:none"
         id="path110" /><path
         inkscape:connector-curvature="0"
         d="m 445.62,206.87 c 0,-2.34 -1.92,-4.26 -4.32,-4.26 -2.34,0 -4.26,1.92 -4.26,4.26 0,2.4 1.92,4.32 4.26,4.32 2.4,0 4.32,-1.92 4.32,-4.32 z"
         style="fill:#000000;fill-opacity:1;fill-rule:nonzero;stroke:none"
         id="path112" /><path
         inkscape:connector-curvature="0"
         d="m 612.57,292.16 18.6,0 0,1.38 -18.6,0 0,-1.38 z"
         style="fill:#000000;fill-opacity:1;fill-rule:nonzero;stroke:none"
         id="path114" /><path
         inkscape:connector-curvature="0"
         d="m 561.03,292.16 18.54,0 0,1.38 -18.54,0 0,-1.38 z"
         style="fill:#000000;fill-opacity:1;fill-rule:nonzero;stroke:none"
         id="path116" /><path
         inkscape:connector-curvature="0"
         d="m 612.57,120.2 18.6,0 0,1.38 -18.6,0 0,-1.38 z"
         style="fill:#000000;fill-opacity:1;fill-rule:nonzero;stroke:none"
         id="path118" /><path
         inkscape:connector-curvature="0"
         d="m 561.03,120.2 18.54,0 0,1.38 -18.54,0 0,-1.38 z"
         style="fill:#000000;fill-opacity:1;fill-rule:nonzero;stroke:none"
         id="path120" /><path
         inkscape:connector-curvature="0"
         d="m 836.13,197.6 18.6,0 0,1.38 -18.6,0 0,-1.38 z"
         style="fill:#000000;fill-opacity:1;fill-rule:nonzero;stroke:none"
         id="path122" /><path
         inkscape:connector-curvature="0"
         d="m 784.59,197.6 18.54,0 0,1.38 -18.54,0 0,-1.38 z"
         style="fill:#000000;fill-opacity:1;fill-rule:nonzero;stroke:none"
         id="path124" /><path
         inkscape:connector-curvature="0"
         d="m 858.36,198.29 c 0,-2.4 -1.92,-4.32 -4.32,-4.32 -2.4,0 -4.32,1.92 -4.32,4.32 0,2.34 1.92,4.32 4.32,4.32 2.4,0 4.32,-1.98 4.32,-4.32 z"
         style="fill:#000000;fill-opacity:1;fill-rule:nonzero;stroke:none"
         id="path126" /><path
         inkscape:connector-curvature="0"
         d="m 733.68,224.09 c 25.8,0 43.86,-12.9 51.6,-25.8 -7.74,-12.9 -25.8,-25.8 -51.6,-25.8 11.46,17.22 11.46,34.38 0,51.6 z"
         style="fill:#11ab00;fill-opacity:1;fill-rule:nonzero;stroke:none"
         id="path128" /><path
         inkscape:connector-curvature="0"
         d="m 732.82,223.54 0.88,1.57 2.39,-0.04 0.03,0 2.36,-0.11 0.03,0 2.3,-0.18 0.03,0 2.26,-0.25 0.03,-0.01 2.21,-0.31 0.04,-0.01 2.16,-0.38 0.03,0 2.11,-0.45 0.04,0 2.06,-0.51 0.03,0 2.02,-0.56 0.03,-0.01 1.96,-0.61 0.03,-0.01 1.92,-0.66 0.03,-0.02 1.86,-0.71 0.03,-0.01 1.82,-0.76 0.03,-0.01 1.77,-0.81 0.03,-0.01 1.71,-0.85 0.03,-0.02 1.65,-0.88 0.03,-0.02 1.61,-0.92 0.03,-0.02 1.55,-0.96 0.02,-0.02 1.5,-0.99 0.03,-0.02 1.45,-1.03 0.02,-0.01 1.39,-1.05 0.03,-0.02 1.33,-1.08 0.03,-0.03 1.27,-1.1 0.03,-0.02 1.22,-1.12 0.02,-0.02 1.17,-1.14 0.03,-0.03 1.11,-1.16 0.02,-0.03 1.05,-1.17 0.02,-0.02 0.99,-1.19 0.02,-0.02 0.94,-1.2 0.02,-0.03 0.87,-1.2 0.02,-0.03 0.82,-1.21 0.02,-0.03 0.75,-1.21 0,-1.08 -0.75,-1.21 -0.02,-0.03 -0.82,-1.2 -0.02,-0.03 -0.87,-1.2 -0.02,-0.03 -0.94,-1.2 -0.02,-0.03 -0.99,-1.18 -0.02,-0.03 -1.05,-1.17 -0.02,-0.02 -1.11,-1.16 -0.03,-0.03 -1.17,-1.14 -0.02,-0.02 -1.22,-1.13 -0.03,-0.02 -1.27,-1.1 -0.03,-0.02 -1.33,-1.08 -0.03,-0.02 -1.39,-1.05 -0.02,-0.02 -1.45,-1.03 -0.03,-0.02 -1.5,-0.99 -0.02,-0.01 -1.55,-0.97 -0.03,-0.02 -1.61,-0.92 -0.03,-0.01 -1.65,-0.89 -0.03,-0.01 -1.71,-0.85 -0.03,-0.02 -1.77,-0.81 -0.03,-0.01 -1.82,-0.76 -0.03,-0.01 -1.86,-0.71 -0.03,-0.01 -1.92,-0.67 -0.03,-0.01 -1.96,-0.61 -0.03,-0.01 -2.02,-0.55 -0.03,-0.01 -2.06,-0.5 -0.04,-0.01 -2.11,-0.44 -0.03,-0.01 -2.16,-0.38 -0.04,-0.01 -2.21,-0.31 -0.03,0 -2.26,-0.25 -0.03,0 -2.3,-0.18 -0.03,-0.01 -2.36,-0.11 -0.03,0 -2.39,-0.04 -0.88,1.58 1.05,1.61 -0.02,-0.03 0.97,1.62 -0.01,-0.04 0.9,1.62 -0.02,-0.02 0.84,1.61 -0.01,-0.03 0.77,1.61 -0.01,-0.03 0.7,1.61 -0.01,-0.03 0.63,1.61 -0.01,-0.03 0.58,1.61 -0.01,-0.04 0.5,1.62 -0.01,-0.04 0.43,1.61 -0.01,-0.04 0.37,1.61 -0.01,-0.04 0.3,1.61 0,-0.04 0.24,1.61 -0.01,-0.04 0.17,1.61 -0.01,-0.04 0.11,1.62 0,-0.05 0.03,1.61 0,-0.04 -0.03,1.62 0,-0.05 -0.11,1.61 0.01,-0.04 -0.17,1.62 0.01,-0.05 -0.24,1.61 0,-0.04 -0.3,1.61 0.01,-0.04 -0.37,1.61 0.01,-0.04 -0.43,1.62 0.01,-0.04 -0.5,1.61 0.01,-0.04 -0.58,1.61 0.01,-0.03 -0.63,1.61 0.01,-0.03 -0.7,1.61 0.01,-0.03 -0.77,1.61 0.01,-0.03 -0.84,1.62 0.02,-0.03 -0.9,1.62 0.01,-0.03 -0.97,1.61 0.02,-0.02 -1.05,1.61 z m 2.76,-0.51 0.02,-0.02 0.97,-1.61 0.02,-0.04 0.9,-1.62 0.01,-0.02 0.84,-1.61 0.02,-0.03 0.77,-1.62 0.01,-0.03 0.71,-1.61 0.01,-0.04 0.64,-1.61 0.01,-0.03 0.58,-1.61 0.01,-0.04 0.51,-1.61 0.01,-0.04 0.43,-1.61 0.01,-0.04 0.37,-1.62 0.01,-0.04 0.3,-1.6 0,-0.04 0.24,-1.61 0.01,-0.05 0.16,-1.61 0.01,-0.04 0.1,-1.61 0,-0.05 0.03,-1.61 0,-0.04 -0.03,-1.61 0,-0.05 -0.1,-1.61 -0.01,-0.04 -0.16,-1.61 -0.01,-0.05 -0.24,-1.61 0,-0.04 -0.3,-1.6 -0.01,-0.04 -0.37,-1.61 -0.01,-0.04 -0.43,-1.61 -0.01,-0.04 -0.51,-1.61 -0.01,-0.04 -0.58,-1.62 -0.01,-0.03 -0.64,-1.61 -0.01,-0.03 -0.71,-1.62 -0.01,-0.03 -0.77,-1.61 -0.02,-0.03 -0.84,-1.61 -0.01,-0.03 -0.9,-1.62 -0.02,-0.03 -0.97,-1.61 -0.02,-0.03 -1.04,-1.61 -0.88,1.57 2.4,0.04 -0.04,0 2.36,0.11 -0.03,0 2.3,0.18 -0.03,0 2.26,0.24 -0.04,0 2.22,0.31 -0.04,0 2.16,0.38 -0.03,0 2.12,0.44 -0.04,-0.01 2.07,0.5 -0.03,0 2.01,0.55 -0.03,-0.01 1.97,0.61 -0.04,-0.01 1.92,0.67 -0.02,-0.02 1.86,0.72 -0.03,-0.01 1.81,0.75 -0.03,-0.01 1.77,0.81 -0.03,-0.01 1.71,0.84 -0.03,-0.01 1.66,0.88 -0.03,-0.01 1.61,0.92 -0.03,-0.02 1.55,0.97 -0.02,-0.01 1.5,0.99 -0.03,-0.02 1.45,1.02 -0.03,-0.01 1.39,1.05 -0.03,-0.02 1.34,1.08 -0.03,-0.03 1.28,1.11 -0.03,-0.02 1.23,1.12 -0.02,-0.02 1.17,1.14 -0.03,-0.03 1.11,1.17 -0.02,-0.03 1.05,1.17 -0.03,-0.02 0.99,1.18 -0.02,-0.02 0.94,1.2 -0.02,-0.03 0.87,1.2 -0.02,-0.03 0.82,1.21 -0.02,-0.03 0.76,1.2 0,-1.08 -0.76,1.21 0.02,-0.03 -0.82,1.21 0.02,-0.03 -0.87,1.2 0.02,-0.03 -0.94,1.2 0.02,-0.03 -0.99,1.19 0.03,-0.03 -1.05,1.17 0.02,-0.02 -1.11,1.16 0.03,-0.03 -1.17,1.14 0.02,-0.02 -1.23,1.13 0.03,-0.02 -1.28,1.1 0.03,-0.02 -1.34,1.08 0.03,-0.02 -1.39,1.05 0.03,-0.02 -1.45,1.03 0.03,-0.02 -1.5,0.99 0.02,-0.02 -1.55,0.97 0.03,-0.02 -1.61,0.93 0.03,-0.02 -1.66,0.89 0.03,-0.02 -1.71,0.85 0.03,-0.02 -1.77,0.81 0.03,-0.01 -1.81,0.76 0.03,-0.01 -1.86,0.71 0.02,-0.01 -1.92,0.67 0.04,-0.01 -1.97,0.6 0.03,-0.01 -2.01,0.56 0.03,-0.01 -2.07,0.5 0.04,0 -2.12,0.44 0.03,-0.01 -2.16,0.39 0.04,-0.01 -2.22,0.31 0.04,0 -2.26,0.25 0.03,0 -2.3,0.18 0.03,-0.01 -2.36,0.12 0.04,-0.01 -2.4,0.04 0.88,1.58 1.04,-1.62 z"
         style="fill:#000000;fill-opacity:1;fill-rule:nonzero;stroke:none"
         id="path130" /><path
         inkscape:connector-curvature="0"
         d="m 784.59,197.6 9.96,0 0,1.38 -9.96,0 0,-1.38 z"
         style="fill:#000000;fill-opacity:1;fill-rule:nonzero;stroke:none"
         id="path132" /><path
         inkscape:connector-curvature="0"
         d="m 724.35,214.76 14.76,0 0,1.38 -14.76,0 0,-1.38 z"
         style="fill:#000000;fill-opacity:1;fill-rule:nonzero;stroke:none"
         id="path134" /><path
         inkscape:connector-curvature="0"
         d="m 724.35,197.6 18.6,0 0,1.38 -18.6,0 0,-1.38 z"
         style="fill:#000000;fill-opacity:1;fill-rule:nonzero;stroke:none"
         id="path136" /><path
         inkscape:connector-curvature="0"
         d="m 724.35,180.38 14.76,0 0,1.38 -14.76,0 0,-1.38 z"
         style="fill:#000000;fill-opacity:1;fill-rule:nonzero;stroke:none"
         id="path138" /><path
         inkscape:connector-curvature="0"
         d="m 484.32,318.65 c 25.8,0 43.86,-12.9 51.6,-25.8 -7.74,-12.9 -25.8,-25.8 -51.6,-25.8 11.46,17.22 11.46,34.44 0,51.6 z"
         style="fill:#11ab00;fill-opacity:1;fill-rule:nonzero;stroke:none"
         id="path140" /><path
         inkscape:connector-curvature="0"
         d="m 483.46,318.1 0.88,1.57 2.39,-0.04 0.03,0 2.36,-0.11 0.03,0 2.3,-0.18 0.03,0 2.26,-0.25 0.03,-0.01 2.21,-0.31 0.04,-0.01 2.16,-0.38 0.03,0 2.11,-0.45 0.04,0 2.06,-0.51 0.03,0 2.02,-0.56 0.03,-0.01 1.96,-0.61 0.03,-0.01 1.92,-0.66 0.03,-0.02 1.86,-0.71 0.03,-0.01 1.82,-0.76 0.03,-0.01 1.77,-0.81 0.03,-0.01 1.71,-0.85 0.03,-0.02 1.65,-0.88 0.03,-0.02 1.61,-0.92 0.03,-0.02 1.55,-0.96 0.02,-0.02 1.5,-0.99 0.03,-0.02 1.45,-1.03 0.02,-0.01 1.39,-1.05 0.03,-0.02 1.33,-1.08 0.03,-0.03 1.27,-1.1 0.03,-0.02 1.22,-1.12 0.02,-0.02 1.17,-1.14 0.03,-0.03 1.11,-1.16 0.02,-0.03 1.05,-1.17 0.02,-0.02 0.99,-1.19 0.02,-0.02 0.94,-1.2 0.02,-0.03 0.87,-1.2 0.02,-0.03 0.82,-1.21 0.02,-0.03 0.75,-1.21 0,-1.08 -0.75,-1.21 -0.02,-0.03 -0.82,-1.2 -0.02,-0.03 -0.87,-1.2 -0.02,-0.03 -0.94,-1.2 -0.02,-0.03 -0.99,-1.18 -0.02,-0.03 -1.05,-1.17 -0.02,-0.02 -1.11,-1.16 -0.03,-0.03 -1.17,-1.14 -0.02,-0.02 -1.22,-1.13 -0.03,-0.02 -1.27,-1.1 -0.03,-0.02 -1.33,-1.08 -0.03,-0.02 -1.39,-1.05 -0.02,-0.02 -1.45,-1.03 -0.03,-0.02 -1.5,-0.99 -0.02,-0.01 -1.55,-0.97 -0.03,-0.02 -1.61,-0.92 -0.03,-0.01 -1.65,-0.89 -0.03,-0.01 -1.71,-0.85 -0.03,-0.02 -1.77,-0.81 -0.03,-0.01 -1.82,-0.76 -0.03,-0.01 -1.86,-0.71 -0.03,-0.01 -1.92,-0.67 -0.03,-0.01 -1.96,-0.61 -0.03,-0.01 -2.02,-0.55 -0.03,-0.01 -2.06,-0.5 -0.04,-0.01 -2.11,-0.44 -0.03,-0.01 -2.16,-0.38 -0.04,-0.01 -2.21,-0.31 -0.03,0 -2.26,-0.25 -0.03,0 -2.3,-0.18 -0.03,-0.01 -2.36,-0.11 -0.03,0 -2.39,-0.04 -0.88,1.58 1.05,1.61 -0.02,-0.03 0.97,1.62 -0.01,-0.04 0.9,1.62 -0.02,-0.02 0.84,1.61 -0.01,-0.03 0.77,1.61 -0.01,-0.03 0.7,1.61 -0.01,-0.03 0.63,1.62 -0.01,-0.03 0.58,1.61 -0.01,-0.04 0.5,1.61 -0.01,-0.03 0.43,1.61 -0.01,-0.04 0.37,1.61 -0.01,-0.04 0.3,1.62 0,-0.04 0.24,1.62 -0.01,-0.05 0.17,1.61 -0.01,-0.03 0.11,1.61 0,-0.05 0.03,1.61 0,-0.03 -0.03,1.61 0,-0.05 -0.11,1.61 0.01,-0.03 -0.17,1.61 0.01,-0.05 -0.24,1.61 0,-0.03 -0.3,1.61 0.01,-0.04 -0.37,1.61 0.01,-0.04 -0.43,1.62 0.01,-0.04 -0.5,1.61 0.01,-0.04 -0.58,1.6 0.01,-0.03 -0.63,1.62 0.01,-0.04 -0.7,1.62 0.01,-0.04 -0.77,1.62 0.01,-0.04 -0.84,1.61 0.02,-0.02 -0.9,1.61 0.02,-0.03 -0.98,1.6 0.02,-0.02 -1.05,1.61 z m 2.76,-0.51 0.01,-0.02 0.98,-1.61 0.02,-0.03 0.9,-1.61 0.01,-0.02 0.84,-1.61 0.02,-0.03 0.77,-1.61 0.01,-0.04 0.71,-1.61 0.01,-0.03 0.64,-1.62 0.01,-0.02 0.58,-1.61 0.01,-0.04 0.51,-1.61 0.01,-0.04 0.43,-1.61 0.01,-0.04 0.37,-1.62 0.01,-0.04 0.3,-1.61 0,-0.04 0.24,-1.61 0.01,-0.04 0.16,-1.62 0.01,-0.03 0.1,-1.62 0,-0.04 0.03,-1.62 0,-0.03 -0.03,-1.62 0,-0.04 -0.1,-1.62 -0.01,-0.03 -0.16,-1.62 -0.01,-0.04 -0.24,-1.62 0,-0.03 -0.3,-1.62 -0.01,-0.04 -0.37,-1.61 -0.01,-0.04 -0.43,-1.62 -0.01,-0.03 -0.51,-1.62 -0.01,-0.04 -0.58,-1.61 -0.01,-0.03 -0.64,-1.62 -0.01,-0.03 -0.71,-1.62 -0.01,-0.03 -0.77,-1.61 -0.02,-0.03 -0.84,-1.61 -0.01,-0.03 -0.9,-1.62 -0.02,-0.03 -0.97,-1.61 -0.02,-0.03 -1.04,-1.61 -0.88,1.57 2.4,0.04 -0.04,0 2.36,0.11 -0.03,0 2.3,0.18 -0.03,0 2.26,0.24 -0.04,0 2.22,0.31 -0.04,0 2.16,0.38 -0.03,0 2.12,0.44 -0.04,-0.01 2.07,0.5 -0.03,0 2.01,0.55 -0.03,-0.01 1.97,0.61 -0.04,-0.01 1.92,0.67 -0.02,-0.02 1.85,0.72 -0.02,-0.01 1.81,0.75 -0.03,-0.01 1.77,0.81 -0.03,-0.01 1.71,0.84 -0.03,-0.01 1.66,0.88 -0.03,-0.01 1.61,0.92 -0.03,-0.02 1.55,0.97 -0.02,-0.01 1.5,0.99 -0.03,-0.02 1.45,1.02 -0.03,-0.01 1.39,1.05 -0.03,-0.02 1.34,1.08 -0.03,-0.03 1.28,1.11 -0.03,-0.02 1.23,1.12 -0.02,-0.02 1.17,1.14 -0.03,-0.03 1.11,1.17 -0.02,-0.03 1.05,1.17 -0.03,-0.02 0.99,1.18 -0.02,-0.02 0.94,1.2 -0.02,-0.03 0.87,1.2 -0.02,-0.03 0.82,1.21 -0.02,-0.03 0.76,1.2 0,-1.08 -0.76,1.21 0.02,-0.03 -0.82,1.21 0.02,-0.03 -0.87,1.2 0.02,-0.03 -0.94,1.2 0.02,-0.03 -0.99,1.19 0.03,-0.03 -1.05,1.17 0.02,-0.02 -1.11,1.16 0.03,-0.03 -1.17,1.14 0.02,-0.02 -1.23,1.13 0.03,-0.02 -1.28,1.1 0.03,-0.02 -1.34,1.08 0.03,-0.02 -1.39,1.05 0.03,-0.02 -1.45,1.03 0.03,-0.02 -1.5,0.99 0.02,-0.02 -1.55,0.97 0.03,-0.02 -1.61,0.93 0.03,-0.02 -1.66,0.88 0.03,-0.01 -1.71,0.85 0.03,-0.02 -1.77,0.81 0.03,-0.01 -1.81,0.76 0.02,-0.01 -1.85,0.71 0.02,-0.01 -1.92,0.67 0.04,-0.01 -1.97,0.6 0.03,-0.01 -2.01,0.56 0.03,-0.01 -2.07,0.5 0.04,0 -2.12,0.44 0.03,-0.01 -2.16,0.39 0.04,-0.01 -2.22,0.31 0.04,0 -2.26,0.25 0.03,0 -2.3,0.18 0.03,-0.01 -2.36,0.12 0.04,-0.01 -2.4,0.04 0.88,1.58 1.04,-1.62 z"
         style="fill:#000000;fill-opacity:1;fill-rule:nonzero;stroke:none"
         id="path142" /><path
         inkscape:connector-curvature="0"
         d="m 535.23,292.16 27.18,0 0,1.38 -27.18,0 0,-1.38 z"
         style="fill:#000000;fill-opacity:1;fill-rule:nonzero;stroke:none"
         id="path144" /><path
         inkscape:connector-curvature="0"
         d="m 475.05,309.38 14.76,0 0,1.38 -14.76,0 0,-1.38 z"
         style="fill:#000000;fill-opacity:1;fill-rule:nonzero;stroke:none"
         id="path146" /><path
         inkscape:connector-curvature="0"
         d="m 475.05,292.16 18.54,0 0,1.38 -18.54,0 0,-1.38 z"
         style="fill:#000000;fill-opacity:1;fill-rule:nonzero;stroke:none"
         id="path148" /><path
         inkscape:connector-curvature="0"
         d="m 475.05,275 14.76,0 0,1.38 -14.76,0 0,-1.38 z"
         style="fill:#000000;fill-opacity:1;fill-rule:nonzero;stroke:none"
         id="path150" /><path
         inkscape:connector-curvature="0"
         d="m 484.32,146.69 c 25.8,0 43.86,-12.9 51.6,-25.8 -7.74,-12.9 -25.8,-25.798 -51.6,-25.798 11.46,17.218 11.46,34.378 0,51.598 z"
         style="fill:#11ab00;fill-opacity:1;fill-rule:nonzero;stroke:none"
         id="path152" /><path
         inkscape:connector-curvature="0"
         d="m 483.46,146.14 0.88,1.57 2.39,-0.04 0.03,0 2.36,-0.11 0.03,0 2.3,-0.18 0.03,0 2.26,-0.25 0.03,-0.01 2.21,-0.31 0.04,-0.01 2.16,-0.38 0.03,0 2.11,-0.45 0.04,0 2.06,-0.51 0.03,0 2.02,-0.56 0.03,-0.01 1.96,-0.61 0.03,-0.01 1.92,-0.66 0.03,-0.02 1.86,-0.71 0.03,-0.01 1.82,-0.76 0.03,-0.01 1.77,-0.81 0.03,-0.01 1.71,-0.85 0.03,-0.02 1.65,-0.88 0.03,-0.02 1.61,-0.92 0.03,-0.02 1.55,-0.96 0.02,-0.02 1.5,-0.99 0.03,-0.02 1.45,-1.03 0.02,-0.01 1.39,-1.05 0.03,-0.02 1.33,-1.08 0.03,-0.03 1.27,-1.1 0.03,-0.02 1.22,-1.12 0.02,-0.02 1.17,-1.14 0.03,-0.03 1.11,-1.16 0.02,-0.03 1.05,-1.17 0.02,-0.02 0.99,-1.19 0.02,-0.02 0.94,-1.2 0.02,-0.03 0.87,-1.2 0.02,-0.03 0.82,-1.21 0.02,-0.03 0.75,-1.21 0,-1.08 -0.75,-1.21 -0.02,-0.03 -0.82,-1.2 -0.02,-0.03 -0.87,-1.2 -0.02,-0.03 -0.94,-1.2 -0.02,-0.03 -0.99,-1.18 -0.02,-0.03 -1.05,-1.17 -0.02,-0.02 -1.11,-1.16 -0.03,-0.03 -1.17,-1.14 -0.02,-0.02 -1.22,-1.13 -0.03,-0.02 -1.27,-1.1 -0.03,-0.02 -1.33,-1.08 -0.03,-0.02 -1.39,-1.05 -0.02,-0.02 -1.45,-1.03 -0.03,-0.02 -1.5,-0.99 -0.02,-0.01 -1.55,-0.97 -0.03,-0.02 -1.61,-0.92 -0.03,-0.01 -1.65,-0.89 -0.03,-0.01 -1.71,-0.85 -0.03,-0.02 -1.77,-0.805 -0.03,-0.014 -1.82,-0.757 -0.03,-0.012 -1.86,-0.712 -0.03,-0.011 -1.92,-0.668 -0.03,-0.011 -1.96,-0.607 -0.03,-0.009 -2.02,-0.555 -0.03,-0.008 -2.06,-0.502 -0.04,-0.008 -2.11,-0.442 -0.03,-0.006 -2.16,-0.383 -0.04,-0.005 -2.21,-0.315 -0.03,-0.004 -2.26,-0.248 -0.03,-0.003 -2.3,-0.18 -0.03,-0.002 -2.36,-0.112 -0.03,-0.001 -2.39,-0.038 -0.88,1.574 1.05,1.613 -0.02,-0.026 0.97,1.612 -0.01,-0.032 0.9,1.617 -0.02,-0.02 0.84,1.61 -0.01,-0.03 0.77,1.61 -0.01,-0.03 0.7,1.61 -0.01,-0.03 0.63,1.61 -0.01,-0.03 0.58,1.61 -0.01,-0.04 0.5,1.62 -0.01,-0.04 0.43,1.61 -0.01,-0.04 0.37,1.61 -0.01,-0.04 0.3,1.61 0,-0.04 0.24,1.61 -0.01,-0.04 0.17,1.61 -0.01,-0.04 0.11,1.62 0,-0.05 0.03,1.61 0,-0.04 -0.03,1.62 0,-0.05 -0.11,1.61 0.01,-0.04 -0.17,1.62 0.01,-0.05 -0.24,1.61 0,-0.04 -0.3,1.61 0.01,-0.04 -0.37,1.61 0.01,-0.04 -0.43,1.62 0.01,-0.04 -0.5,1.61 0.01,-0.04 -0.58,1.61 0.01,-0.03 -0.63,1.61 0.01,-0.03 -0.7,1.61 0.01,-0.03 -0.77,1.61 0.01,-0.03 -0.84,1.62 0.02,-0.03 -0.9,1.62 0.01,-0.03 -0.97,1.61 0.02,-0.02 -1.05,1.61 z m 2.76,-0.51 0.02,-0.02 0.97,-1.61 0.02,-0.04 0.9,-1.62 0.01,-0.02 0.84,-1.61 0.02,-0.03 0.77,-1.62 0.01,-0.03 0.71,-1.61 0.01,-0.04 0.64,-1.61 0.01,-0.03 0.58,-1.61 0.01,-0.04 0.51,-1.61 0.01,-0.04 0.43,-1.61 0.01,-0.04 0.37,-1.62 0.01,-0.04 0.3,-1.6 0,-0.04 0.24,-1.61 0.01,-0.05 0.16,-1.61 0.01,-0.04 0.1,-1.61 0,-0.05 0.03,-1.61 0,-0.04 -0.03,-1.61 0,-0.05 -0.1,-1.61 -0.01,-0.04 -0.16,-1.61 -0.01,-0.05 -0.24,-1.61 0,-0.04 -0.3,-1.6 -0.01,-0.04 -0.37,-1.61 -0.01,-0.04 -0.43,-1.61 -0.01,-0.04 -0.51,-1.61 -0.01,-0.04 -0.58,-1.62 -0.01,-0.03 -0.64,-1.61 -0.01,-0.03 -0.71,-1.62 -0.01,-0.03 -0.77,-1.61 -0.02,-0.03 -0.84,-1.614 -0.01,-0.024 -0.9,-1.62 -0.02,-0.032 -0.97,-1.613 -0.02,-0.026 -1.04,-1.612 -0.88,1.573 2.4,0.038 -0.04,-0.001 2.36,0.112 -0.03,-0.002 2.3,0.18 -0.03,-0.003 2.26,0.248 -0.04,-0.004 2.22,0.315 -0.04,-0.006 2.16,0.383 -0.03,-0.006 2.12,0.442 -0.04,-0.007 2.07,0.502 -0.03,-0.007 2.01,0.555 -0.03,-0.009 1.97,0.607 -0.04,-0.011 1.92,0.672 -0.02,-0.02 1.85,0.72 -0.02,-0.01 1.81,0.75 -0.03,-0.01 1.77,0.81 -0.03,-0.01 1.71,0.84 -0.03,-0.01 1.66,0.88 -0.03,-0.01 1.61,0.92 -0.03,-0.02 1.55,0.97 -0.02,-0.01 1.5,0.99 -0.03,-0.02 1.45,1.02 -0.03,-0.01 1.39,1.05 -0.03,-0.02 1.34,1.08 -0.03,-0.03 1.28,1.11 -0.03,-0.02 1.23,1.12 -0.02,-0.02 1.17,1.14 -0.03,-0.03 1.11,1.17 -0.02,-0.03 1.05,1.17 -0.03,-0.02 0.99,1.18 -0.02,-0.02 0.94,1.2 -0.02,-0.03 0.87,1.2 -0.02,-0.03 0.82,1.21 -0.02,-0.03 0.76,1.2 0,-1.08 -0.76,1.21 0.02,-0.03 -0.82,1.21 0.02,-0.03 -0.87,1.2 0.02,-0.03 -0.94,1.2 0.02,-0.03 -0.99,1.19 0.03,-0.03 -1.05,1.17 0.02,-0.02 -1.11,1.16 0.03,-0.03 -1.17,1.14 0.02,-0.02 -1.23,1.13 0.03,-0.02 -1.28,1.1 0.03,-0.02 -1.34,1.08 0.03,-0.02 -1.39,1.05 0.03,-0.02 -1.45,1.03 0.03,-0.02 -1.5,0.99 0.02,-0.02 -1.55,0.97 0.03,-0.02 -1.61,0.93 0.03,-0.02 -1.66,0.89 0.03,-0.02 -1.71,0.85 0.03,-0.02 -1.77,0.81 0.03,-0.01 -1.81,0.76 0.02,-0.01 -1.85,0.71 0.02,-0.01 -1.92,0.67 0.04,-0.01 -1.97,0.6 0.03,-0.01 -2.01,0.56 0.03,-0.01 -2.07,0.5 0.04,0 -2.12,0.44 0.03,-0.01 -2.16,0.39 0.04,-0.01 -2.22,0.31 0.04,0 -2.26,0.25 0.03,0 -2.3,0.18 0.03,-0.01 -2.36,0.12 0.04,-0.01 -2.4,0.04 0.88,1.58 1.04,-1.62 z"
         style="fill:#000000;fill-opacity:1;fill-rule:nonzero;stroke:none"
         id="path154" /><path
         inkscape:connector-curvature="0"
         d="m 535.23,120.2 27.18,0 0,1.38 -27.18,0 0,-1.38 z"
         style="fill:#000000;fill-opacity:1;fill-rule:nonzero;stroke:none"
         id="path156" /><path
         inkscape:connector-curvature="0"
         d="m 475.05,137.42 14.76,0 0,1.38 -14.76,0 0,-1.38 z"
         style="fill:#000000;fill-opacity:1;fill-rule:nonzero;stroke:none"
         id="path158" /><path
         inkscape:connector-curvature="0"
         d="m 475.05,120.2 18.54,0 0,1.38 -18.54,0 0,-1.38 z"
         style="fill:#000000;fill-opacity:1;fill-rule:nonzero;stroke:none"
         id="path160" /><path
         inkscape:connector-curvature="0"
         d="m 475.05,102.98 14.76,0 0,1.38 -14.76,0 0,-1.38 z"
         style="fill:#000000;fill-opacity:1;fill-rule:nonzero;stroke:none"
         id="path162" /><path
         inkscape:connector-curvature="0"
         d="m 286.56,241.25 c 34.38,0 58.44,-17.16 68.76,-34.38 -10.32,-17.16 -34.38,-34.38 -68.76,-34.38 15.3,22.92 15.3,45.84 0,68.76 z"
         style="fill:#11ab00;fill-opacity:1;fill-rule:nonzero;stroke:none"
         id="path164" /><path
         inkscape:connector-curvature="0"
         d="m 285.7,240.7 0.88,1.57 3.19,-0.05 0.03,0 3.13,-0.14 0.03,-0.01 3.08,-0.24 0.03,0 3.01,-0.34 0.03,0 2.94,-0.42 0.03,-0.01 2.88,-0.5 0.03,0 2.82,-0.6 0.03,0 2.76,-0.66 0.03,-0.01 2.68,-0.74 0.04,-0.01 2.61,-0.82 0.03,-0.01 2.56,-0.88 0.03,-0.01 2.49,-0.95 0.02,-0.01 2.43,-1.02 0.03,-0.01 2.34,-1.07 0.03,-0.02 2.28,-1.12 0.03,-0.02 2.21,-1.18 0.03,-0.02 2.14,-1.23 0.03,-0.01 2.07,-1.29 0.02,-0.01 2.01,-1.33 0.02,-0.02 1.92,-1.36 0.03,-0.02 1.85,-1.4 0.02,-0.02 1.78,-1.44 0.03,-0.02 1.7,-1.47 0.02,-0.02 1.64,-1.5 0.02,-0.02 1.56,-1.52 0.02,-0.03 1.48,-1.54 0.02,-0.03 1.4,-1.57 0.03,-0.02 1.32,-1.58 0.02,-0.03 1.24,-1.59 0.02,-0.03 1.17,-1.6 0.02,-0.03 1.09,-1.61 0.02,-0.04 1.01,-1.61 -0.01,-1.08 -1,-1.6 -0.02,-0.03 -1.09,-1.62 -0.02,-0.03 -1.17,-1.6 -0.02,-0.02 -1.24,-1.59 -0.03,-0.03 -1.32,-1.57 -0.02,-0.03 -1.4,-1.57 -0.02,-0.02 -1.48,-1.55 -0.02,-0.02 -1.56,-1.52 -0.02,-0.03 -1.64,-1.49 -0.02,-0.02 -1.7,-1.47 -0.03,-0.02 -1.77,-1.44 -0.03,-0.02 -1.85,-1.4 -0.03,-0.02 -1.92,-1.36 -0.02,-0.02 -2.01,-1.33 -0.03,-0.02 -2.07,-1.27 -0.02,-0.02 -2.14,-1.24 -0.03,-0.01 -2.21,-1.19 -0.03,-0.01 -2.28,-1.13 -0.03,-0.02 -2.34,-1.07 -0.03,-0.01 -2.43,-1.02 -0.02,-0.01 -2.49,-0.95 -0.03,-0.01 -2.56,-0.89 -0.03,-0.01 -2.62,-0.81 -0.02,-0.01 -2.69,-0.75 -0.03,0 -2.75,-0.67 -0.04,-0.01 -2.82,-0.58 -0.03,-0.01 -2.88,-0.51 -0.03,0 -2.94,-0.42 -0.03,-0.01 -3.01,-0.33 -0.03,0 -3.08,-0.25 -0.03,0 -3.13,-0.14 -0.03,-0.01 -3.19,-0.05 -0.88,1.58 1.39,2.14 -0.01,-0.02 1.3,2.15 -0.02,-0.03 1.21,2.15 -0.02,-0.04 1.12,2.16 -0.01,-0.03 1.03,2.15 -0.01,-0.04 0.93,2.15 -0.01,-0.03 0.86,2.15 -0.02,-0.04 0.77,2.15 -0.01,-0.03 0.66,2.14 -0.01,-0.04 0.59,2.16 -0.01,-0.04 0.49,2.14 -0.01,-0.04 0.4,2.15 0,-0.03 0.31,2.14 0,-0.04 0.22,2.15 0,-0.04 0.13,2.14 0,-0.04 0.05,2.15 0,-0.04 -0.05,2.15 0,-0.05 -0.13,2.16 0,-0.05 -0.22,2.15 0,-0.04 -0.31,2.15 0,-0.04 -0.4,2.15 0.01,-0.05 -0.49,2.16 0.01,-0.04 -0.59,2.14 0.01,-0.03 -0.66,2.15 0.01,-0.04 -0.77,2.14 0.02,-0.03 -0.86,2.15 0.02,-0.03 -0.94,2.15 0.01,-0.04 -1.03,2.16 0.01,-0.03 -1.11,2.14 0.01,-0.03 -1.21,2.16 0.02,-0.04 -1.3,2.15 0.01,-0.02 -1.39,2.15 z m 3.1,-1.05 0.02,-0.02 1.3,-2.15 0.02,-0.03 1.21,-2.15 0.01,-0.03 1.12,-2.14 0.02,-0.03 1.03,-2.15 0.02,-0.04 0.93,-2.14 0.02,-0.03 0.85,-2.16 0.02,-0.03 0.76,-2.15 0.01,-0.04 0.67,-2.15 0.01,-0.03 0.59,-2.15 0.01,-0.04 0.49,-2.15 0.01,-0.04 0.4,-2.15 0,-0.04 0.32,-2.15 0,-0.04 0.23,-2.14 0,-0.05 0.14,-2.15 0,-0.04 0.04,-2.15 0,-0.04 -0.04,-2.15 0,-0.04 -0.14,-2.15 0,-0.04 -0.23,-2.15 0,-0.05 -0.32,-2.14 0,-0.04 -0.4,-2.15 -0.01,-0.04 -0.49,-2.15 -0.01,-0.04 -0.59,-2.15 -0.01,-0.04 -0.67,-2.14 -0.01,-0.04 -0.76,-2.15 -0.02,-0.04 -0.85,-2.14 -0.01,-0.03 -0.94,-2.16 -0.02,-0.03 -1.03,-2.15 -0.02,-0.02 -1.11,-2.16 -0.02,-0.03 -1.21,-2.14 -0.02,-0.03 -1.3,-2.15 -0.02,-0.03 -1.38,-2.14 -0.88,1.57 3.2,0.05 -0.03,0 3.13,0.15 -0.04,-0.01 3.08,0.25 -0.03,0 3,0.33 -0.03,-0.01 2.94,0.42 -0.03,0 2.88,0.51 -0.03,-0.01 2.82,0.59 -0.04,-0.01 2.76,0.67 -0.04,-0.01 2.69,0.75 -0.03,-0.01 2.62,0.81 -0.03,-0.01 2.55,0.89 -0.03,-0.02 2.48,0.96 -0.02,-0.01 2.42,1.01 -0.03,-0.01 2.35,1.07 -0.03,-0.02 2.28,1.14 -0.03,-0.02 2.21,1.19 -0.03,-0.02 2.14,1.24 -0.02,-0.02 2.07,1.28 -0.03,-0.02 2,1.33 -0.03,-0.02 1.92,1.36 -0.02,-0.01 1.85,1.4 -0.03,-0.02 1.78,1.44 -0.02,-0.02 1.7,1.47 -0.02,-0.02 1.63,1.49 -0.02,-0.02 1.55,1.52 -0.02,-0.03 1.47,1.55 -0.02,-0.03 1.4,1.57 -0.02,-0.02 1.32,1.57 -0.02,-0.02 1.24,1.59 -0.02,-0.03 1.17,1.6 -0.02,-0.03 1.09,1.61 -0.02,-0.03 1.01,1.6 -0.01,-1.08 -1,1.62 0.02,-0.04 -1.09,1.62 0.02,-0.03 -1.17,1.6 0.02,-0.03 -1.24,1.59 0.02,-0.02 -1.32,1.58 0.02,-0.03 -1.4,1.57 0.02,-0.02 -1.47,1.54 0.02,-0.02 -1.55,1.52 0.02,-0.02 -1.63,1.5 0.02,-0.02 -1.7,1.47 0.02,-0.02 -1.78,1.43 0.03,-0.02 -1.85,1.4 0.02,-0.02 -1.92,1.37 0.03,-0.02 -2,1.33 0.02,-0.02 -2.07,1.28 0.03,-0.01 -2.14,1.23 0.03,-0.02 -2.21,1.19 0.03,-0.02 -2.28,1.13 0.03,-0.02 -2.35,1.07 0.03,-0.01 -2.42,1.01 0.02,-0.01 -2.48,0.95 0.04,-0.01 -2.56,0.88 0.03,-0.01 -2.62,0.82 0.03,-0.01 -2.68,0.74 0.03,-0.01 -2.75,0.66 0.03,0 -2.82,0.59 0.03,-0.01 -2.88,0.5 0.03,0 -2.94,0.42 0.03,0 -3.01,0.33 0.04,0 -3.08,0.24 0.04,0 -3.13,0.14 0.03,0 -3.2,0.05 0.88,1.57 1.38,-2.15 z"
         style="fill:#000000;fill-opacity:1;fill-rule:nonzero;stroke:none"
         id="path166" /><path
         inkscape:connector-curvature="0"
         d="m 354.63,206.18 18.6,0 0,1.38 -18.6,0 0,-1.38 z"
         style="fill:#000000;fill-opacity:1;fill-rule:nonzero;stroke:none"
         id="path168" /><path
         inkscape:connector-curvature="0"
         d="m 268.65,231.98 23.58,0 0,1.38 -23.58,0 0,-1.38 z"
         style="fill:#000000;fill-opacity:1;fill-rule:nonzero;stroke:none"
         id="path170" /><path
         inkscape:connector-curvature="0"
         d="m 268.65,214.76 29.34,0 0,1.38 -29.34,0 0,-1.38 z"
         style="fill:#000000;fill-opacity:1;fill-rule:nonzero;stroke:none"
         id="path172" /><path
         inkscape:connector-curvature="0"
         d="m 268.65,197.6 29.34,0 0,1.38 -29.34,0 0,-1.38 z"
         style="fill:#000000;fill-opacity:1;fill-rule:nonzero;stroke:none"
         id="path174" /><path
         inkscape:connector-curvature="0"
         d="m 268.65,180.38 23.58,0 0,1.38 -23.58,0 0,-1.38 z"
         style="fill:#000000;fill-opacity:1;fill-rule:nonzero;stroke:none"
         id="path176" /><path
         inkscape:connector-curvature="0"
         d="m 97.38,232.67 c 17.22,0 29.22,-8.58 34.38,-17.22 -5.16,-8.58 -17.16,-17.16 -34.38,-17.16 7.68,11.46 7.68,22.92 0,34.38 z"
         style="fill:#11ab00;fill-opacity:1;fill-rule:nonzero;stroke:none"
         id="path178" /><path
         inkscape:connector-curvature="0"
         d="m 96.516,232.13 0.878,1.56 1.598,-0.02 0.034,0 1.564,-0.08 0.03,0 1.54,-0.12 0.03,0 1.51,-0.17 0.05,0 2.92,-0.47 0.06,-0.01 2.79,-0.63 0.05,-0.02 2.66,-0.77 0.07,-0.02 2.52,-0.92 0.05,-0.03 2.39,-1.04 0.06,-0.03 2.24,-1.15 0.06,-0.03 2.1,-1.26 0.05,-0.04 1.96,-1.34 0.06,-0.04 1.81,-1.42 0.04,-0.04 1.67,-1.49 0.05,-0.04 1.51,-1.54 0.05,-0.05 1.36,-1.58 0.05,-0.06 1.2,-1.6 0.04,-0.05 1.05,-1.62 -0.01,-1.12 -1.05,-1.6 -0.03,-0.06 -1.2,-1.59 -0.05,-0.06 -1.37,-1.57 -0.04,-0.05 -1.52,-1.53 -0.04,-0.04 -1.67,-1.48 -0.05,-0.05 -1.8,-1.41 -0.06,-0.04 -1.96,-1.34 -0.06,-0.04 -2.1,-1.25 -0.05,-0.03 -2.24,-1.16 -0.06,-0.02 -2.39,-1.05 -0.06,-0.02 -2.52,-0.92 -0.06,-0.02 -2.66,-0.77 -0.05,-0.02 -2.79,-0.63 -0.06,-0.01 -2.92,-0.46 -0.05,-0.01 -1.51,-0.16 -0.03,-0.01 -1.54,-0.12 -0.03,0 -1.564,-0.07 -0.034,-0.01 -1.598,-0.02 -0.877,1.57 1.35,2.14 -0.033,-0.06 1.17,2.16 -0.03,-0.06 0.99,2.14 -0.029,-0.07 0.815,2.16 -0.03,-0.08 0.63,2.15 -0.02,-0.08 0.45,2.15 -0.01,-0.08 0.27,2.15 -0.01,-0.09 0.09,2.15 0,-0.08 -0.09,2.14 0.01,-0.08 -0.27,2.15 0.01,-0.08 -0.45,2.15 0.02,-0.08 -0.63,2.15 0.03,-0.07 -0.814,2.14 0.027,-0.06 -0.99,2.15 0.032,-0.06 -1.17,2.14 0.031,-0.05 -1.35,2.15 z m 3.078,-1.07 0.031,-0.05 1.175,-2.15 0.03,-0.06 0.99,-2.15 0.02,-0.07 0.81,-2.14 0.03,-0.08 0.63,-2.15 0.02,-0.08 0.45,-2.14 0.01,-0.08 0.27,-2.16 0.01,-0.08 0.09,-2.14 0,-0.09 -0.09,-2.15 -0.01,-0.09 -0.27,-2.14 -0.01,-0.08 -0.45,-2.16 -0.02,-0.08 -0.63,-2.14 -0.03,-0.07 -0.81,-2.15 -0.02,-0.07 -0.99,-2.15 -0.03,-0.06 -1.174,-2.15 -0.033,-0.06 -1.35,-2.14 -0.877,1.56 1.597,0.02 -0.034,0 1.571,0.08 -0.03,0 1.53,0.12 -0.03,-0.01 1.51,0.17 -0.05,-0.01 2.92,0.47 -0.07,-0.02 2.78,0.63 -0.05,-0.01 2.65,0.77 -0.06,-0.02 2.52,0.92 -0.06,-0.03 2.38,1.04 -0.06,-0.02 2.25,1.15 -0.06,-0.03 2.1,1.25 -0.05,-0.03 1.96,1.34 -0.05,-0.04 1.81,1.42 -0.05,-0.04 1.66,1.48 -0.04,-0.04 1.51,1.53 -0.04,-0.05 1.36,1.57 -0.05,-0.06 1.2,1.6 -0.03,-0.05 1.05,1.6 -0.01,-1.11 -1.05,1.62 0.04,-0.06 -1.2,1.6 0.05,-0.06 -1.37,1.59 0.05,-0.05 -1.52,1.53 0.05,-0.04 -1.66,1.48 0.04,-0.04 -1.8,1.43 0.05,-0.04 -1.96,1.34 0.05,-0.03 -2.1,1.26 0.06,-0.03 -2.25,1.15 0.06,-0.03 -2.38,1.05 0.05,-0.03 -2.52,0.92 0.07,-0.02 -2.65,0.78 0.05,-0.02 -2.78,0.63 0.07,-0.01 -2.92,0.46 0.05,0 -1.51,0.16 0.03,0 -1.53,0.12 0.03,0 -1.571,0.07 0.034,0 -1.597,0.02 0.878,1.56 1.35,-2.15 z"
         style="fill:#000000;fill-opacity:1;fill-rule:nonzero;stroke:none"
         id="path180" /><path
         inkscape:connector-curvature="0"
         d="m 131.07,214.76 18.6,0 0,1.38 -18.6,0 0,-1.38 z"
         style="fill:#000000;fill-opacity:1;fill-rule:nonzero;stroke:none"
         id="path182" /><path
         inkscape:connector-curvature="0"
         d="m 79.53,223.4 22.86,0 0,1.38 -22.86,0 0,-1.38 z"
         style="fill:#000000;fill-opacity:1;fill-rule:nonzero;stroke:none"
         id="path184" /><path
         inkscape:connector-curvature="0"
         d="m 79.53,206.18 22.86,0 0,1.38 -22.86,0 0,-1.38 z"
         style="fill:#000000;fill-opacity:1;fill-rule:nonzero;stroke:none"
         id="path186" /><path
         inkscape:connector-curvature="0"
         d="m 669.18,120.89 c 0,-2.34 -1.92,-4.32 -4.32,-4.32 -2.34,0 -4.26,1.98 -4.26,4.32 0,2.4 1.92,4.32 4.26,4.32 2.4,0 4.32,-1.92 4.32,-4.32 z"
         style="fill:#000000;fill-opacity:1;fill-rule:nonzero;stroke:none"
         id="path188" /><path
         inkscape:connector-curvature="0"
         d="m 668.22,292.85 c 0,-2.34 -1.92,-4.26 -4.32,-4.26 -2.34,0 -4.26,1.92 -4.26,4.26 0,2.4 1.92,4.32 4.26,4.32 2.4,0 4.32,-1.92 4.32,-4.32 z"
         style="fill:#000000;fill-opacity:1;fill-rule:nonzero;stroke:none"
         id="path190" /><path
         inkscape:connector-curvature="0"
         d="m 445.62,138.11 c 0,-2.4 -1.92,-4.32 -4.32,-4.32 -2.34,0 -4.26,1.92 -4.26,4.32 0,2.34 1.92,4.26 4.26,4.26 2.4,0 4.32,-1.92 4.32,-4.26 z"
         style="fill:#000000;fill-opacity:1;fill-rule:nonzero;stroke:none"
         id="path192" /><path
         inkscape:connector-curvature="0"
         d="m 41.34,228.53 4.44,0 4.5,-4.44 -4.5,-4.5 -4.44,0 0,8.94 z"
         style="fill:#ffffff;fill-opacity:1;fill-rule:nonzero;stroke:none"
         id="path194" /><path
         inkscape:connector-curvature="0"
         d="m 40.32,228.53 1.02,1.02 4.44,0 0.716,-0.29 4.5,-4.44 0.005,-1.45 -4.5,-4.5 -0.721,-0.3 -4.44,0 -1.02,1.02 0,8.94 z m 2.04,-8.94 -1.02,1.02 4.44,0 -0.721,-0.3 4.5,4.5 0.005,-1.44 -4.5,4.44 0.716,-0.3 -4.44,0 1.02,1.02 0,-8.94 z"
         style="fill:#000000;fill-opacity:1;fill-rule:nonzero;stroke:none"
         id="path196" /><path
         inkscape:connector-curvature="0"
         d="m 239.1,202.73 4.44,0 4.5,-4.44 -4.5,-4.5 -4.44,0 0,8.94 z"
         style="fill:#ffffff;fill-opacity:1;fill-rule:nonzero;stroke:none"
         id="path198" /><path
         inkscape:connector-curvature="0"
         d="m 238.08,202.73 1.02,1.02 4.44,0 0.72,-0.29 4.5,-4.44 0,-1.45 -4.5,-4.5 -0.72,-0.3 -4.44,0 -1.02,1.02 0,8.94 z m 2.04,-8.94 -1.02,1.02 4.44,0 -0.72,-0.3 4.5,4.5 0,-1.44 -4.5,4.44 0.72,-0.3 -4.44,0 1.02,1.02 0,-8.94 z"
         style="fill:#000000;fill-opacity:1;fill-rule:nonzero;stroke:none"
         id="path200" /><path
         inkscape:connector-curvature="0"
         d="m 436.86,125.39 4.44,0 4.5,-4.5 -4.5,-4.44 -4.44,0 0,8.94 z"
         style="fill:#ffffff;fill-opacity:1;fill-rule:nonzero;stroke:none"
         id="path202" /><path
         inkscape:connector-curvature="0"
         d="m 435.84,125.39 1.02,1.02 4.44,0 0.72,-0.3 4.5,-4.5 0,-1.44 -4.5,-4.44 -0.72,-0.3 -4.44,0 -1.02,1.02 0,8.94 z m 2.04,-8.94 -1.02,1.02 4.44,0 -0.72,-0.29 4.5,4.44 0,-1.45 -4.5,4.5 0.72,-0.3 -4.44,0 1.02,1.02 0,-8.94 z"
         style="fill:#000000;fill-opacity:1;fill-rule:nonzero;stroke:none"
         id="path204" /><path
         inkscape:connector-curvature="0"
         d="m 436.86,297.35 4.44,0 4.5,-4.5 -4.5,-4.44 -4.44,0 0,8.94 z"
         style="fill:#ffffff;fill-opacity:1;fill-rule:nonzero;stroke:none"
         id="path206" /><path
         inkscape:connector-curvature="0"
         d="m 435.84,297.35 1.02,1.02 4.44,0 0.72,-0.3 4.5,-4.5 0,-1.44 -4.5,-4.44 -0.72,-0.3 -4.44,0 -1.02,1.02 0,8.94 z m 2.04,-8.94 -1.02,1.02 4.44,0 -0.72,-0.29 4.5,4.44 0,-1.45 -4.5,4.5 0.72,-0.3 -4.44,0 1.02,1.02 0,-8.94 z"
         style="fill:#000000;fill-opacity:1;fill-rule:nonzero;stroke:none"
         id="path208" /><path
         inkscape:connector-curvature="0"
         d="m 694.8,202.73 4.5,0 4.44,-4.44 -4.44,-4.5 -4.5,0 0,8.94 z"
         style="fill:#ffffff;fill-opacity:1;fill-rule:nonzero;stroke:none"
         id="path210" /><path
         inkscape:connector-curvature="0"
         d="m 693.78,202.73 1.02,1.02 4.5,0 0.72,-0.3 4.44,-4.44 0.01,-1.43 -4.44,-4.5 -0.73,-0.31 -4.5,0 -1.02,1.02 0,8.94 z m 2.04,-8.94 -1.02,1.02 4.5,0 -0.73,-0.3 4.44,4.5 0.01,-1.44 -4.44,4.44 0.72,-0.3 -4.5,0 1.02,1.02 0,-8.94 z"
         style="fill:#000000;fill-opacity:1;fill-rule:nonzero;stroke:none"
         id="path212" /><path
         inkscape:connector-curvature="0"
         d="m 883.98,202.73 4.44,0 4.5,-4.44 -4.5,-4.5 -4.44,0 0,8.94 z"
         style="fill:#ffffff;fill-opacity:1;fill-rule:nonzero;stroke:none"
         id="path214" /><path
         inkscape:connector-curvature="0"
         d="m 882.96,202.73 1.02,1.02 4.44,0 0.72,-0.29 4.5,-4.44 0,-1.45 -4.5,-4.5 -0.72,-0.3 -4.44,0 -1.02,1.02 0,8.94 z m 2.04,-8.94 -1.02,1.02 4.44,0 -0.72,-0.3 4.5,4.5 0,-1.44 -4.5,4.44 0.72,-0.3 -4.44,0 1.02,1.02 0,-8.94 z"
         style="fill:#000000;fill-opacity:1;fill-rule:nonzero;stroke:none"
         id="path216" /><path
         inkscape:connector-curvature="0"
         d="m 694.8,297.35 4.5,0 4.44,-4.5 -4.44,-4.44 -4.5,0 0,8.94 z"
         style="fill:#ffffff;fill-opacity:1;fill-rule:nonzero;stroke:none"
         id="path218" /><path
         inkscape:connector-curvature="0"
         d="m 693.78,297.35 1.02,1.02 4.5,0 0.73,-0.3 4.44,-4.5 -0.01,-1.44 -4.44,-4.44 -0.72,-0.3 -4.5,0 -1.02,1.02 0,8.94 z m 2.04,-8.94 -1.02,1.02 4.5,0 -0.72,-0.3 4.44,4.44 -0.01,-1.43 -4.44,4.5 0.73,-0.31 -4.5,0 1.02,1.02 0,-8.94 z"
         style="fill:#000000;fill-opacity:1;fill-rule:nonzero;stroke:none"
         id="path220" /><path
         inkscape:connector-curvature="0"
         d="m 694.8,125.39 4.5,0 4.44,-4.5 -4.44,-4.44 -4.5,0 0,8.94 z"
         style="fill:#ffffff;fill-opacity:1;fill-rule:nonzero;stroke:none"
         id="path222" /><path
         inkscape:connector-curvature="0"
         d="m 693.78,125.39 1.02,1.02 4.5,0 0.73,-0.3 4.44,-4.5 -0.01,-1.44 -4.44,-4.44 -0.72,-0.3 -4.5,0 -1.02,1.02 0,8.94 z m 2.04,-8.94 -1.02,1.02 4.5,0 -0.72,-0.3 4.44,4.44 -0.01,-1.43 -4.44,4.5 0.73,-0.31 -4.5,0 1.02,1.02 0,-8.94 z"
         style="fill:#000000;fill-opacity:1;fill-rule:nonzero;stroke:none"
         id="path224" /><path
         inkscape:connector-curvature="0"
         d="m 471.24,211.37 4.5,0 4.44,-4.5 -4.44,-4.44 -4.5,0 0,8.94 z"
         style="fill:#ffffff;fill-opacity:1;fill-rule:nonzero;stroke:none"
         id="path226" /><path
         inkscape:connector-curvature="0"
         d="m 470.22,211.37 1.02,1.02 4.5,0 0.73,-0.3 4.44,-4.5 -0.01,-1.44 -4.44,-4.44 -0.72,-0.3 -4.5,0 -1.02,1.02 0,8.94 z m 2.04,-8.94 -1.02,1.02 4.5,0 -0.72,-0.3 4.44,4.44 -0.01,-1.43 -4.44,4.5 0.73,-0.31 -4.5,0 1.02,1.02 0,-8.94 z"
         style="fill:#000000;fill-opacity:1;fill-rule:nonzero;stroke:none"
         id="path228" /><path
         inkscape:connector-curvature="0"
         d="m 247.68,297.35 4.5,0 4.44,-4.5 -4.44,-4.44 -4.5,0 0,8.94 z"
         style="fill:#ffffff;fill-opacity:1;fill-rule:nonzero;stroke:none"
         id="path230" /><path
         inkscape:connector-curvature="0"
         d="m 246.66,297.35 1.02,1.02 4.5,0 0.73,-0.3 4.44,-4.5 -0.01,-1.44 -4.44,-4.44 -0.72,-0.3 -4.5,0 -1.02,1.02 0,8.94 z m 2.04,-8.94 -1.02,1.02 4.5,0 -0.72,-0.3 4.44,4.44 -0.01,-1.43 -4.44,4.5 0.73,-0.31 -4.5,0 1.02,1.02 0,-8.94 z"
         style="fill:#000000;fill-opacity:1;fill-rule:nonzero;stroke:none"
         id="path232" /><path
         inkscape:connector-curvature="0"
         d="m 234.72,215.45 c 0,-2.34 -1.92,-4.26 -4.32,-4.26 -2.34,0 -4.26,1.92 -4.26,4.26 0,2.4 1.92,4.32 4.26,4.32 2.4,0 4.32,-1.92 4.32,-4.32 z"
         style="fill:#000000;fill-opacity:1;fill-rule:nonzero;stroke:none"
         id="path234" /><path
         inkscape:connector-curvature="0"
         d="m 372.18,204.35 0.72,5.1 -0.36,-2.58 -0.36,-2.52 z"
         style="fill:#000000;fill-opacity:1;fill-rule:nonzero;stroke:none"
         id="path236" /><path
         inkscape:connector-curvature="0"
         d="m 788.37,197.6 2.4,0 0,1.38 -2.4,0 0,-1.38 z"
         style="fill:#000000;fill-opacity:1;fill-rule:nonzero;stroke:none"
         id="path238" /><path
         inkscape:connector-curvature="0"
         d="m 789.39,197.6 5.16,0 0,1.38 -5.16,0 0,-1.38 z"
         style="fill:#000000;fill-opacity:1;fill-rule:nonzero;stroke:none"
         id="path240" /><path
         inkscape:connector-curvature="0"
         d="m 784.59,197.6 5.16,0 0,1.38 -5.16,0 0,-1.38 z"
         style="fill:#000000;fill-opacity:1;fill-rule:nonzero;stroke:none"
         id="path242" /><path
         inkscape:connector-curvature="0"
         d="m 559.44,291.59 4.5,2.58 -2.22,-1.32 -2.28,-1.26 z"
         style="fill:#000000;fill-opacity:1;fill-rule:nonzero;stroke:none"
         id="path244" /><path
         inkscape:connector-curvature="0"
         d="m 563.22,118.85 -3.06,4.08 1.56,-2.04 1.5,-2.04 z"
         style="fill:#000000;fill-opacity:1;fill-rule:nonzero;stroke:none"
         id="path246" /><path
         inkscape:connector-curvature="0"
         d="m 148.74,212.93 0.48,5.1 -0.24,-2.58 -0.24,-2.52 z"
         style="fill:#000000;fill-opacity:1;fill-rule:nonzero;stroke:none"
         id="path248" /><path
         inkscape:connector-curvature="0"
         d="m 440.61,209.96 0,65.73 0.69,0.69 31.35,0 0,-1.38 -31.35,0 0.69,0.69 0,-65.73 -1.38,0 z"
         style="fill:#000000;fill-opacity:1;fill-rule:nonzero;stroke:none"
         id="path250" /><path
         inkscape:connector-curvature="0"
         d="m 440.61,206.18 1.38,0 0,5.16 -1.38,0 0,-5.16 z"
         style="fill:#000000;fill-opacity:1;fill-rule:nonzero;stroke:none"
         id="path252" /><path
         inkscape:connector-curvature="0"
         d="m 471.27,275 5.16,0 0,1.38 -5.16,0 0,-1.38 z"
         style="fill:#000000;fill-opacity:1;fill-rule:nonzero;stroke:none"
         id="path254" /><path
         inkscape:connector-curvature="0"
         d="m 853.35,201.38 0,143.07 0.69,-0.69 -395.52,0 0.69,0.69 0,-34.38 -0.69,0.69 14.13,0 0,-1.38 -14.13,0 -0.69,0.69 0,34.38 0.69,0.69 395.52,0 0.69,-0.69 0,-143.07 -1.38,0 z"
         style="fill:#000000;fill-opacity:1;fill-rule:nonzero;stroke:none"
         id="path256" /><path
         inkscape:connector-curvature="0"
         d="m 853.35,197.6 1.38,0 0,5.16 -1.38,0 0,-5.16 z"
         style="fill:#000000;fill-opacity:1;fill-rule:nonzero;stroke:none"
         id="path258" /><path
         inkscape:connector-curvature="0"
         d="m 471.27,309.38 5.16,0 0,1.38 -5.16,0 0,-1.38 z"
         style="fill:#000000;fill-opacity:1;fill-rule:nonzero;stroke:none"
         id="path260" /><path
         inkscape:connector-curvature="0"
         d="m 854.73,195.2 0,-125.908 -0.69,-0.69 -395.52,0 -0.69,0.69 0,34.378 0.69,0.69 14.13,0 0,-1.38 -14.13,0 0.69,0.69 0,-34.378 -0.69,0.69 395.52,0 -0.69,-0.69 0,125.908 1.38,0 z"
         style="fill:#000000;fill-opacity:1;fill-rule:nonzero;stroke:none"
         id="path262" /><path
         inkscape:connector-curvature="0"
         d="m 853.35,193.82 1.38,0 0,5.16 -1.38,0 0,-5.16 z"
         style="fill:#000000;fill-opacity:1;fill-rule:nonzero;stroke:none"
         id="path264" /><path
         inkscape:connector-curvature="0"
         d="m 471.27,102.98 5.16,0 0,1.38 -5.16,0 0,-1.38 z"
         style="fill:#000000;fill-opacity:1;fill-rule:nonzero;stroke:none"
         id="path266" /><path
         inkscape:connector-curvature="0"
         d="m 633.57,120.2 27.72,0 0,1.38 -27.72,0 0,-1.38 z"
         style="fill:#000000;fill-opacity:1;fill-rule:nonzero;stroke:none"
         id="path268" /><path
         inkscape:connector-curvature="0"
         d="m 629.79,120.2 5.16,0 0,1.38 -5.16,0 0,-1.38 z"
         style="fill:#000000;fill-opacity:1;fill-rule:nonzero;stroke:none"
         id="path270" /><path
         inkscape:connector-curvature="0"
         d="m 664.17,124.52 0,56.55 0.69,0.69 57.09,0 0,-1.38 -57.09,0 0.69,0.69 0,-56.55 -1.38,0 z"
         style="fill:#000000;fill-opacity:1;fill-rule:nonzero;stroke:none"
         id="path272" /><path
         inkscape:connector-curvature="0"
         d="m 720.57,180.38 5.16,0 0,1.38 -5.16,0 0,-1.38 z"
         style="fill:#000000;fill-opacity:1;fill-rule:nonzero;stroke:none"
         id="path274" /><path
         inkscape:connector-curvature="0"
         d="m 665.55,117.26 0,-65.128 -0.69,-0.69 -254.28,0 -0.69,0.69 0,59.818 0.69,-0.69 -158.4,0 -0.69,0.69 0,69.12 0.69,0.69 14.07,0 0,-1.38 -14.07,0 0.69,0.69 0,-69.12 -0.69,0.69 158.4,0 0.69,-0.69 0,-59.818 -0.69,0.69 254.28,0 -0.69,-0.69 0,65.128 1.38,0 z"
         style="fill:#000000;fill-opacity:1;fill-rule:nonzero;stroke:none"
         id="path276" /><path
         inkscape:connector-curvature="0"
         d="m 264.87,180.38 5.16,0 0,1.38 -5.16,0 0,-1.38 z"
         style="fill:#000000;fill-opacity:1;fill-rule:nonzero;stroke:none"
         id="path278" /><path
         inkscape:connector-curvature="0"
         d="m 633.57,292.16 26.76,0 0,1.38 -26.76,0 0,-1.38 z"
         style="fill:#000000;fill-opacity:1;fill-rule:nonzero;stroke:none"
         id="path280" /><path
         inkscape:connector-curvature="0"
         d="m 629.79,292.16 5.16,0 0,1.38 -5.16,0 0,-1.38 z"
         style="fill:#000000;fill-opacity:1;fill-rule:nonzero;stroke:none"
         id="path282" /><path
         inkscape:connector-curvature="0"
         d="m 664.64,289.29 0.91,-73.83 -0.69,0.68 57.09,0 0,-1.38 -57.09,0 -0.69,0.68 -0.91,73.83 1.38,0.02 z"
         style="fill:#000000;fill-opacity:1;fill-rule:nonzero;stroke:none"
         id="path284" /><path
         inkscape:connector-curvature="0"
         d="m 720.57,214.76 5.16,0 0,1.38 -5.16,0 0,-1.38 z"
         style="fill:#000000;fill-opacity:1;fill-rule:nonzero;stroke:none"
         id="path286" /><path
         inkscape:connector-curvature="0"
         d="m 663.21,296.48 0,65.19 0.69,-0.69 -283.62,0 0.69,0.69 0,-91.62 -0.69,-0.69 -110.94,0 0.69,0.69 0,-34.29 -1.38,0 0,34.29 0.69,0.69 110.94,0 -0.69,-0.69 0,91.62 0.69,0.69 283.62,0 0.69,-0.69 0,-65.19 -1.38,0 z"
         style="fill:#000000;fill-opacity:1;fill-rule:nonzero;stroke:none"
         id="path288" /><path
         inkscape:connector-curvature="0"
         d="m 268.65,231.98 1.38,0 0,5.16 -1.38,0 0,-5.16 z"
         style="fill:#000000;fill-opacity:1;fill-rule:nonzero;stroke:none"
         id="path290" /><path
         inkscape:connector-curvature="0"
         d="m 440.61,141.68 1.38,0 0,62.1 -1.38,0 0,-62.1 z"
         style="fill:#000000;fill-opacity:1;fill-rule:nonzero;stroke:none"
         id="path292" /><path
         inkscape:connector-curvature="0"
         d="m 440.61,202.4 1.38,0 0,5.16 -1.38,0 0,-5.16 z"
         style="fill:#000000;fill-opacity:1;fill-rule:nonzero;stroke:none"
         id="path294" /><path
         inkscape:connector-curvature="0"
         d="m 444.93,137.42 27.72,0 0,1.38 -27.72,0 0,-1.38 z"
         style="fill:#000000;fill-opacity:1;fill-rule:nonzero;stroke:none"
         id="path296" /><path
         inkscape:connector-curvature="0"
         d="m 471.27,137.42 5.16,0 0,1.38 -5.16,0 0,-1.38 z"
         style="fill:#000000;fill-opacity:1;fill-rule:nonzero;stroke:none"
         id="path298" /><path
         inkscape:connector-curvature="0"
         d="m 437.73,137.42 -357.51,0 -0.69,0.69 0,65.67 1.38,0 0,-65.67 -0.69,0.69 357.51,0 0,-1.38 z"
         style="fill:#000000;fill-opacity:1;fill-rule:nonzero;stroke:none"
         id="path300" /><path
         inkscape:connector-curvature="0"
         d="m 79.53,202.4 1.38,0 0,5.16 -1.38,0 0,-5.16 z"
         style="fill:#000000;fill-opacity:1;fill-rule:nonzero;stroke:none"
         id="path302" /><path
         inkscape:connector-curvature="0"
         d="m 220.83,214.76 6,0 0,1.38 -6,0 0,-1.38 z"
         style="fill:#000000;fill-opacity:1;fill-rule:nonzero;stroke:none"
         id="path304" /><path
         inkscape:connector-curvature="0"
         d="m 217.05,214.76 5.16,0 0,1.38 -5.16,0 0,-1.38 z"
         style="fill:#000000;fill-opacity:1;fill-rule:nonzero;stroke:none"
         id="path306" /><path
         inkscape:connector-curvature="0"
         d="m 234.03,214.76 32.22,0 0,1.38 -32.22,0 0,-1.38 z"
         style="fill:#000000;fill-opacity:1;fill-rule:nonzero;stroke:none"
         id="path308" /><path
         inkscape:connector-curvature="0"
         d="m 264.87,214.76 5.16,0 0,1.38 -5.16,0 0,-1.38 z"
         style="fill:#000000;fill-opacity:1;fill-rule:nonzero;stroke:none"
         id="path310" /><path
         inkscape:connector-curvature="0"
         d="m 229.71,219.08 0,73.77 0.69,0.69 17.97,0 0,-1.38 -17.97,0 0.69,0.69 0,-73.77 -1.38,0 z"
         style="fill:#000000;fill-opacity:1;fill-rule:nonzero;stroke:none"
         id="path312" /><path
         inkscape:connector-curvature="0"
         d="m 247.35,197.6 18.9,0 0,1.38 -18.9,0 0,-1.38 z"
         style="fill:#000000;fill-opacity:1;fill-rule:nonzero;stroke:none"
         id="path314" /><path
         inkscape:connector-curvature="0"
         d="m 264.87,197.6 5.16,0 0,1.38 -5.16,0 0,-1.38 z"
         style="fill:#000000;fill-opacity:1;fill-rule:nonzero;stroke:none"
         id="path316" /><path
         inkscape:connector-curvature="0"
         d="m 49.59,223.4 27.54,0 0,1.38 -27.54,0 0,-1.38 z"
         style="fill:#000000;fill-opacity:1;fill-rule:nonzero;stroke:none"
         id="path318" /><path
         inkscape:connector-curvature="0"
         d="m 75.75,223.4 5.16,0 0,1.38 -5.16,0 0,-1.38 z"
         style="fill:#000000;fill-opacity:1;fill-rule:nonzero;stroke:none"
         id="path320" /><path
         inkscape:connector-curvature="0"
         d="m 445.11,292.16 27.54,0 0,1.38 -27.54,0 0,-1.38 z"
         style="fill:#000000;fill-opacity:1;fill-rule:nonzero;stroke:none"
         id="path322" /><path
         inkscape:connector-curvature="0"
         d="m 471.27,292.16 5.16,0 0,1.38 -5.16,0 0,-1.38 z"
         style="fill:#000000;fill-opacity:1;fill-rule:nonzero;stroke:none"
         id="path324" /><path
         inkscape:connector-curvature="0"
         d="m 445.11,120.2 27.54,0 0,1.38 -27.54,0 0,-1.38 z"
         style="fill:#000000;fill-opacity:1;fill-rule:nonzero;stroke:none"
         id="path326" /><path
         inkscape:connector-curvature="0"
         d="m 471.27,120.2 5.16,0 0,1.38 -5.16,0 0,-1.38 z"
         style="fill:#000000;fill-opacity:1;fill-rule:nonzero;stroke:none"
         id="path328" /><path
         inkscape:connector-curvature="0"
         d="m 703.05,197.6 18.9,0 0,1.38 -18.9,0 0,-1.38 z"
         style="fill:#000000;fill-opacity:1;fill-rule:nonzero;stroke:none"
         id="path330" /><path
         inkscape:connector-curvature="0"
         d="m 720.57,197.6 5.16,0 0,1.38 -5.16,0 0,-1.38 z"
         style="fill:#000000;fill-opacity:1;fill-rule:nonzero;stroke:none"
         id="path332" /><path
         inkscape:connector-curvature="0"
         d="m 857.13,197.6 27.54,0 0,1.38 -27.54,0 0,-1.38 z"
         style="fill:#000000;fill-opacity:1;fill-rule:nonzero;stroke:none"
         id="path334" /><path
         inkscape:connector-curvature="0"
         d="m 853.35,197.6 5.16,0 0,1.38 -5.16,0 0,-1.38 z"
         style="fill:#000000;fill-opacity:1;fill-rule:nonzero;stroke:none"
         id="path336" /><path
         inkscape:connector-curvature="0"
         d="m 668.49,120.2 27,0 0,1.38 -27,0 0,-1.38 z"
         style="fill:#000000;fill-opacity:1;fill-rule:nonzero;stroke:none"
         id="path338" /><path
         inkscape:connector-curvature="0"
         d="m 667.53,292.16 27.96,0 0,1.38 -27.96,0 0,-1.38 z"
         style="fill:#000000;fill-opacity:1;fill-rule:nonzero;stroke:none"
         id="path340" /><path
         inkscape:connector-curvature="0"
         d="m 444.39,206.18 27.54,0 0,1.38 -27.54,0 0,-1.38 z"
         style="fill:#000000;fill-opacity:1;fill-rule:nonzero;stroke:none"
         id="path342" /><path
         inkscape:connector-curvature="0"
         d="m 440.61,206.18 5.16,0 0,1.38 -5.16,0 0,-1.38 z"
         style="fill:#000000;fill-opacity:1;fill-rule:nonzero;stroke:none"
         id="path344" /><path
         inkscape:connector-curvature="0"
         d="m 389.76,189.71 34.38,0 0,34.38 -34.38,0 0,-34.38 z"
         style="fill:#11ab00;fill-opacity:1;fill-rule:nonzero;stroke:none"
         id="path346" /><path
         inkscape:connector-curvature="0"
         d="m 388.74,224.09 1.02,1.02 34.38,0 1.02,-1.02 0,-34.38 -1.02,-1.02 -34.38,0 -1.02,1.02 0,34.38 z m 2.04,-34.38 -1.02,1.02 34.38,0 -1.02,-1.02 0,34.38 1.02,-1.02 -34.38,0 1.02,1.02 0,-34.38 z"
         style="fill:#000000;fill-opacity:1;fill-rule:nonzero;stroke:none"
         id="path348" /><path
         inkscape:connector-curvature="0"
         d="m 415.02,202.67 c 0,-0.9 -0.18,-1.68 -0.48,-2.4 -0.36,-0.72 -0.84,-1.32 -1.44,-1.74 -0.72,-0.54 -1.44,-0.96 -2.28,-1.2 -0.84,-0.24 -1.92,-0.36 -3.18,-0.36 l -6.6,0 0,18.54 5.52,0 c 1.32,0 2.34,-0.06 3,-0.12 0.72,-0.12 1.32,-0.3 1.98,-0.66 0.66,-0.36 1.14,-0.78 1.44,-1.38 0.3,-0.54 0.48,-1.2 0.48,-1.98 0,-0.9 -0.24,-1.62 -0.66,-2.28 -0.48,-0.6 -1.08,-1.08 -1.8,-1.44 l 0,-0.12 c 1.26,-0.24 2.22,-0.78 2.94,-1.62 0.72,-0.84 1.08,-1.92 1.08,-3.24 z m -4.14,8.4 c 0,0.42 -0.06,0.78 -0.24,1.08 -0.12,0.36 -0.36,0.6 -0.72,0.78 -0.36,0.24 -0.84,0.36 -1.38,0.42 -0.6,0.06 -1.26,0.06 -2.1,0.06 l -2.94,0 0,-5.34 3.18,0 c 0.78,0 1.44,0.06 1.86,0.12 0.48,0.06 0.9,0.24 1.26,0.48 0.42,0.24 0.66,0.6 0.84,0.96 0.18,0.42 0.24,0.9 0.24,1.44 z m 1.56,-8.46 c 0,0.72 -0.06,1.32 -0.3,1.74 -0.24,0.48 -0.66,0.84 -1.2,1.14 -0.42,0.24 -0.9,0.36 -1.5,0.42 -0.54,0.06 -1.26,0.06 -2.04,0.06 l -3.9,0 0,-6.84 3.3,0 c 1.08,0 1.92,0 2.64,0.12 0.66,0.12 1.26,0.36 1.68,0.66 0.48,0.3 0.84,0.66 1.02,1.08 0.24,0.42 0.3,0.96 0.3,1.62 z"
         style="fill:#000000;fill-opacity:1;fill-rule:nonzero;stroke:none"
         id="path350" /><path
         inkscape:connector-curvature="0"
         d="m 578.88,275.69 34.38,0 0,34.38 -34.38,0 0,-34.38 z"
         style="fill:#11ab00;fill-opacity:1;fill-rule:nonzero;stroke:none"
         id="path352" /><path
         inkscape:connector-curvature="0"
         d="m 577.86,310.07 1.02,1.02 34.38,0 1.02,-1.02 0,-34.38 -1.02,-1.02 -34.38,0 -1.02,1.02 0,34.38 z m 2.04,-34.38 -1.02,1.02 34.38,0 -1.02,-1.02 0,34.38 1.02,-1.02 -34.38,0 1.02,1.02 0,-34.38 z"
         style="fill:#000000;fill-opacity:1;fill-rule:nonzero;stroke:none"
         id="path354" /><path
         inkscape:connector-curvature="0"
         d="m 603.9,286.13 c -0.48,-0.24 -0.84,-0.42 -1.26,-0.6 -0.36,-0.18 -0.84,-0.36 -1.44,-0.54 -0.48,-0.12 -1.02,-0.3 -1.62,-0.36 -0.6,-0.12 -1.26,-0.18 -1.98,-0.18 -1.32,0 -2.58,0.18 -3.66,0.54 -1.08,0.36 -2.04,0.96 -2.88,1.8 -0.78,0.78 -1.38,1.74 -1.86,3 -0.42,1.2 -0.66,2.64 -0.66,4.2 0,1.56 0.24,2.94 0.66,4.14 0.42,1.2 1.02,2.22 1.86,3 0.78,0.84 1.74,1.44 2.82,1.86 1.14,0.42 2.4,0.66 3.72,0.66 1.02,0 1.98,-0.12 3,-0.36 0.96,-0.24 2.1,-0.66 3.3,-1.32 l 0,-2.88 -0.18,0 c -1.02,0.84 -2.04,1.44 -3.06,1.86 -0.96,0.36 -2.04,0.6 -3.18,0.6 -0.96,0 -1.8,-0.18 -2.58,-0.48 -0.72,-0.3 -1.38,-0.78 -1.98,-1.44 -0.6,-0.6 -1.02,-1.38 -1.32,-2.34 -0.36,-0.96 -0.48,-2.04 -0.48,-3.3 0,-1.26 0.18,-2.4 0.48,-3.36 0.36,-0.9 0.84,-1.68 1.38,-2.28 0.6,-0.6 1.26,-1.08 2.04,-1.38 0.78,-0.24 1.62,-0.42 2.46,-0.42 1.2,0 2.28,0.24 3.36,0.6 1.02,0.42 1.98,1.02 2.88,1.86 l 0.18,0 0,-2.88 z"
         style="fill:#000000;fill-opacity:1;fill-rule:nonzero;stroke:none"
         id="path356" /><path
         inkscape:connector-curvature="0"
         d="m 578.88,103.67 34.38,0 0,34.44 -34.38,0 0,-34.44 z"
         style="fill:#11ab00;fill-opacity:1;fill-rule:nonzero;stroke:none"
         id="path358" /><path
         inkscape:connector-curvature="0"
         d="m 577.86,138.11 1.02,1.02 34.38,0 1.02,-1.02 0,-34.44 -1.02,-1.02 -34.38,0 -1.02,1.02 0,34.44 z m 2.04,-34.44 -1.02,1.02 34.38,0 -1.02,-1.02 0,34.44 1.02,-1.02 -34.38,0 1.02,1.02 0,-34.44 z"
         style="fill:#000000;fill-opacity:1;fill-rule:nonzero;stroke:none"
         id="path360" /><path
         inkscape:connector-curvature="0"
         d="m 605.7,121.31 c 0,-1.68 -0.36,-3.24 -1.14,-4.56 -0.72,-1.38 -1.68,-2.46 -2.88,-3.24 -0.84,-0.48 -1.8,-0.9 -2.88,-1.08 -1.02,-0.24 -2.4,-0.36 -4.08,-0.36 l -4.68,0 0,18.54 4.62,0 c 1.8,0 3.24,-0.18 4.32,-0.42 1.08,-0.24 1.98,-0.6 2.7,-1.08 1.26,-0.78 2.22,-1.86 2.94,-3.12 0.72,-1.32 1.08,-2.88 1.08,-4.68 z m -2.58,0 c 0,1.5 -0.24,2.7 -0.78,3.72 -0.48,0.96 -1.26,1.74 -2.22,2.34 -0.78,0.42 -1.56,0.72 -2.34,0.84 -0.84,0.18 -1.8,0.24 -2.94,0.24 l -2.34,0 0,-14.28 2.34,0 c 1.14,0 2.22,0.06 3.06,0.24 0.9,0.18 1.74,0.54 2.46,1.02 0.9,0.54 1.62,1.32 2.04,2.28 0.48,0.96 0.72,2.16 0.72,3.6 z"
         style="fill:#000000;fill-opacity:1;fill-rule:nonzero;stroke:none"
         id="path362" /><path
         inkscape:connector-curvature="0"
         d="m 802.44,181.07 34.38,0 0,34.38 -34.38,0 0,-34.38 z"
         style="fill:#11ab00;fill-opacity:1;fill-rule:nonzero;stroke:none"
         id="path364" /><path
         inkscape:connector-curvature="0"
         d="m 801.42,215.45 1.02,1.02 34.38,0 1.02,-1.02 0,-34.38 -1.02,-1.02 -34.38,0 -1.02,1.02 0,34.38 z m 2.04,-34.38 -1.02,1.02 34.38,0 -1.02,-1.02 0,34.38 1.02,-1.02 -34.38,0 1.02,1.02 0,-34.38 z"
         style="fill:#000000;fill-opacity:1;fill-rule:nonzero;stroke:none"
         id="path366" /><path
         inkscape:connector-curvature="0"
         d="m 825.72,189.53 -12.24,0 0,18.48 12.24,0 0,-2.16 -9.78,0 0,-5.1 9.78,0 0,-2.16 -9.78,0 0,-6.9 9.78,0 0,-2.16 z"
         style="fill:#000000;fill-opacity:1;fill-rule:nonzero;stroke:none"
         id="path368" /><path
         inkscape:connector-curvature="0"
         d="m 428.64,283.07 -12.6,0 0,2.4 4.86,0 0,15.6 -4.86,0 0,2.1 c 0.66,0 1.38,0.06 2.16,0.18 0.72,0.12 1.32,0.24 1.68,0.48 0.48,0.24 0.84,0.6 1.14,0.96 0.24,0.42 0.42,0.96 0.48,1.62 l 2.4,0 0,-20.94 4.74,0 0,-2.4 z"
         style="fill:#ff0000;fill-opacity:1;fill-rule:nonzero;stroke:none"
         id="path370" /><path
         inkscape:connector-curvature="0"
         d="m 725.22,283.07 -12.6,0 0,2.4 4.86,0 0,15.6 -4.86,0 0,2.1 c 0.66,0 1.38,0.06 2.1,0.18 0.78,0.12 1.32,0.24 1.74,0.48 0.48,0.24 0.84,0.6 1.08,0.96 0.3,0.42 0.48,0.96 0.48,1.62 l 2.46,0 0,-20.94 4.74,0 0,-2.4 z"
         style="fill:#0000ff;fill-opacity:1;fill-rule:nonzero;stroke:none"
         id="path372" /><path
         inkscape:connector-curvature="0"
         d="m 32.7,225.17 c 0,-4.2 -0.66,-7.26 -1.98,-9.24 -1.26,-1.92 -3.3,-2.88 -6.06,-2.88 -2.82,0 -4.86,0.96 -6.12,2.94 -1.26,1.98 -1.92,5.04 -1.92,9.12 0,4.14 0.66,7.2 1.92,9.18 1.32,1.98 3.36,2.94 6.12,2.94 2.82,0 4.8,-0.96 6.12,-3 1.26,-1.98 1.92,-5.04 1.92,-9.06 z m -4.08,-7.14 c 0.36,0.9 0.6,1.86 0.72,3 0.12,1.14 0.18,2.52 0.18,4.14 0,1.56 -0.06,2.94 -0.18,4.08 -0.12,1.2 -0.36,2.16 -0.78,3 -0.36,0.78 -0.84,1.38 -1.5,1.8 -0.6,0.42 -1.38,0.6 -2.4,0.6 -0.96,0 -1.8,-0.18 -2.46,-0.6 -0.6,-0.42 -1.14,-1.02 -1.5,-1.86 -0.36,-0.72 -0.6,-1.74 -0.72,-3 -0.12,-1.26 -0.18,-2.58 -0.18,-4.08 0,-1.62 0.06,-3 0.18,-4.08 0.12,-1.08 0.36,-2.04 0.72,-2.94 0.36,-0.78 0.84,-1.44 1.44,-1.86 0.66,-0.42 1.5,-0.6 2.52,-0.6 0.96,0 1.8,0.18 2.46,0.6 0.6,0.42 1.14,1.02 1.5,1.8 z"
         style="fill:#ff0000;fill-opacity:1;fill-rule:nonzero;stroke:none"
         id="path374" /><path
         inkscape:connector-curvature="0"
         d="m 234.48,190.37 c 0,-4.2 -0.66,-7.26 -1.98,-9.18 -1.32,-1.98 -3.3,-2.94 -6.06,-2.94 -2.82,0 -4.86,0.96 -6.12,2.94 -1.32,1.98 -1.92,5.04 -1.92,9.12 0,4.14 0.6,7.2 1.92,9.18 1.32,1.98 3.36,2.94 6.12,2.94 2.76,0 4.8,-0.96 6.12,-3 1.26,-1.98 1.92,-5.04 1.92,-9.06 z m -4.14,-7.08 c 0.36,0.84 0.6,1.8 0.78,2.94 0.12,1.14 0.18,2.52 0.18,4.14 0,1.56 -0.06,2.94 -0.18,4.14 -0.18,1.14 -0.42,2.16 -0.78,2.94 -0.36,0.84 -0.84,1.44 -1.5,1.8 -0.6,0.42 -1.44,0.66 -2.4,0.66 -1.02,0 -1.8,-0.24 -2.46,-0.66 -0.66,-0.36 -1.14,-1.02 -1.5,-1.8 -0.36,-0.78 -0.6,-1.8 -0.72,-3.06 -0.18,-1.2 -0.24,-2.58 -0.24,-4.08 0,-1.62 0.06,-2.94 0.18,-4.08 0.12,-1.08 0.36,-2.04 0.78,-2.94 0.3,-0.78 0.78,-1.38 1.44,-1.86 0.6,-0.42 1.44,-0.6 2.52,-0.6 0.96,0 1.8,0.18 2.4,0.6 0.66,0.42 1.14,1.02 1.5,1.86 z"
         style="fill:#ff0000;fill-opacity:1;fill-rule:nonzero;stroke:none"
         id="path376" /><path
         inkscape:connector-curvature="0"
         d="m 432.72,112.97 c 0,-4.2 -0.6,-7.26 -1.92,-9.18 -1.32,-1.98 -3.36,-2.94 -6.12,-2.94 -2.76,0 -4.8,0.96 -6.12,2.94 -1.26,1.98 -1.92,5.04 -1.92,9.12 0,4.14 0.66,7.2 1.98,9.18 1.32,1.98 3.3,2.94 6.06,2.94 2.82,0 4.86,-0.96 6.12,-3 1.32,-1.98 1.92,-5.04 1.92,-9.06 z m -4.08,-7.08 c 0.36,0.84 0.6,1.8 0.72,2.94 0.12,1.14 0.24,2.52 0.24,4.14 0,1.56 -0.12,2.94 -0.24,4.14 -0.12,1.14 -0.36,2.16 -0.72,2.94 -0.36,0.84 -0.9,1.44 -1.5,1.8 -0.66,0.42 -1.44,0.66 -2.46,0.66 -0.96,0 -1.74,-0.24 -2.4,-0.66 -0.66,-0.36 -1.14,-1.02 -1.56,-1.8 -0.3,-0.78 -0.6,-1.8 -0.72,-3.06 -0.12,-1.2 -0.18,-2.58 -0.18,-4.08 0,-1.62 0.06,-2.94 0.18,-4.08 0.12,-1.08 0.36,-2.04 0.72,-2.94 0.36,-0.78 0.84,-1.38 1.44,-1.86 0.66,-0.42 1.5,-0.6 2.52,-0.6 1.02,0 1.8,0.18 2.46,0.6 0.66,0.42 1.14,1.02 1.5,1.86 z"
         style="fill:#ff0000;fill-opacity:1;fill-rule:nonzero;stroke:none"
         id="path378" /><path
         inkscape:connector-curvature="0"
         d="m 687.36,199.07 c 0,-4.2 -0.66,-7.26 -1.98,-9.24 -1.32,-1.92 -3.36,-2.88 -6.12,-2.88 -2.76,0 -4.8,0.96 -6.12,2.94 -1.26,1.98 -1.92,5.04 -1.92,9.12 0,4.14 0.66,7.2 1.98,9.18 1.32,1.98 3.3,2.94 6.06,2.94 2.82,0 4.86,-0.96 6.12,-3 1.32,-1.98 1.98,-5.04 1.98,-9.06 z m -4.14,-7.08 c 0.36,0.84 0.6,1.8 0.72,2.94 0.18,1.14 0.24,2.52 0.24,4.14 0,1.56 -0.06,2.94 -0.24,4.14 -0.12,1.14 -0.36,2.1 -0.72,2.94 -0.36,0.78 -0.9,1.38 -1.5,1.8 -0.66,0.42 -1.44,0.6 -2.46,0.6 -0.96,0 -1.74,-0.18 -2.4,-0.6 -0.66,-0.42 -1.14,-1.02 -1.5,-1.8 -0.36,-0.78 -0.6,-1.8 -0.78,-3.06 -0.12,-1.2 -0.18,-2.58 -0.18,-4.08 0,-1.62 0.06,-2.94 0.18,-4.08 0.12,-1.08 0.36,-2.04 0.72,-2.94 0.36,-0.78 0.84,-1.44 1.5,-1.86 0.6,-0.42 1.44,-0.6 2.46,-0.6 1.02,0 1.8,0.18 2.46,0.6 0.66,0.42 1.14,1.02 1.5,1.86 z"
         style="fill:#ff0000;fill-opacity:1;fill-rule:nonzero;stroke:none"
         id="path380" /><path
         inkscape:connector-curvature="0"
         d="m 500.16,196.97 -12.6,0 0,2.4 4.86,0 0,15.6 -4.86,0 0,2.1 c 0.66,0 1.38,0.06 2.1,0.18 0.78,0.12 1.32,0.24 1.68,0.48 0.48,0.24 0.9,0.6 1.14,0.96 0.3,0.42 0.48,0.96 0.48,1.62 l 2.46,0 0,-20.94 4.74,0 0,-2.4 z"
         style="fill:#0000ff;fill-opacity:1;fill-rule:nonzero;stroke:none"
         id="path382" /><path
         inkscape:connector-curvature="0"
         d="m 913.38,185.93 -12.6,0 0,2.34 4.86,0 0,15.6 -4.86,0 0,2.16 c 0.66,0 1.38,0.06 2.1,0.12 0.78,0.12 1.32,0.3 1.74,0.48 0.48,0.3 0.84,0.6 1.08,1.02 0.3,0.42 0.48,0.96 0.54,1.62 l 2.4,0 0,-21 4.74,0 0,-2.34 z"
         style="fill:#0000ff;fill-opacity:1;fill-rule:nonzero;stroke:none"
         id="path384" /><path
         inkscape:connector-curvature="0"
         d="m 278.1,283.73 -12.6,0 0,2.4 4.86,0 0,15.6 -4.86,0 0,2.1 c 0.66,0 1.38,0.06 2.1,0.18 0.78,0.12 1.32,0.24 1.74,0.48 0.48,0.24 0.84,0.6 1.08,0.96 0.3,0.42 0.48,0.96 0.48,1.62 l 2.46,0 0,-20.94 4.74,0 0,-2.4 z"
         style="fill:#0000ff;fill-opacity:1;fill-rule:nonzero;stroke:none"
         id="path386" /><path
         inkscape:connector-curvature="0"
         d="m 725.22,110.93 -12.6,0 0,2.34 4.86,0 0,15.6 -4.86,0 0,2.1 c 0.66,0 1.38,0.06 2.1,0.18 0.78,0.12 1.32,0.3 1.74,0.48 0.48,0.24 0.84,0.6 1.08,0.96 0.3,0.42 0.48,0.96 0.48,1.68 l 2.46,0 0,-21 4.74,0 0,-2.34 z"
         style="fill:#0000ff;fill-opacity:1;fill-rule:nonzero;stroke:none"
         id="path388" /></g></g></svg>