<?xml version="1.0" encoding="UTF-8" standalone="no"?>
<svg
   xmlns:dc="http://purl.org/dc/elements/1.1/"
   xmlns:cc="http://creativecommons.org/ns#"
   xmlns:rdf="http://www.w3.org/1999/02/22-rdf-syntax-ns#"
   xmlns:svg="http://www.w3.org/2000/svg"
   xmlns="http://www.w3.org/2000/svg"
   viewBox="0 0 543.75 207.1875"
   height="207.1875"
   width="543.75"
   xml:space="preserve"
   version="1.1"
   id="svg2"><metadata
     id="metadata8"><rdf:RDF><cc:Work
         rdf:about=""><dc:format>image/svg+xml</dc:format><dc:type
           rdf:resource="http://purl.org/dc/dcmitype/StillImage" /></cc:Work></rdf:RDF></metadata><defs
     id="defs6"><clipPath
       id="clipPath46"
       clipPathUnits="userSpaceOnUse"><path
         style="clip-rule:evenodd"
         id="path48"
         d="m 33.196,81.419 c -7.045,0 -12.756,-5.711 -12.756,-12.756 0,-7.044 5.711,-12.756 12.756,-12.756 7.045,0 12.756,5.712 12.756,12.756 0,7.045 -5.711,12.756 -12.756,12.756 z M 0,165.75 l 435,0 L 435,0 0,0 0,165.75 Z" /></clipPath><clipPath
       id="clipPath70"
       clipPathUnits="userSpaceOnUse"><path
         style="clip-rule:evenodd"
         id="path72"
         d="m 154.68,81.419 c -7.04,0 -12.76,-5.711 -12.76,-12.756 0,-7.044 5.72,-12.756 12.76,-12.756 7.05,0 12.76,5.712 12.76,12.756 0,7.045 -5.71,12.756 -12.76,12.756 z M 0,165.75 l 435,0 L 435,0 0,0 0,165.75 Z" /></clipPath><clipPath
       id="clipPath94"
       clipPathUnits="userSpaceOnUse"><path
         style="clip-rule:evenodd"
         id="path96"
         d="m 316.66,81.419 c -7.04,0 -12.76,-5.711 -12.76,-12.756 0,-7.044 5.72,-12.756 12.76,-12.756 7.05,0 12.76,5.712 12.76,12.756 0,7.045 -5.71,12.756 -12.76,12.756 z M 0,165.75 l 435,0 L 435,0 0,0 0,165.75 Z" /></clipPath><clipPath
       id="clipPath118"
       clipPathUnits="userSpaceOnUse"><path
         style="clip-rule:evenodd"
         id="path120"
         d="m 73.691,117.56 c -7.045,0 -12.756,-5.71 -12.756,-12.75 0,-7.05 5.711,-12.761 12.756,-12.761 7.045,0 12.756,5.711 12.756,12.761 0,7.04 -5.711,12.75 -12.756,12.75 z M 0,165.75 l 435,0 L 435,0 0,0 0,165.75 Z" /></clipPath><clipPath
       id="clipPath142"
       clipPathUnits="userSpaceOnUse"><path
         style="clip-rule:evenodd"
         id="path144"
         d="m 114.19,117.56 c -7.05,0 -12.76,-5.71 -12.76,-12.75 0,-7.05 5.71,-12.761 12.76,-12.761 7.04,0 12.75,5.711 12.75,12.761 0,7.04 -5.71,12.75 -12.75,12.75 z M 0,165.75 l 435,0 L 435,0 0,0 0,165.75 Z" /></clipPath><clipPath
       id="clipPath166"
       clipPathUnits="userSpaceOnUse"><path
         style="clip-rule:evenodd"
         id="path168"
         d="m 195.18,117.56 c -7.05,0 -12.76,-5.71 -12.76,-12.75 0,-7.05 5.71,-12.761 12.76,-12.761 7.04,0 12.75,5.711 12.75,12.761 0,7.04 -5.71,12.75 -12.75,12.75 z M 0,165.75 l 435,0 L 435,0 0,0 0,165.75 Z" /></clipPath><clipPath
       id="clipPath190"
       clipPathUnits="userSpaceOnUse"><path
         style="clip-rule:evenodd"
         id="path192"
         d="m 276.17,117.56 c -7.05,0 -12.76,-5.71 -12.76,-12.75 0,-7.05 5.71,-12.761 12.76,-12.761 7.04,0 12.75,5.711 12.75,12.761 0,7.04 -5.71,12.75 -12.75,12.75 z M 0,165.75 l 435,0 L 435,0 0,0 0,165.75 Z" /></clipPath><clipPath
       id="clipPath214"
       clipPathUnits="userSpaceOnUse"><path
         style="clip-rule:evenodd"
         id="path216"
         d="m 235.67,117.56 c -7.04,0 -12.76,-5.71 -12.76,-12.75 0,-7.05 5.72,-12.761 12.76,-12.761 7.05,0 12.76,5.711 12.76,12.761 0,7.04 -5.71,12.75 -12.76,12.75 z M 0,165.75 l 435,0 L 435,0 0,0 0,165.75 Z" /></clipPath><clipPath
       id="clipPath254"
       clipPathUnits="userSpaceOnUse"><path
         style="clip-rule:evenodd"
         id="path256"
         d="m 93.938,45.278 c -7.045,0 -12.756,-5.711 -12.756,-12.756 0,-7.045 5.711,-12.756 12.756,-12.756 7.042,0 12.752,5.711 12.752,12.756 0,7.045 -5.71,12.756 -12.752,12.756 z M 0,165.75 l 435,0 L 435,0 0,0 0,165.75 Z" /></clipPath><clipPath
       id="clipPath278"
       clipPathUnits="userSpaceOnUse"><path
         style="clip-rule:evenodd"
         id="path280"
         d="m 235.67,45.278 c -7.04,0 -12.76,-5.711 -12.76,-12.756 0,-7.045 5.72,-12.756 12.76,-12.756 7.05,0 12.76,5.711 12.76,12.756 0,7.045 -5.71,12.756 -12.76,12.756 z M 0,165.75 l 435,0 L 435,0 0,0 0,165.75 Z" /></clipPath></defs><g
     transform="matrix(1.25,0,0,-1.25,0,207.1875)"
     id="g10"><path
       id="path12"
       style="fill:none;stroke:#404040;stroke-width:1;stroke-linecap:round;stroke-linejoin:round;stroke-miterlimit:10;stroke-dasharray:none;stroke-opacity:1"
       d="m 31.756,82.859 c 0,5.847 0,14.409 4.994,19.141 l -0.036,-0.35 c 4.222,3.73 12.039,4.43 18.786,4.85" /><path
       id="path14"
       style="fill:#404040;fill-opacity:1;fill-rule:evenodd;stroke:none"
       d="m 59.25,106.5 -5.25,-3 -0.085,-0.1 c 0.869,1.77 0.854,3.85 -0.04,5.6 L 54,108.75 59.25,106.5 Z" /><path
       id="path16"
       style="fill:none;stroke:#404040;stroke-width:1;stroke-linecap:round;stroke-linejoin:round;stroke-miterlimit:10;stroke-dasharray:none;stroke-opacity:1"
       d="m 125.5,106.25 c 2.86,-0.3 8,-5.28 17.75,-22.25" /><path
       id="path18"
       style="fill:#404040;fill-opacity:1;fill-rule:evenodd;stroke:none"
       d="m 145.5,80.25 -5.25,3 -0.11,0.373 c 1.97,0.09 3.78,1.102 4.89,2.731 l -0.28,-0.104 0.75,-6 z" /><path
       id="path20"
       style="fill:none;stroke:#404040;stroke-width:1;stroke-linecap:round;stroke-linejoin:round;stroke-miterlimit:10;stroke-dasharray:none;stroke-opacity:1"
       d="m 31.756,57.347 c 0,-5.846 0,-13.853 7.244,-18.347 l 0.257,0.142 C 47.198,34.535 63.544,34.025 75.75,33.75" /><path
       id="path22"
       style="fill:#404040;fill-opacity:1;fill-rule:evenodd;stroke:none"
       d="M 79.5,33.75 74.25,31.5 74.138,31.171 c 0.884,1.761 0.888,3.836 0.009,5.6 l 0.103,-0.021 5.25,-3 z" /><path
       id="path24"
       style="fill:none;stroke:#404040;stroke-width:1;stroke-linecap:round;stroke-linejoin:round;stroke-miterlimit:10;stroke-dasharray:none;stroke-opacity:1"
       d="m 105.25,33.962 c 19.05,0.775 26.43,2.085 38,23.038" /><path
       id="path26"
       style="fill:#404040;fill-opacity:1;fill-rule:evenodd;stroke:none"
       d="m 144.75,60.75 0,-6.75 0.06,0.139 c -1.14,1.605 -2.98,2.578 -4.95,2.626 L 139.5,57 l 5.25,3.75 z" /><path
       id="path28"
       style="fill:none;stroke:#404040;stroke-width:1;stroke-linecap:round;stroke-linejoin:round;stroke-miterlimit:10;stroke-dasharray:none;stroke-opacity:1"
       d="m 158.3,81.811 c 4.77,13.621 8.21,21.849 18.7,23.939" /><path
       id="path30"
       style="fill:#404040;fill-opacity:1;fill-rule:evenodd;stroke:none"
       d="m 180.75,106.5 -5.25,-3.75 0.24,0.06 c 0.67,1.85 0.43,3.92 -0.65,5.56 l -0.34,-0.37 6,-1.5 z" /><path
       id="path32"
       style="fill:none;stroke:#404040;stroke-width:1;stroke-linecap:round;stroke-linejoin:round;stroke-miterlimit:10;stroke-dasharray:none;stroke-opacity:1"
       d="m 160.66,59.73 c 7.08,-21.56 3.07,-25.574 56.84,-25.98" /><path
       id="path34"
       style="fill:#404040;fill-opacity:1;fill-rule:evenodd;stroke:none"
       d="M 221.25,33.75 216,31.5 215.87,31.171 c 0.88,1.761 0.89,3.836 0.01,5.6 l 0.12,-0.021 5.25,-3 z" /><path
       id="path36"
       style="fill:none;stroke:#404040;stroke-width:1;stroke-linecap:round;stroke-linejoin:round;stroke-miterlimit:10;stroke-dasharray:none;stroke-opacity:1"
       d="m 246.99,33.962 c 46.79,0.747 50.92,10.24 59.01,22.288" /><path
       id="path38"
       style="fill:#404040;fill-opacity:1;fill-rule:evenodd;stroke:none"
       d="m 308.25,59.25 -0.75,-6 -0.3,0.102 c -0.96,1.722 -2.67,2.892 -4.62,3.158 l -0.33,-0.26 6,3 z" /><path
       id="path40"
       style="fill:#cdcdcd;fill-opacity:0.49803999;fill-rule:evenodd;stroke:none"
       d="m 20.44,68.663 c 0,7.045 5.711,12.756 12.756,12.756 7.045,0 12.756,-5.711 12.756,-12.756 0,0 0,0 0,0 0,-7.045 -5.711,-12.756 -12.756,-12.756 -7.045,0 -12.756,5.711 -12.756,12.756 z" /><g
       id="g42"><g
         clip-path="url(#clipPath46)"
         id="g44"><path
           id="path50"
           style="fill:none;stroke:#cdcdcd;stroke-width:1;stroke-linecap:round;stroke-linejoin:round;stroke-miterlimit:10;stroke-dasharray:none;stroke-opacity:0.49803999"
           d="m 20.44,68.663 c 0,7.045 5.711,12.756 12.756,12.756 7.045,0 12.756,-5.711 12.756,-12.756 0,0 0,0 0,0 0,-7.045 -5.711,-12.756 -12.756,-12.756 -7.045,0 -12.756,5.711 -12.756,12.756" /></g></g><path
       id="path52"
       style="fill:#d9e7fb;fill-opacity:1;fill-rule:evenodd;stroke:none"
       d="m 19,70.103 c 0,7.045 5.711,12.756 12.756,12.756 7.045,0 12.756,-5.711 12.756,-12.756 0,0 0,0 0,0 0,-7.044 -5.711,-12.756 -12.756,-12.756 C 24.711,57.347 19,63.058 19,70.103 Z" /><path
       id="path54"
       style="fill:none;stroke:#3f51b5;stroke-width:1;stroke-linecap:round;stroke-linejoin:round;stroke-miterlimit:10;stroke-dasharray:none;stroke-opacity:1"
       d="m 19,70.103 c 0,7.045 5.711,12.756 12.756,12.756 7.045,0 12.756,-5.711 12.756,-12.756 0,0 0,0 0,0 0,-7.044 -5.711,-12.756 -12.756,-12.756 C 24.711,57.347 19,63.058 19,70.103 Z" /><text
       id="text56"
       style="font-variant:normal;font-weight:normal;font-size:7.99991989px;font-family:Arial;-inkscape-font-specification:Arial;writing-mode:lr-tb;fill:#000000;fill-opacity:1;fill-rule:nonzero;stroke:none"
       transform="matrix(1,0,0,-1,27.307,67.703)"><tspan
         id="tspan58"
         y="0"
         x="0">n</tspan></text>
<text
       id="text60"
       style="font-variant:normal;font-weight:normal;font-size:7.99991989px;font-family:Arial;-inkscape-font-specification:Arial;writing-mode:lr-tb;fill:#000000;fill-opacity:1;fill-rule:nonzero;stroke:none"
       transform="matrix(1,0,0,-1,31.756,67.703)"><tspan
         id="tspan62"
         y="0"
         x="0">1</tspan></text>
<path
       id="path64"
       style="fill:#cdcdcd;fill-opacity:0.49803999;fill-rule:evenodd;stroke:none"
       d="m 141.92,68.663 c 0,7.045 5.72,12.756 12.76,12.756 7.05,0 12.76,-5.711 12.76,-12.756 0,0 0,0 0,0 0,-7.045 -5.71,-12.756 -12.76,-12.756 -7.04,0 -12.76,5.711 -12.76,12.756 z" /><g
       id="g66"><g
         clip-path="url(#clipPath70)"
         id="g68"><path
           id="path74"
           style="fill:none;stroke:#cdcdcd;stroke-width:1;stroke-linecap:round;stroke-linejoin:round;stroke-miterlimit:10;stroke-dasharray:none;stroke-opacity:0.49803999"
           d="m 141.92,68.663 c 0,7.045 5.72,12.756 12.76,12.756 7.05,0 12.76,-5.711 12.76,-12.756 0,0 0,0 0,0 0,-7.045 -5.71,-12.756 -12.76,-12.756 -7.04,0 -12.76,5.711 -12.76,12.756" /></g></g><path
       id="path76"
       style="fill:#ffffff;fill-opacity:1;fill-rule:evenodd;stroke:none"
       d="m 140.48,70.103 c 0,7.045 5.72,12.756 12.76,12.756 7.05,0 12.76,-5.711 12.76,-12.756 0,0 0,0 0,0 0,-7.044 -5.71,-12.756 -12.76,-12.756 -7.04,0 -12.76,5.711 -12.76,12.756 z" /><path
       id="path78"
       style="fill:none;stroke:#404040;stroke-width:1;stroke-linecap:round;stroke-linejoin:round;stroke-miterlimit:10;stroke-dasharray:none;stroke-opacity:1"
       d="m 140.48,70.103 c 0,7.045 5.72,12.756 12.76,12.756 7.05,0 12.76,-5.711 12.76,-12.756 0,0 0,0 0,0 0,-7.044 -5.71,-12.756 -12.76,-12.756 -7.04,0 -12.76,5.711 -12.76,12.756 z" /><text
       id="text80"
       style="font-variant:normal;font-weight:normal;font-size:7.99991989px;font-family:Arial;-inkscape-font-specification:Arial;writing-mode:lr-tb;fill:#000000;fill-opacity:1;fill-rule:nonzero;stroke:none"
       transform="matrix(1,0,0,-1,148.79,67.703)"><tspan
         id="tspan82"
         y="0"
         x="0">n</tspan></text>
<text
       id="text84"
       style="font-variant:normal;font-weight:normal;font-size:7.99991989px;font-family:Arial;-inkscape-font-specification:Arial;writing-mode:lr-tb;fill:#000000;fill-opacity:1;fill-rule:nonzero;stroke:none"
       transform="matrix(1,0,0,-1,153.24,67.703)"><tspan
         id="tspan86"
         y="0"
         x="0">5</tspan></text>
<path
       id="path88"
       style="fill:#cdcdcd;fill-opacity:0.49803999;fill-rule:evenodd;stroke:none"
       d="m 303.9,68.663 c 0,7.045 5.72,12.756 12.76,12.756 7.05,0 12.76,-5.711 12.76,-12.756 0,0 0,0 0,0 0,-7.045 -5.71,-12.756 -12.76,-12.756 -7.04,0 -12.76,5.711 -12.76,12.756 z" /><g
       id="g90"><g
         clip-path="url(#clipPath94)"
         id="g92"><path
           id="path98"
           style="fill:none;stroke:#cdcdcd;stroke-width:1;stroke-linecap:round;stroke-linejoin:round;stroke-miterlimit:10;stroke-dasharray:none;stroke-opacity:0.49803999"
           d="m 303.9,68.663 c 0,7.045 5.72,12.756 12.76,12.756 7.05,0 12.76,-5.711 12.76,-12.756 0,0 0,0 0,0 0,-7.045 -5.71,-12.756 -12.76,-12.756 -7.04,0 -12.76,5.711 -12.76,12.756" /></g></g><path
       id="path100"
       style="fill:#ffffff;fill-opacity:1;fill-rule:evenodd;stroke:none"
       d="m 302.46,70.103 c 0,7.045 5.72,12.756 12.76,12.756 7.05,0 12.76,-5.711 12.76,-12.756 0,0 0,0 0,0 0,-7.044 -5.71,-12.756 -12.76,-12.756 -7.04,0 -12.76,5.711 -12.76,12.756 z" /><path
       id="path102"
       style="fill:none;stroke:#404040;stroke-width:1;stroke-linecap:round;stroke-linejoin:round;stroke-miterlimit:10;stroke-dasharray:none;stroke-opacity:1"
       d="m 302.46,70.103 c 0,7.045 5.72,12.756 12.76,12.756 7.05,0 12.76,-5.711 12.76,-12.756 0,0 0,0 0,0 0,-7.044 -5.71,-12.756 -12.76,-12.756 -7.04,0 -12.76,5.711 -12.76,12.756 z" /><text
       id="text104"
       style="font-variant:normal;font-weight:normal;font-size:7.99991989px;font-family:Arial;-inkscape-font-specification:Arial;writing-mode:lr-tb;fill:#000000;fill-opacity:1;fill-rule:nonzero;stroke:none"
       transform="matrix(1,0,0,-1,308.55,67.703)"><tspan
         id="tspan106"
         y="0"
         x="0">n</tspan></text>
<text
       id="text108"
       style="font-variant:normal;font-weight:normal;font-size:7.99991989px;font-family:Arial;-inkscape-font-specification:Arial;writing-mode:lr-tb;fill:#000000;fill-opacity:1;fill-rule:nonzero;stroke:none"
       transform="matrix(1,0,0,-1,313,67.703)"><tspan
         id="tspan110"
         y="0"
         x="0 4.4491682">10</tspan></text>
<path
       id="path112"
       style="fill:#cdcdcd;fill-opacity:0.49803999;fill-rule:evenodd;stroke:none"
       d="m 60.935,104.81 c 0,7.04 5.711,12.75 12.756,12.75 7.045,0 12.756,-5.71 12.756,-12.75 0,0 0,0 0,0 0,-7.05 -5.711,-12.761 -12.756,-12.761 -7.045,0 -12.756,5.711 -12.756,12.761 z" /><g
       id="g114"><g
         clip-path="url(#clipPath118)"
         id="g116"><path
           id="path122"
           style="fill:none;stroke:#cdcdcd;stroke-width:1;stroke-linecap:round;stroke-linejoin:round;stroke-miterlimit:10;stroke-dasharray:none;stroke-opacity:0.49803999"
           d="m 60.935,104.81 c 0,7.04 5.711,12.75 12.756,12.75 7.045,0 12.756,-5.71 12.756,-12.75 0,0 0,0 0,0 0,-7.05 -5.711,-12.761 -12.756,-12.761 -7.045,0 -12.756,5.711 -12.756,12.761" /></g></g><path
       id="path124"
       style="fill:#ffffff;fill-opacity:1;fill-rule:evenodd;stroke:none"
       d="m 59.495,106.25 c 0,7.04 5.711,12.75 12.756,12.75 7.045,0 12.756,-5.71 12.756,-12.75 0,0 0,0 0,0 0,-7.05 -5.711,-12.761 -12.756,-12.761 -7.045,0 -12.756,5.711 -12.756,12.761 z" /><path
       id="path126"
       style="fill:none;stroke:#404040;stroke-width:1;stroke-linecap:round;stroke-linejoin:round;stroke-miterlimit:10;stroke-dasharray:none;stroke-opacity:1"
       d="m 59.495,106.25 c 0,7.04 5.711,12.75 12.756,12.75 7.045,0 12.756,-5.71 12.756,-12.75 0,0 0,0 0,0 0,-7.05 -5.711,-12.761 -12.756,-12.761 -7.045,0 -12.756,5.711 -12.756,12.761 z" /><text
       id="text128"
       style="font-variant:normal;font-weight:normal;font-size:7.99991989px;font-family:Arial;-inkscape-font-specification:Arial;writing-mode:lr-tb;fill:#000000;fill-opacity:1;fill-rule:nonzero;stroke:none"
       transform="matrix(1,0,0,-1,67.802,103.85)"><tspan
         id="tspan130"
         y="0"
         x="0">n</tspan></text>
<text
       id="text132"
       style="font-variant:normal;font-weight:normal;font-size:7.99991989px;font-family:Arial;-inkscape-font-specification:Arial;writing-mode:lr-tb;fill:#000000;fill-opacity:1;fill-rule:nonzero;stroke:none"
       transform="matrix(1,0,0,-1,72.251,103.85)"><tspan
         id="tspan134"
         y="0"
         x="0">2</tspan></text>
<path
       id="path136"
       style="fill:#cdcdcd;fill-opacity:0.49803999;fill-rule:evenodd;stroke:none"
       d="m 101.43,104.81 c 0,7.04 5.71,12.75 12.76,12.75 7.04,0 12.75,-5.71 12.75,-12.75 0,0 0,0 0,0 0,-7.05 -5.71,-12.761 -12.75,-12.761 -7.05,0 -12.76,5.711 -12.76,12.761 z" /><g
       id="g138"><g
         clip-path="url(#clipPath142)"
         id="g140"><path
           id="path146"
           style="fill:none;stroke:#cdcdcd;stroke-width:1;stroke-linecap:round;stroke-linejoin:round;stroke-miterlimit:10;stroke-dasharray:none;stroke-opacity:0.49803999"
           d="m 101.43,104.81 c 0,7.04 5.71,12.75 12.76,12.75 7.04,0 12.75,-5.71 12.75,-12.75 0,0 0,0 0,0 0,-7.05 -5.71,-12.761 -12.75,-12.761 -7.05,0 -12.76,5.711 -12.76,12.761" /></g></g><path
       id="path148"
       style="fill:#ffffff;fill-opacity:1;fill-rule:evenodd;stroke:none"
       d="m 99.99,106.25 c 0,7.04 5.71,12.75 12.76,12.75 7.04,0 12.75,-5.71 12.75,-12.75 0,0 0,0 0,0 0,-7.05 -5.71,-12.761 -12.75,-12.761 -7.05,0 -12.76,5.711 -12.76,12.761 z" /><path
       id="path150"
       style="fill:none;stroke:#404040;stroke-width:1;stroke-linecap:round;stroke-linejoin:round;stroke-miterlimit:10;stroke-dasharray:none;stroke-opacity:1"
       d="m 99.99,106.25 c 0,7.04 5.71,12.75 12.76,12.75 7.04,0 12.75,-5.71 12.75,-12.75 0,0 0,0 0,0 0,-7.05 -5.71,-12.761 -12.75,-12.761 -7.05,0 -12.76,5.711 -12.76,12.761 z" /><text
       id="text152"
       style="font-variant:normal;font-weight:normal;font-size:7.99991989px;font-family:Arial;-inkscape-font-specification:Arial;writing-mode:lr-tb;fill:#000000;fill-opacity:1;fill-rule:nonzero;stroke:none"
       transform="matrix(1,0,0,-1,108.3,103.85)"><tspan
         id="tspan154"
         y="0"
         x="0">n</tspan></text>
<text
       id="text156"
       style="font-variant:normal;font-weight:normal;font-size:7.99991989px;font-family:Arial;-inkscape-font-specification:Arial;writing-mode:lr-tb;fill:#000000;fill-opacity:1;fill-rule:nonzero;stroke:none"
       transform="matrix(1,0,0,-1,112.75,103.85)"><tspan
         id="tspan158"
         y="0"
         x="0">3</tspan></text>
<path
       id="path160"
       style="fill:#cdcdcd;fill-opacity:0.49803999;fill-rule:evenodd;stroke:none"
       d="m 182.42,104.81 c 0,7.04 5.71,12.75 12.76,12.75 7.04,0 12.75,-5.71 12.75,-12.75 0,0 0,0 0,0 0,-7.05 -5.71,-12.761 -12.75,-12.761 -7.05,0 -12.76,5.711 -12.76,12.761 z" /><g
       id="g162"><g
         clip-path="url(#clipPath166)"
         id="g164"><path
           id="path170"
           style="fill:none;stroke:#cdcdcd;stroke-width:1;stroke-linecap:round;stroke-linejoin:round;stroke-miterlimit:10;stroke-dasharray:none;stroke-opacity:0.49803999"
           d="m 182.42,104.81 c 0,7.04 5.71,12.75 12.76,12.75 7.04,0 12.75,-5.71 12.75,-12.75 0,0 0,0 0,0 0,-7.05 -5.71,-12.761 -12.75,-12.761 -7.05,0 -12.76,5.711 -12.76,12.761" /></g></g><path
       id="path172"
       style="fill:#ffffff;fill-opacity:1;fill-rule:evenodd;stroke:none"
       d="m 180.98,106.25 c 0,7.04 5.71,12.75 12.76,12.75 7.04,0 12.75,-5.71 12.75,-12.75 0,0 0,0 0,0 0,-7.05 -5.71,-12.761 -12.75,-12.761 -7.05,0 -12.76,5.711 -12.76,12.761 z" /><path
       id="path174"
       style="fill:none;stroke:#404040;stroke-width:1;stroke-linecap:round;stroke-linejoin:round;stroke-miterlimit:10;stroke-dasharray:none;stroke-opacity:1"
       d="m 180.98,106.25 c 0,7.04 5.71,12.75 12.76,12.75 7.04,0 12.75,-5.71 12.75,-12.75 0,0 0,0 0,0 0,-7.05 -5.71,-12.761 -12.75,-12.761 -7.05,0 -12.76,5.711 -12.76,12.761 z" /><text
       id="text176"
       style="font-variant:normal;font-weight:normal;font-size:7.99991989px;font-family:Arial;-inkscape-font-specification:Arial;writing-mode:lr-tb;fill:#000000;fill-opacity:1;fill-rule:nonzero;stroke:none"
       transform="matrix(1,0,0,-1,189.29,103.85)"><tspan
         id="tspan178"
         y="0"
         x="0">n</tspan></text>
<text
       id="text180"
       style="font-variant:normal;font-weight:normal;font-size:7.99991989px;font-family:Arial;-inkscape-font-specification:Arial;writing-mode:lr-tb;fill:#000000;fill-opacity:1;fill-rule:nonzero;stroke:none"
       transform="matrix(1,0,0,-1,193.74,103.85)"><tspan
         id="tspan182"
         y="0"
         x="0">6</tspan></text>
<path
       id="path184"
       style="fill:#cdcdcd;fill-opacity:0.49803999;fill-rule:evenodd;stroke:none"
       d="m 263.41,104.81 c 0,7.04 5.71,12.75 12.76,12.75 7.04,0 12.75,-5.71 12.75,-12.75 0,0 0,0 0,0 0,-7.05 -5.71,-12.761 -12.75,-12.761 -7.05,0 -12.76,5.711 -12.76,12.761 z" /><g
       id="g186"><g
         clip-path="url(#clipPath190)"
         id="g188"><path
           id="path194"
           style="fill:none;stroke:#cdcdcd;stroke-width:1;stroke-linecap:round;stroke-linejoin:round;stroke-miterlimit:10;stroke-dasharray:none;stroke-opacity:0.49803999"
           d="m 263.41,104.81 c 0,7.04 5.71,12.75 12.76,12.75 7.04,0 12.75,-5.71 12.75,-12.75 0,0 0,0 0,0 0,-7.05 -5.71,-12.761 -12.75,-12.761 -7.05,0 -12.76,5.711 -12.76,12.761" /></g></g><path
       id="path196"
       style="fill:#ffffff;fill-opacity:1;fill-rule:evenodd;stroke:none"
       d="m 261.97,106.25 c 0,7.04 5.71,12.75 12.76,12.75 7.04,0 12.75,-5.71 12.75,-12.75 0,0 0,0 0,0 0,-7.05 -5.71,-12.761 -12.75,-12.761 -7.05,0 -12.76,5.711 -12.76,12.761 z" /><path
       id="path198"
       style="fill:none;stroke:#404040;stroke-width:1;stroke-linecap:round;stroke-linejoin:round;stroke-miterlimit:10;stroke-dasharray:none;stroke-opacity:1"
       d="m 261.97,106.25 c 0,7.04 5.71,12.75 12.76,12.75 7.04,0 12.75,-5.71 12.75,-12.75 0,0 0,0 0,0 0,-7.05 -5.71,-12.761 -12.75,-12.761 -7.05,0 -12.76,5.711 -12.76,12.761 z" /><text
       id="text200"
       style="font-variant:normal;font-weight:normal;font-size:7.99991989px;font-family:Arial;-inkscape-font-specification:Arial;writing-mode:lr-tb;fill:#000000;fill-opacity:1;fill-rule:nonzero;stroke:none"
       transform="matrix(1,0,0,-1,270.28,103.85)"><tspan
         id="tspan202"
         y="0"
         x="0">n</tspan></text>
<text
       id="text204"
       style="font-variant:normal;font-weight:normal;font-size:7.99991989px;font-family:Arial;-inkscape-font-specification:Arial;writing-mode:lr-tb;fill:#000000;fill-opacity:1;fill-rule:nonzero;stroke:none"
       transform="matrix(1,0,0,-1,274.73,103.85)"><tspan
         id="tspan206"
         y="0"
         x="0">8</tspan></text>
<path
       id="path208"
       style="fill:#cdcdcd;fill-opacity:0.49803999;fill-rule:evenodd;stroke:none"
       d="m 222.91,104.81 c 0,7.04 5.72,12.75 12.76,12.75 7.05,0 12.76,-5.71 12.76,-12.75 0,0 0,0 0,0 0,-7.05 -5.71,-12.761 -12.76,-12.761 -7.04,0 -12.76,5.711 -12.76,12.761 z" /><g
       id="g210"><g
         clip-path="url(#clipPath214)"
         id="g212"><path
           id="path218"
           style="fill:none;stroke:#cdcdcd;stroke-width:1;stroke-linecap:round;stroke-linejoin:round;stroke-miterlimit:10;stroke-dasharray:none;stroke-opacity:0.49803999"
           d="m 222.91,104.81 c 0,7.04 5.72,12.75 12.76,12.75 7.05,0 12.76,-5.71 12.76,-12.75 0,0 0,0 0,0 0,-7.05 -5.71,-12.761 -12.76,-12.761 -7.04,0 -12.76,5.711 -12.76,12.761" /></g></g><path
       id="path220"
       style="fill:#ffffff;fill-opacity:1;fill-rule:evenodd;stroke:none"
       d="m 221.47,106.25 c 0,7.04 5.72,12.75 12.76,12.75 7.05,0 12.76,-5.71 12.76,-12.75 0,0 0,0 0,0 0,-7.05 -5.71,-12.761 -12.76,-12.761 -7.04,0 -12.76,5.711 -12.76,12.761 z" /><path
       id="path222"
       style="fill:none;stroke:#404040;stroke-width:1;stroke-linecap:round;stroke-linejoin:round;stroke-miterlimit:10;stroke-dasharray:none;stroke-opacity:1"
       d="m 221.47,106.25 c 0,7.04 5.72,12.75 12.76,12.75 7.05,0 12.76,-5.71 12.76,-12.75 0,0 0,0 0,0 0,-7.05 -5.71,-12.761 -12.76,-12.761 -7.04,0 -12.76,5.711 -12.76,12.761 z" /><text
       id="text224"
       style="font-variant:normal;font-weight:normal;font-size:7.99991989px;font-family:Arial;-inkscape-font-specification:Arial;writing-mode:lr-tb;fill:#000000;fill-opacity:1;fill-rule:nonzero;stroke:none"
       transform="matrix(1,0,0,-1,229.78,103.85)"><tspan
         id="tspan226"
         y="0"
         x="0">n</tspan></text>
<text
       id="text228"
       style="font-variant:normal;font-weight:normal;font-size:7.99991989px;font-family:Arial;-inkscape-font-specification:Arial;writing-mode:lr-tb;fill:#000000;fill-opacity:1;fill-rule:nonzero;stroke:none"
       transform="matrix(1,0,0,-1,234.23,103.85)"><tspan
         id="tspan230"
         y="0"
         x="0">7</tspan></text>
<path
       id="path232"
       style="fill:none;stroke:#404040;stroke-width:1;stroke-linecap:round;stroke-linejoin:round;stroke-miterlimit:10;stroke-dasharray:none;stroke-opacity:1"
       d="m 84.75,106.5 11.25,0" /><path
       id="path234"
       style="fill:#404040;fill-opacity:1;fill-rule:evenodd;stroke:none"
       d="m 99.75,106.5 -5.25,-3 -0.11,-0.05 c 0.881,1.76 0.881,3.83 0,5.6 l 0.11,-0.3 5.25,-2.25 z" /><path
       id="path236"
       style="fill:none;stroke:#404040;stroke-width:1;stroke-linecap:round;stroke-linejoin:round;stroke-miterlimit:10;stroke-dasharray:none;stroke-opacity:1"
       d="m 206.25,106.5 11.25,0" /><path
       id="path238"
       style="fill:#404040;fill-opacity:1;fill-rule:evenodd;stroke:none"
       d="m 221.25,106.5 -5.25,-3 -0.13,-0.05 c 0.89,1.76 0.89,3.83 0,5.6 l 0.13,-0.3 5.25,-2.25 z" /><path
       id="path240"
       style="fill:none;stroke:#404040;stroke-width:1;stroke-linecap:round;stroke-linejoin:round;stroke-miterlimit:10;stroke-dasharray:none;stroke-opacity:1"
       d="m 246.75,106.5 11.25,0" /><path
       id="path242"
       style="fill:#404040;fill-opacity:1;fill-rule:evenodd;stroke:none"
       d="m 261.75,106.5 -5.25,-3 -0.13,-0.05 c 0.88,1.76 0.88,3.83 0,5.6 l 0.13,-0.3 5.25,-2.25 z" /><path
       id="path244"
       style="fill:none;stroke:#404040;stroke-width:1;stroke-linecap:round;stroke-linejoin:round;stroke-miterlimit:10;stroke-dasharray:none;stroke-opacity:1"
       d="m 287.48,106.25 c 9.59,0 14.15,-9.708 20.02,-21.5" /><path
       id="path246"
       style="fill:#404040;fill-opacity:1;fill-rule:evenodd;stroke:none"
       d="m 309,81 -5.25,3.75 0.27,0.301 c 1.97,-0.028 3.84,0.874 5.04,2.434 L 309,87.75 309,81 Z" /><path
       id="path248"
       style="fill:#cdcdcd;fill-opacity:0.49803999;fill-rule:evenodd;stroke:none"
       d="m 81.182,32.522 c 0,7.045 5.711,12.756 12.756,12.756 7.042,0 12.752,-5.711 12.752,-12.756 0,0 0,0 0,0 0,-7.045 -5.71,-12.756 -12.752,-12.756 -7.045,0 -12.756,5.711 -12.756,12.756 z" /><g
       id="g250"><g
         clip-path="url(#clipPath254)"
         id="g252"><path
           id="path258"
           style="fill:none;stroke:#cdcdcd;stroke-width:1;stroke-linecap:round;stroke-linejoin:round;stroke-miterlimit:10;stroke-dasharray:none;stroke-opacity:0.49803999"
           d="m 81.182,32.522 c 0,7.045 5.711,12.756 12.756,12.756 7.042,0 12.752,-5.711 12.752,-12.756 0,0 0,0 0,0 0,-7.045 -5.71,-12.756 -12.752,-12.756 -7.045,0 -12.756,5.711 -12.756,12.756" /></g></g><path
       id="path260"
       style="fill:#ffffff;fill-opacity:1;fill-rule:evenodd;stroke:none"
       d="m 79.742,33.962 c 0,7.045 5.711,12.756 12.756,12.756 7.045,0 12.752,-5.711 12.752,-12.756 0,0 0,0 0,0 0,-7.045 -5.707,-12.756 -12.752,-12.756 -7.045,0 -12.756,5.711 -12.756,12.756 z" /><path
       id="path262"
       style="fill:none;stroke:#404040;stroke-width:1;stroke-linecap:round;stroke-linejoin:round;stroke-miterlimit:10;stroke-dasharray:none;stroke-opacity:1"
       d="m 79.742,33.962 c 0,7.045 5.711,12.756 12.756,12.756 7.045,0 12.752,-5.711 12.752,-12.756 0,0 0,0 0,0 0,-7.045 -5.707,-12.756 -12.752,-12.756 -7.045,0 -12.756,5.711 -12.756,12.756 z" /><text
       id="text264"
       style="font-variant:normal;font-weight:normal;font-size:7.99991989px;font-family:Arial;-inkscape-font-specification:Arial;writing-mode:lr-tb;fill:#000000;fill-opacity:1;fill-rule:nonzero;stroke:none"
       transform="matrix(1,0,0,-1,88.049,31.562)"><tspan
         id="tspan266"
         y="0"
         x="0">n</tspan></text>
<text
       id="text268"
       style="font-variant:normal;font-weight:normal;font-size:7.99991989px;font-family:Arial;-inkscape-font-specification:Arial;writing-mode:lr-tb;fill:#000000;fill-opacity:1;fill-rule:nonzero;stroke:none"
       transform="matrix(1,0,0,-1,92.498,31.562)"><tspan
         id="tspan270"
         y="0"
         x="0">4</tspan></text>
<path
       id="path272"
       style="fill:#cdcdcd;fill-opacity:0.49803999;fill-rule:evenodd;stroke:none"
       d="m 222.91,32.522 c 0,7.045 5.72,12.756 12.76,12.756 7.05,0 12.76,-5.711 12.76,-12.756 0,0 0,0 0,0 0,-7.045 -5.71,-12.756 -12.76,-12.756 -7.04,0 -12.76,5.711 -12.76,12.756 z" /><g
       id="g274"><g
         clip-path="url(#clipPath278)"
         id="g276"><path
           id="path282"
           style="fill:none;stroke:#cdcdcd;stroke-width:1;stroke-linecap:round;stroke-linejoin:round;stroke-miterlimit:10;stroke-dasharray:none;stroke-opacity:0.49803999"
           d="m 222.91,32.522 c 0,7.045 5.72,12.756 12.76,12.756 7.05,0 12.76,-5.711 12.76,-12.756 0,0 0,0 0,0 0,-7.045 -5.71,-12.756 -12.76,-12.756 -7.04,0 -12.76,5.711 -12.76,12.756" /></g></g><path
       id="path284"
       style="fill:#ffffff;fill-opacity:1;fill-rule:evenodd;stroke:none"
       d="m 221.47,33.962 c 0,7.045 5.72,12.756 12.76,12.756 7.05,0 12.76,-5.711 12.76,-12.756 0,0 0,0 0,0 0,-7.045 -5.71,-12.756 -12.76,-12.756 -7.04,0 -12.76,5.711 -12.76,12.756 z" /><path
       id="path286"
       style="fill:none;stroke:#404040;stroke-width:1;stroke-linecap:round;stroke-linejoin:round;stroke-miterlimit:10;stroke-dasharray:none;stroke-opacity:1"
       d="m 221.47,33.962 c 0,7.045 5.72,12.756 12.76,12.756 7.05,0 12.76,-5.711 12.76,-12.756 0,0 0,0 0,0 0,-7.045 -5.71,-12.756 -12.76,-12.756 -7.04,0 -12.76,5.711 -12.76,12.756 z" /><text
       id="text288"
       style="font-variant:normal;font-weight:normal;font-size:7.99991989px;font-family:Arial;-inkscape-font-specification:Arial;writing-mode:lr-tb;fill:#000000;fill-opacity:1;fill-rule:nonzero;stroke:none"
       transform="matrix(1,0,0,-1,229.78,31.562)"><tspan
         id="tspan290"
         y="0"
         x="0">n</tspan></text>
<text
       id="text292"
       style="font-variant:normal;font-weight:normal;font-size:7.99991989px;font-family:Arial;-inkscape-font-specification:Arial;writing-mode:lr-tb;fill:#000000;fill-opacity:1;fill-rule:nonzero;stroke:none"
       transform="matrix(1,0,0,-1,234.23,31.562)"><tspan
         id="tspan294"
         y="0"
         x="0">9</tspan></text>
</g></svg>