<?xml version="1.0" encoding="UTF-8" standalone="no"?>
<svg
   xmlns:dc="http://purl.org/dc/elements/1.1/"
   xmlns:cc="http://creativecommons.org/ns#"
   xmlns:rdf="http://www.w3.org/1999/02/22-rdf-syntax-ns#"
   xmlns:svg="http://www.w3.org/2000/svg"
   xmlns="http://www.w3.org/2000/svg"
   viewBox="0 0 366.5625 198.75"
   height="198.75"
   width="366.5625"
   xml:space="preserve"
   version="1.1"
   id="svg2"><metadata
     id="metadata8"><rdf:RDF><cc:Work
         rdf:about=""><dc:format>image/svg+xml</dc:format><dc:type
           rdf:resource="http://purl.org/dc/dcmitype/StillImage" /></cc:Work></rdf:RDF></metadata><defs
     id="defs6"><clipPath
       id="clipPath18"
       clipPathUnits="userSpaceOnUse"><path
         style="clip-rule:evenodd"
         id="path20"
         d="m 108.71,47.851 c -7.83,0 -14.176,-6.345 -14.176,-14.173 0,-7.828 6.346,-14.173 14.176,-14.173 7.82,0 14.17,6.345 14.17,14.173 0,7.828 -6.35,14.173 -14.17,14.173 z M 0,159 293.25,159 293.25,0 0,0 0,159 Z" /></clipPath><clipPath
       id="clipPath42"
       clipPathUnits="userSpaceOnUse"><path
         style="clip-rule:evenodd"
         id="path44"
         d="m 36.424,93.206 c -7.828,0 -14.173,-6.346 -14.173,-14.174 0,-7.827 6.345,-14.173 14.173,-14.173 7.828,0 14.173,6.346 14.173,14.173 0,7.828 -6.346,14.174 -14.173,14.174 z M 0,159 293.25,159 293.25,0 0,0 0,159 Z" /></clipPath><clipPath
       id="clipPath66"
       clipPathUnits="userSpaceOnUse"><path
         style="clip-rule:evenodd"
         id="path68"
         d="m 180.99,93.206 c -7.83,0 -14.17,-6.346 -14.17,-14.174 0,-7.827 6.34,-14.173 14.17,-14.173 7.83,0 14.17,6.346 14.17,14.173 0,7.828 -6.34,14.174 -14.17,14.174 z M 0,159 293.25,159 293.25,0 0,0 0,159 Z" /></clipPath><clipPath
       id="clipPath90"
       clipPathUnits="userSpaceOnUse"><path
         style="clip-rule:evenodd"
         id="path92"
         d="m 73.983,138.56 c -7.828,0 -14.173,-6.35 -14.173,-14.17 0,-7.83 6.345,-14.18 14.173,-14.18 7.828,0 14.173,6.35 14.173,14.18 0,7.82 -6.345,14.17 -14.173,14.17 z M 0,159 293.25,159 293.25,0 0,0 0,159 Z" /></clipPath><clipPath
       id="clipPath114"
       clipPathUnits="userSpaceOnUse"><path
         style="clip-rule:evenodd"
         id="path116"
         d="m 143.43,138.56 c -7.83,0 -14.17,-6.35 -14.17,-14.17 0,-7.83 6.34,-14.18 14.17,-14.18 7.83,0 14.17,6.35 14.17,14.18 0,7.82 -6.34,14.17 -14.17,14.17 z M 0,159 293.25,159 293.25,0 0,0 0,159 Z" /></clipPath></defs><g
     transform="matrix(1.25,0,0,-1.25,0,198.75)"
     id="g10"><path
       id="path12"
       style="fill:#cdcdcd;fill-opacity:0.49803999;fill-rule:evenodd;stroke:none"
       d="m 94.534,33.678 c 0,7.828 6.346,14.173 14.176,14.173 7.82,0 14.17,-6.345 14.17,-14.173 0,0 0,0 0,0 0,-7.828 -6.35,-14.173 -14.17,-14.173 -7.83,0 -14.176,6.345 -14.176,14.173 z" /><g
       id="g14"><g
         clip-path="url(#clipPath18)"
         id="g16"><path
           id="path22"
           style="fill:none;stroke:#cdcdcd;stroke-width:1;stroke-linecap:round;stroke-linejoin:round;stroke-miterlimit:10;stroke-dasharray:none;stroke-opacity:0.49803999"
           d="m 94.534,33.678 c 0,7.828 6.346,14.173 14.176,14.173 7.82,0 14.17,-6.345 14.17,-14.173 0,0 0,0 0,0 0,-7.828 -6.35,-14.173 -14.17,-14.173 -7.83,0 -14.176,6.345 -14.176,14.173" /></g></g><path
       id="path24"
       style="fill:#ffffff;fill-opacity:1;fill-rule:evenodd;stroke:none"
       d="m 93.094,35.118 c 0,7.828 6.346,14.173 14.176,14.173 7.82,0 14.17,-6.345 14.17,-14.173 0,0 0,0 0,0 0,-7.828 -6.35,-14.173 -14.17,-14.173 -7.83,0 -14.176,6.345 -14.176,14.173 z" /><path
       id="path26"
       style="fill:none;stroke:#404040;stroke-width:1;stroke-linecap:round;stroke-linejoin:round;stroke-miterlimit:10;stroke-dasharray:none;stroke-opacity:1"
       d="m 93.094,35.118 c 0,7.828 6.346,14.173 14.176,14.173 7.82,0 14.17,-6.345 14.17,-14.173 0,0 0,0 0,0 0,-7.828 -6.35,-14.173 -14.17,-14.173 -7.83,0 -14.176,6.345 -14.176,14.173 z" /><text
       id="text28"
       style="font-variant:normal;font-weight:normal;font-size:7.99991989px;font-family:Arial;-inkscape-font-specification:Arial;writing-mode:lr-tb;fill:#000000;fill-opacity:1;fill-rule:nonzero;stroke:none"
       transform="matrix(1,0,0,-1,102.82,32.718)"><tspan
         id="tspan30"
         y="0"
         x="0">n</tspan></text>
<text
       id="text32"
       style="font-variant:normal;font-weight:normal;font-size:7.99991989px;font-family:Arial;-inkscape-font-specification:Arial;writing-mode:lr-tb;fill:#000000;fill-opacity:1;fill-rule:nonzero;stroke:none"
       transform="matrix(1,0,0,-1,107.27,32.718)"><tspan
         id="tspan34"
         y="0"
         x="0">4</tspan></text>
<path
       id="path36"
       style="fill:#cdcdcd;fill-opacity:0.49803999;fill-rule:evenodd;stroke:none"
       d="m 22.251,79.032 c 0,7.828 6.345,14.174 14.173,14.174 7.827,0 14.173,-6.346 14.173,-14.174 0,0 0,0 0,0 0,-7.827 -6.345,-14.173 -14.173,-14.173 -7.828,0 -14.173,6.346 -14.173,14.173 z" /><g
       id="g38"><g
         clip-path="url(#clipPath42)"
         id="g40"><path
           id="path46"
           style="fill:none;stroke:#cdcdcd;stroke-width:1;stroke-linecap:round;stroke-linejoin:round;stroke-miterlimit:10;stroke-dasharray:none;stroke-opacity:0.49803999"
           d="m 22.251,79.032 c 0,7.828 6.345,14.174 14.173,14.174 7.827,0 14.173,-6.346 14.173,-14.174 0,0 0,0 0,0 0,-7.827 -6.345,-14.173 -14.173,-14.173 -7.828,0 -14.173,6.346 -14.173,14.173" /></g></g><path
       id="path48"
       style="fill:#d9e7fb;fill-opacity:1;fill-rule:evenodd;stroke:none"
       d="m 20.811,80.472 c 0,7.828 6.345,14.174 14.173,14.174 7.827,0 14.173,-6.346 14.173,-14.174 0,0 0,0 0,0 0,-7.827 -6.345,-14.173 -14.173,-14.173 -7.828,0 -14.173,6.346 -14.173,14.173 z" /><path
       id="path50"
       style="fill:none;stroke:#3f51b5;stroke-width:1;stroke-linecap:round;stroke-linejoin:round;stroke-miterlimit:10;stroke-dasharray:none;stroke-opacity:1"
       d="m 20.811,80.472 c 0,7.828 6.345,14.174 14.173,14.174 7.827,0 14.173,-6.346 14.173,-14.174 0,0 0,0 0,0 0,-7.827 -6.345,-14.173 -14.173,-14.173 -7.828,0 -14.173,6.346 -14.173,14.173 z" /><text
       id="text52"
       style="font-variant:normal;font-weight:normal;font-size:7.99991989px;font-family:Arial;-inkscape-font-specification:Arial;writing-mode:lr-tb;fill:#000000;fill-opacity:1;fill-rule:nonzero;stroke:none"
       transform="matrix(1,0,0,-1,30.535,78.073)"><tspan
         id="tspan54"
         y="0"
         x="0">n</tspan></text>
<text
       id="text56"
       style="font-variant:normal;font-weight:normal;font-size:7.99991989px;font-family:Arial;-inkscape-font-specification:Arial;writing-mode:lr-tb;fill:#000000;fill-opacity:1;fill-rule:nonzero;stroke:none"
       transform="matrix(1,0,0,-1,34.984,78.073)"><tspan
         id="tspan58"
         y="0"
         x="0">1</tspan></text>
<path
       id="path60"
       style="fill:#cdcdcd;fill-opacity:0.49803999;fill-rule:evenodd;stroke:none"
       d="m 166.82,79.032 c 0,7.828 6.34,14.174 14.17,14.174 7.83,0 14.17,-6.346 14.17,-14.174 0,0 0,0 0,0 0,-7.827 -6.34,-14.173 -14.17,-14.173 -7.83,0 -14.17,6.346 -14.17,14.173 z" /><g
       id="g62"><g
         clip-path="url(#clipPath66)"
         id="g64"><path
           id="path70"
           style="fill:none;stroke:#cdcdcd;stroke-width:1;stroke-linecap:round;stroke-linejoin:round;stroke-miterlimit:10;stroke-dasharray:none;stroke-opacity:0.49803999"
           d="m 166.82,79.032 c 0,7.828 6.34,14.174 14.17,14.174 7.83,0 14.17,-6.346 14.17,-14.174 0,0 0,0 0,0 0,-7.827 -6.34,-14.173 -14.17,-14.173 -7.83,0 -14.17,6.346 -14.17,14.173" /></g></g><path
       id="path72"
       style="fill:#ffffff;fill-opacity:1;fill-rule:evenodd;stroke:none"
       d="m 165.38,80.472 c 0,7.828 6.34,14.174 14.17,14.174 7.83,0 14.17,-6.346 14.17,-14.174 0,0 0,0 0,0 0,-7.827 -6.34,-14.173 -14.17,-14.173 -7.83,0 -14.17,6.346 -14.17,14.173 z" /><path
       id="path74"
       style="fill:none;stroke:#404040;stroke-width:1;stroke-linecap:round;stroke-linejoin:round;stroke-miterlimit:10;stroke-dasharray:none;stroke-opacity:1"
       d="m 165.38,80.472 c 0,7.828 6.34,14.174 14.17,14.174 7.83,0 14.17,-6.346 14.17,-14.174 0,0 0,0 0,0 0,-7.827 -6.34,-14.173 -14.17,-14.173 -7.83,0 -14.17,6.346 -14.17,14.173 z" /><text
       id="text76"
       style="font-variant:normal;font-weight:normal;font-size:7.99991989px;font-family:Arial;-inkscape-font-specification:Arial;writing-mode:lr-tb;fill:#000000;fill-opacity:1;fill-rule:nonzero;stroke:none"
       transform="matrix(1,0,0,-1,175.1,78.073)"><tspan
         id="tspan78"
         y="0"
         x="0">n</tspan></text>
<text
       id="text80"
       style="font-variant:normal;font-weight:normal;font-size:7.99991989px;font-family:Arial;-inkscape-font-specification:Arial;writing-mode:lr-tb;fill:#000000;fill-opacity:1;fill-rule:nonzero;stroke:none"
       transform="matrix(1,0,0,-1,179.55,78.073)"><tspan
         id="tspan82"
         y="0"
         x="0">5</tspan></text>
<path
       id="path84"
       style="fill:#cdcdcd;fill-opacity:0.49803999;fill-rule:evenodd;stroke:none"
       d="m 59.81,124.39 c 0,7.82 6.345,14.17 14.173,14.17 7.828,0 14.173,-6.35 14.173,-14.17 0,0 0,0 0,0 0,-7.83 -6.345,-14.18 -14.173,-14.18 -7.828,0 -14.173,6.35 -14.173,14.18 z" /><g
       id="g86"><g
         clip-path="url(#clipPath90)"
         id="g88"><path
           id="path94"
           style="fill:none;stroke:#cdcdcd;stroke-width:1;stroke-linecap:round;stroke-linejoin:round;stroke-miterlimit:10;stroke-dasharray:none;stroke-opacity:0.49803999"
           d="m 59.81,124.39 c 0,7.82 6.345,14.17 14.173,14.17 7.828,0 14.173,-6.35 14.173,-14.17 0,0 0,0 0,0 0,-7.83 -6.345,-14.18 -14.173,-14.18 -7.828,0 -14.173,6.35 -14.173,14.18" /></g></g><path
       id="path96"
       style="fill:#ffffff;fill-opacity:1;fill-rule:evenodd;stroke:none"
       d="m 58.37,125.83 c 0,7.82 6.345,14.17 14.173,14.17 7.828,0 14.173,-6.35 14.173,-14.17 0,0 0,0 0,0 0,-7.83 -6.345,-14.18 -14.173,-14.18 -7.828,0 -14.173,6.35 -14.173,14.18 z" /><path
       id="path98"
       style="fill:none;stroke:#404040;stroke-width:1;stroke-linecap:round;stroke-linejoin:round;stroke-miterlimit:10;stroke-dasharray:none;stroke-opacity:1"
       d="m 58.37,125.83 c 0,7.82 6.345,14.17 14.173,14.17 7.828,0 14.173,-6.35 14.173,-14.17 0,0 0,0 0,0 0,-7.83 -6.345,-14.18 -14.173,-14.18 -7.828,0 -14.173,6.35 -14.173,14.18 z" /><text
       id="text100"
       style="font-variant:normal;font-weight:normal;font-size:7.99991989px;font-family:Arial;-inkscape-font-specification:Arial;writing-mode:lr-tb;fill:#000000;fill-opacity:1;fill-rule:nonzero;stroke:none"
       transform="matrix(1,0,0,-1,68.094,123.43)"><tspan
         id="tspan102"
         y="0"
         x="0">n</tspan></text>
<text
       id="text104"
       style="font-variant:normal;font-weight:normal;font-size:7.99991989px;font-family:Arial;-inkscape-font-specification:Arial;writing-mode:lr-tb;fill:#000000;fill-opacity:1;fill-rule:nonzero;stroke:none"
       transform="matrix(1,0,0,-1,72.543,123.43)"><tspan
         id="tspan106"
         y="0"
         x="0">2</tspan></text>
<path
       id="path108"
       style="fill:#cdcdcd;fill-opacity:0.49803999;fill-rule:evenodd;stroke:none"
       d="m 129.26,124.39 c 0,7.82 6.34,14.17 14.17,14.17 7.83,0 14.17,-6.35 14.17,-14.17 0,0 0,0 0,0 0,-7.83 -6.34,-14.18 -14.17,-14.18 -7.83,0 -14.17,6.35 -14.17,14.18 z" /><g
       id="g110"><g
         clip-path="url(#clipPath114)"
         id="g112"><path
           id="path118"
           style="fill:none;stroke:#cdcdcd;stroke-width:1;stroke-linecap:round;stroke-linejoin:round;stroke-miterlimit:10;stroke-dasharray:none;stroke-opacity:0.49803999"
           d="m 129.26,124.39 c 0,7.82 6.34,14.17 14.17,14.17 7.83,0 14.17,-6.35 14.17,-14.17 0,0 0,0 0,0 0,-7.83 -6.34,-14.18 -14.17,-14.18 -7.83,0 -14.17,6.35 -14.17,14.18" /></g></g><path
       id="path120"
       style="fill:#ffffff;fill-opacity:1;fill-rule:evenodd;stroke:none"
       d="m 127.82,125.83 c 0,7.82 6.34,14.17 14.17,14.17 7.83,0 14.17,-6.35 14.17,-14.17 0,0 0,0 0,0 0,-7.83 -6.34,-14.18 -14.17,-14.18 -7.83,0 -14.17,6.35 -14.17,14.18 z" /><path
       id="path122"
       style="fill:none;stroke:#404040;stroke-width:1;stroke-linecap:round;stroke-linejoin:round;stroke-miterlimit:10;stroke-dasharray:none;stroke-opacity:1"
       d="m 127.82,125.83 c 0,7.82 6.34,14.17 14.17,14.17 7.83,0 14.17,-6.35 14.17,-14.17 0,0 0,0 0,0 0,-7.83 -6.34,-14.18 -14.17,-14.18 -7.83,0 -14.17,6.35 -14.17,14.18 z" /><text
       id="text124"
       style="font-variant:normal;font-weight:normal;font-size:7.99991989px;font-family:Arial;-inkscape-font-specification:Arial;writing-mode:lr-tb;fill:#000000;fill-opacity:1;fill-rule:nonzero;stroke:none"
       transform="matrix(1,0,0,-1,137.54,123.43)"><tspan
         id="tspan126"
         y="0"
         x="0">n</tspan></text>
<text
       id="text128"
       style="font-variant:normal;font-weight:normal;font-size:7.99991989px;font-family:Arial;-inkscape-font-specification:Arial;writing-mode:lr-tb;fill:#000000;fill-opacity:1;fill-rule:nonzero;stroke:none"
       transform="matrix(1,0,0,-1,141.99,123.43)"><tspan
         id="tspan130"
         y="0"
         x="0">3</tspan></text>
<path
       id="path132"
       style="fill:none;stroke:#404040;stroke-width:1;stroke-linecap:round;stroke-linejoin:round;stroke-miterlimit:10;stroke-dasharray:none;stroke-opacity:1"
       d="m 34.984,94.646 c 0,7.794 0,19.944 4.766,26.104 l -0.03,-0.32 c 3.162,3.9 8.434,4.98 13.53,5.57" /><path
       id="path134"
       style="fill:#404040;fill-opacity:1;fill-rule:evenodd;stroke:none"
       d="m 58.5,126 -6.75,-3.75 -0.342,-0.1 c 1.059,2.24 1.003,4.85 -0.153,7.04 L 51,129 l 7.5,-3 z" /><path
       id="path136"
       style="fill:none;stroke:#404040;stroke-width:1;stroke-linecap:round;stroke-linejoin:round;stroke-miterlimit:10;stroke-dasharray:none;stroke-opacity:1"
       d="m 87,126 35.25,0" /><path
       id="path138"
       style="fill:#404040;fill-opacity:1;fill-rule:evenodd;stroke:none"
       d="m 127.5,126 -6.75,-3.75 0.03,0.06 c 1.11,2.21 1.11,4.82 0,7.04 l -0.03,-0.35 6.75,-3 z" /><path
       id="path140"
       style="fill:none;stroke:#404040;stroke-width:1;stroke-linecap:round;stroke-linejoin:round;stroke-miterlimit:10;stroke-dasharray:none;stroke-opacity:1"
       d="m 156.16,125.83 c 5.85,0 14.28,0 18.59,-5.08 l 0.06,-0.32 c 3.76,-4.62 4.54,-13.21 4.44,-20.68" /><path
       id="path142"
       style="fill:#404040;fill-opacity:1;fill-rule:evenodd;stroke:none"
       d="m 179.25,94.5 -3,7.5 -0.28,-0.34 c 2.23,-1.09 4.84,-1.07 7.04,0.05 L 183,102 179.25,94.5 Z" /><path
       id="path144"
       style="fill:none;stroke:#404040;stroke-width:1;stroke-linecap:round;stroke-linejoin:round;stroke-miterlimit:10;stroke-dasharray:none;stroke-opacity:1"
       d="m 34.984,66.299 c 0,-7.795 0,-18.577 9.266,-24.299 L 44.249,41.911 C 53.834,35.898 73.337,35.208 87.75,35.25" /><path
       id="path146"
       style="fill:#404040;fill-opacity:1;fill-rule:evenodd;stroke:none"
       d="m 93,35.25 -6.75,-3.75 -0.203,0.112 c 1.113,2.213 1.118,4.822 0.014,7.04 L 86.25,39 93,35.25 Z" /><path
       id="path148"
       style="fill:none;stroke:#404040;stroke-width:1;stroke-linecap:round;stroke-linejoin:round;stroke-miterlimit:10;stroke-dasharray:none;stroke-opacity:1"
       d="m 121.44,35.118 c 14.53,0 38.02,0 48.81,6.882 l 0.04,-0.089 c 7.28,4.569 8.84,12.212 8.96,18.839" /><path
       id="path150"
       style="fill:#404040;fill-opacity:1;fill-rule:evenodd;stroke:none"
       d="m 179.25,66 3.75,-6.75 -0.05,-0.049 c -2.2,1.145 -4.8,1.189 -7.04,0.119 l 0.34,-0.07 3,6.75 z" /></g></svg>