<?xml version="1.0" encoding="UTF-8" standalone="no"?>
<svg
   xmlns:dc="http://purl.org/dc/elements/1.1/"
   xmlns:cc="http://creativecommons.org/ns#"
   xmlns:rdf="http://www.w3.org/1999/02/22-rdf-syntax-ns#"
   xmlns:svg="http://www.w3.org/2000/svg"
   xmlns="http://www.w3.org/2000/svg"
   viewBox="0 0 415.3125 249.375"
   height="249.375"
   width="415.3125"
   xml:space="preserve"
   version="1.1"
   id="svg2"><metadata
     id="metadata8"><rdf:RDF><cc:Work
         rdf:about=""><dc:format>image/svg+xml</dc:format><dc:type
           rdf:resource="http://purl.org/dc/dcmitype/StillImage" /></cc:Work></rdf:RDF></metadata><defs
     id="defs6"><clipPath
       id="clipPath18"
       clipPathUnits="userSpaceOnUse"><path
         style="clip-rule:evenodd"
         id="path20"
         d="m 134.28,51.215 c -7.83,0 -14.18,-6.346 -14.18,-14.174 0,-7.827 6.35,-14.173 14.18,-14.173 7.82,0 14.17,6.346 14.17,14.173 0,7.828 -6.35,14.174 -14.17,14.174 z M 0,199.5 332.25,199.5 332.25,0 0,0 0,199.5 Z" /></clipPath><clipPath
       id="clipPath42"
       clipPathUnits="userSpaceOnUse"><path
         style="clip-rule:evenodd"
         id="path44"
         d="m 61.993,96.569 c -7.828,0 -14.173,-6.346 -14.173,-14.173 0,-7.828 6.345,-14.174 14.173,-14.174 7.827,0 14.173,6.346 14.173,14.174 0,7.827 -6.346,14.173 -14.173,14.173 z M 0,199.5 332.25,199.5 332.25,0 0,0 0,199.5 Z" /></clipPath><clipPath
       id="clipPath66"
       clipPathUnits="userSpaceOnUse"><path
         style="clip-rule:evenodd"
         id="path68"
         d="m 206.56,96.569 c -7.83,0 -14.17,-6.346 -14.17,-14.173 0,-7.828 6.34,-14.174 14.17,-14.174 7.83,0 14.17,6.346 14.17,14.174 0,7.827 -6.34,14.173 -14.17,14.173 z M 0,199.5 332.25,199.5 332.25,0 0,0 0,199.5 Z" /></clipPath><clipPath
       id="clipPath90"
       clipPathUnits="userSpaceOnUse"><path
         style="clip-rule:evenodd"
         id="path92"
         d="m 99.552,141.92 c -7.828,0 -14.173,-6.34 -14.173,-14.17 0,-7.83 6.345,-14.17 14.173,-14.17 7.828,0 14.178,6.34 14.178,14.17 0,7.83 -6.35,14.17 -14.178,14.17 z M 0,199.5 332.25,199.5 332.25,0 0,0 0,199.5 Z" /></clipPath><clipPath
       id="clipPath114"
       clipPathUnits="userSpaceOnUse"><path
         style="clip-rule:evenodd"
         id="path116"
         d="m 169,141.92 c -7.83,0 -14.17,-6.34 -14.17,-14.17 0,-7.83 6.34,-14.17 14.17,-14.17 7.83,0 14.17,6.34 14.17,14.17 0,7.83 -6.34,14.17 -14.17,14.17 z M 0,199.5 332.25,199.5 332.25,0 0,0 0,199.5 Z" /></clipPath></defs><g
     transform="matrix(1.25,0,0,-1.25,0,249.375)"
     id="g10"><path
       id="path12"
       style="fill:#cdcdcd;fill-opacity:0.49803999;fill-rule:evenodd;stroke:none"
       d="m 120.1,37.041 c 0,7.828 6.35,14.174 14.18,14.174 7.82,0 14.17,-6.346 14.17,-14.174 0,0 0,0 0,0 0,-7.827 -6.35,-14.173 -14.17,-14.173 -7.83,0 -14.18,6.346 -14.18,14.173 z" /><g
       id="g14"><g
         clip-path="url(#clipPath18)"
         id="g16"><path
           id="path22"
           style="fill:none;stroke:#cdcdcd;stroke-width:1;stroke-linecap:round;stroke-linejoin:round;stroke-miterlimit:10;stroke-dasharray:none;stroke-opacity:0.49803999"
           d="m 120.1,37.041 c 0,7.828 6.35,14.174 14.18,14.174 7.82,0 14.17,-6.346 14.17,-14.174 0,0 0,0 0,0 0,-7.827 -6.35,-14.173 -14.17,-14.173 -7.83,0 -14.18,6.346 -14.18,14.173" /></g></g><path
       id="path24"
       style="fill:#d9e7fb;fill-opacity:1;fill-rule:evenodd;stroke:none"
       d="m 118.66,38.481 c 0,7.828 6.35,14.174 14.18,14.174 7.82,0 14.17,-6.346 14.17,-14.174 0,0 0,0 0,0 0,-7.827 -6.35,-14.173 -14.17,-14.173 -7.83,0 -14.18,6.346 -14.18,14.173 z" /><path
       id="path26"
       style="fill:none;stroke:#3f51b5;stroke-width:1;stroke-linecap:round;stroke-linejoin:round;stroke-miterlimit:10;stroke-dasharray:none;stroke-opacity:1"
       d="m 118.66,38.481 c 0,7.828 6.35,14.174 14.18,14.174 7.82,0 14.17,-6.346 14.17,-14.174 0,0 0,0 0,0 0,-7.827 -6.35,-14.173 -14.17,-14.173 -7.83,0 -14.18,6.346 -14.18,14.173 z" /><text
       id="text28"
       style="font-variant:normal;font-weight:normal;font-size:7.99991989px;font-family:Arial;-inkscape-font-specification:Arial;writing-mode:lr-tb;fill:#000000;fill-opacity:1;fill-rule:nonzero;stroke:none"
       transform="matrix(1,0,0,-1,128.39,36.081)"><tspan
         id="tspan30"
         y="0"
         x="0">n</tspan></text>
<text
       id="text32"
       style="font-variant:normal;font-weight:normal;font-size:7.99991989px;font-family:Arial;-inkscape-font-specification:Arial;writing-mode:lr-tb;fill:#000000;fill-opacity:1;fill-rule:nonzero;stroke:none"
       transform="matrix(1,0,0,-1,132.84,36.081)"><tspan
         id="tspan34"
         y="0"
         x="0">4</tspan></text>
<path
       id="path36"
       style="fill:#cdcdcd;fill-opacity:0.49803999;fill-rule:evenodd;stroke:none"
       d="m 47.82,82.396 c 0,7.827 6.345,14.173 14.173,14.173 7.827,0 14.173,-6.346 14.173,-14.173 0,0 0,0 0,0 0,-7.828 -6.346,-14.174 -14.173,-14.174 -7.828,0 -14.173,6.346 -14.173,14.174 z" /><g
       id="g38"><g
         clip-path="url(#clipPath42)"
         id="g40"><path
           id="path46"
           style="fill:none;stroke:#cdcdcd;stroke-width:1;stroke-linecap:round;stroke-linejoin:round;stroke-miterlimit:10;stroke-dasharray:none;stroke-opacity:0.49803999"
           d="m 47.82,82.396 c 0,7.827 6.345,14.173 14.173,14.173 7.827,0 14.173,-6.346 14.173,-14.173 0,0 0,0 0,0 0,-7.828 -6.346,-14.174 -14.173,-14.174 -7.828,0 -14.173,6.346 -14.173,14.174" /></g></g><path
       id="path48"
       style="fill:#d9e7fb;fill-opacity:1;fill-rule:evenodd;stroke:none"
       d="m 46.38,83.836 c 0,7.827 6.345,14.173 14.173,14.173 7.827,0 14.173,-6.346 14.173,-14.173 0,0 0,0 0,0 0,-7.828 -6.346,-14.174 -14.173,-14.174 -7.828,0 -14.173,6.346 -14.173,14.174 z" /><path
       id="path50"
       style="fill:none;stroke:#3f51b5;stroke-width:1;stroke-linecap:round;stroke-linejoin:round;stroke-miterlimit:10;stroke-dasharray:none;stroke-opacity:1"
       d="m 46.38,83.836 c 0,7.827 6.345,14.173 14.173,14.173 7.827,0 14.173,-6.346 14.173,-14.173 0,0 0,0 0,0 0,-7.828 -6.346,-14.174 -14.173,-14.174 -7.828,0 -14.173,6.346 -14.173,14.174 z" /><text
       id="text52"
       style="font-variant:normal;font-weight:normal;font-size:7.99991989px;font-family:Arial;-inkscape-font-specification:Arial;writing-mode:lr-tb;fill:#000000;fill-opacity:1;fill-rule:nonzero;stroke:none"
       transform="matrix(1,0,0,-1,56.104,81.436)"><tspan
         id="tspan54"
         y="0"
         x="0">n</tspan></text>
<text
       id="text56"
       style="font-variant:normal;font-weight:normal;font-size:7.99991989px;font-family:Arial;-inkscape-font-specification:Arial;writing-mode:lr-tb;fill:#000000;fill-opacity:1;fill-rule:nonzero;stroke:none"
       transform="matrix(1,0,0,-1,60.553,81.436)"><tspan
         id="tspan58"
         y="0"
         x="0">1</tspan></text>
<path
       id="path60"
       style="fill:#cdcdcd;fill-opacity:0.49803999;fill-rule:evenodd;stroke:none"
       d="m 192.39,82.396 c 0,7.827 6.34,14.173 14.17,14.173 7.83,0 14.17,-6.346 14.17,-14.173 0,0 0,0 0,0 0,-7.828 -6.34,-14.174 -14.17,-14.174 -7.83,0 -14.17,6.346 -14.17,14.174 z" /><g
       id="g62"><g
         clip-path="url(#clipPath66)"
         id="g64"><path
           id="path70"
           style="fill:none;stroke:#cdcdcd;stroke-width:1;stroke-linecap:round;stroke-linejoin:round;stroke-miterlimit:10;stroke-dasharray:none;stroke-opacity:0.49803999"
           d="m 192.39,82.396 c 0,7.827 6.34,14.173 14.17,14.173 7.83,0 14.17,-6.346 14.17,-14.173 0,0 0,0 0,0 0,-7.828 -6.34,-14.174 -14.17,-14.174 -7.83,0 -14.17,6.346 -14.17,14.174" /></g></g><path
       id="path72"
       style="fill:#d9e7fb;fill-opacity:1;fill-rule:evenodd;stroke:none"
       d="m 190.95,83.836 c 0,7.827 6.34,14.173 14.17,14.173 7.83,0 14.17,-6.346 14.17,-14.173 0,0 0,0 0,0 0,-7.828 -6.34,-14.174 -14.17,-14.174 -7.83,0 -14.17,6.346 -14.17,14.174 z" /><path
       id="path74"
       style="fill:none;stroke:#3f51b5;stroke-width:1;stroke-linecap:round;stroke-linejoin:round;stroke-miterlimit:10;stroke-dasharray:none;stroke-opacity:1"
       d="m 190.95,83.836 c 0,7.827 6.34,14.173 14.17,14.173 7.83,0 14.17,-6.346 14.17,-14.173 0,0 0,0 0,0 0,-7.828 -6.34,-14.174 -14.17,-14.174 -7.83,0 -14.17,6.346 -14.17,14.174 z" /><text
       id="text76"
       style="font-variant:normal;font-weight:normal;font-size:7.99991989px;font-family:Arial;-inkscape-font-specification:Arial;writing-mode:lr-tb;fill:#000000;fill-opacity:1;fill-rule:nonzero;stroke:none"
       transform="matrix(1,0,0,-1,200.67,81.436)"><tspan
         id="tspan78"
         y="0"
         x="0">n</tspan></text>
<text
       id="text80"
       style="font-variant:normal;font-weight:normal;font-size:7.99991989px;font-family:Arial;-inkscape-font-specification:Arial;writing-mode:lr-tb;fill:#000000;fill-opacity:1;fill-rule:nonzero;stroke:none"
       transform="matrix(1,0,0,-1,205.12,81.436)"><tspan
         id="tspan82"
         y="0"
         x="0">5</tspan></text>
<path
       id="path84"
       style="fill:#cdcdcd;fill-opacity:0.49803999;fill-rule:evenodd;stroke:none"
       d="m 85.379,127.75 c 0,7.83 6.345,14.17 14.173,14.17 7.828,0 14.178,-6.34 14.178,-14.17 0,0 0,0 0,0 0,-7.83 -6.35,-14.17 -14.178,-14.17 -7.828,0 -14.173,6.34 -14.173,14.17 z" /><g
       id="g86"><g
         clip-path="url(#clipPath90)"
         id="g88"><path
           id="path94"
           style="fill:none;stroke:#cdcdcd;stroke-width:1;stroke-linecap:round;stroke-linejoin:round;stroke-miterlimit:10;stroke-dasharray:none;stroke-opacity:0.49803999"
           d="m 85.379,127.75 c 0,7.83 6.345,14.17 14.173,14.17 7.828,0 14.178,-6.34 14.178,-14.17 0,0 0,0 0,0 0,-7.83 -6.35,-14.17 -14.178,-14.17 -7.828,0 -14.173,6.34 -14.173,14.17" /></g></g><path
       id="path96"
       style="fill:#d9e7fb;fill-opacity:1;fill-rule:evenodd;stroke:none"
       d="m 83.939,129.19 c 0,7.83 6.345,14.17 14.173,14.17 7.828,0 14.178,-6.34 14.178,-14.17 0,0 0,0 0,0 0,-7.83 -6.35,-14.17 -14.178,-14.17 -7.828,0 -14.173,6.34 -14.173,14.17 z" /><path
       id="path98"
       style="fill:none;stroke:#3f51b5;stroke-width:1;stroke-linecap:round;stroke-linejoin:round;stroke-miterlimit:10;stroke-dasharray:none;stroke-opacity:1"
       d="m 83.939,129.19 c 0,7.83 6.345,14.17 14.173,14.17 7.828,0 14.178,-6.34 14.178,-14.17 0,0 0,0 0,0 0,-7.83 -6.35,-14.17 -14.178,-14.17 -7.828,0 -14.173,6.34 -14.173,14.17 z" /><text
       id="text100"
       style="font-variant:normal;font-weight:normal;font-size:7.99991989px;font-family:Arial;-inkscape-font-specification:Arial;writing-mode:lr-tb;fill:#000000;fill-opacity:1;fill-rule:nonzero;stroke:none"
       transform="matrix(1,0,0,-1,93.663,126.79)"><tspan
         id="tspan102"
         y="0"
         x="0">n</tspan></text>
<text
       id="text104"
       style="font-variant:normal;font-weight:normal;font-size:7.99991989px;font-family:Arial;-inkscape-font-specification:Arial;writing-mode:lr-tb;fill:#000000;fill-opacity:1;fill-rule:nonzero;stroke:none"
       transform="matrix(1,0,0,-1,98.112,126.79)"><tspan
         id="tspan106"
         y="0"
         x="0">2</tspan></text>
<path
       id="path108"
       style="fill:#cdcdcd;fill-opacity:0.49803999;fill-rule:evenodd;stroke:none"
       d="m 154.83,127.75 c 0,7.83 6.34,14.17 14.17,14.17 7.83,0 14.17,-6.34 14.17,-14.17 0,0 0,0 0,0 0,-7.83 -6.34,-14.17 -14.17,-14.17 -7.83,0 -14.17,6.34 -14.17,14.17 z" /><g
       id="g110"><g
         clip-path="url(#clipPath114)"
         id="g112"><path
           id="path118"
           style="fill:none;stroke:#cdcdcd;stroke-width:1;stroke-linecap:round;stroke-linejoin:round;stroke-miterlimit:10;stroke-dasharray:none;stroke-opacity:0.49803999"
           d="m 154.83,127.75 c 0,7.83 6.34,14.17 14.17,14.17 7.83,0 14.17,-6.34 14.17,-14.17 0,0 0,0 0,0 0,-7.83 -6.34,-14.17 -14.17,-14.17 -7.83,0 -14.17,6.34 -14.17,14.17" /></g></g><path
       id="path120"
       style="fill:#d9e7fb;fill-opacity:1;fill-rule:evenodd;stroke:none"
       d="m 153.39,129.19 c 0,7.83 6.34,14.17 14.17,14.17 7.83,0 14.17,-6.34 14.17,-14.17 0,0 0,0 0,0 0,-7.83 -6.34,-14.17 -14.17,-14.17 -7.83,0 -14.17,6.34 -14.17,14.17 z" /><path
       id="path122"
       style="fill:none;stroke:#3f51b5;stroke-width:1;stroke-linecap:round;stroke-linejoin:round;stroke-miterlimit:10;stroke-dasharray:none;stroke-opacity:1"
       d="m 153.39,129.19 c 0,7.83 6.34,14.17 14.17,14.17 7.83,0 14.17,-6.34 14.17,-14.17 0,0 0,0 0,0 0,-7.83 -6.34,-14.17 -14.17,-14.17 -7.83,0 -14.17,6.34 -14.17,14.17 z" /><text
       id="text124"
       style="font-variant:normal;font-weight:normal;font-size:7.99991989px;font-family:Arial;-inkscape-font-specification:Arial;writing-mode:lr-tb;fill:#000000;fill-opacity:1;fill-rule:nonzero;stroke:none"
       transform="matrix(1,0,0,-1,163.11,126.79)"><tspan
         id="tspan126"
         y="0"
         x="0">n</tspan></text>
<text
       id="text128"
       style="font-variant:normal;font-weight:normal;font-size:7.99991989px;font-family:Arial;-inkscape-font-specification:Arial;writing-mode:lr-tb;fill:#000000;fill-opacity:1;fill-rule:nonzero;stroke:none"
       transform="matrix(1,0,0,-1,167.56,126.79)"><tspan
         id="tspan130"
         y="0"
         x="0">3</tspan></text>
<path
       id="path132"
       style="fill:none;stroke:#404040;stroke-width:1;stroke-linecap:round;stroke-linejoin:round;stroke-miterlimit:10;stroke-dasharray:none;stroke-opacity:1"
       d="m 60.553,98.009 c 0,7.791 0,19.951 4.697,25.741 l 0.039,0.04 c 3.161,3.9 8.434,4.98 13.461,5.21" /><path
       id="path134"
       style="fill:#404040;fill-opacity:1;fill-rule:evenodd;stroke:none"
       d="m 84,129 -6.75,-3.75 -0.273,0.27 c 1.059,2.24 1.003,4.85 -0.153,7.04 L 76.5,132.75 84,129 Z" /><path
       id="path136"
       style="fill:none;stroke:#3f51b5;stroke-width:1;stroke-linecap:round;stroke-linejoin:round;stroke-miterlimit:10;stroke-dasharray:none;stroke-opacity:1"
       d="m 112.5,129 35.25,0" /><path
       id="path138"
       style="fill:#3f51b5;fill-opacity:1;fill-rule:evenodd;stroke:none"
       d="m 153.75,129 -7.5,-3 0.1,-0.33 c 1.11,2.22 1.11,4.82 0,7.04 l -0.1,0.04 7.5,-3.75 z" /><path
       id="path140"
       style="fill:none;stroke:#404040;stroke-width:1;stroke-linecap:round;stroke-linejoin:round;stroke-miterlimit:10;stroke-dasharray:none;stroke-opacity:1"
       d="m 181.73,129.19 c 5.85,0 14.28,0 18.52,-5.44 l 0.13,0.04 c 3.76,-4.62 4.54,-13.21 4.37,-20.29" /><path
       id="path142"
       style="fill:#404040;fill-opacity:1;fill-rule:evenodd;stroke:none"
       d="m 204.75,98.25 -3,6.75 -0.21,0.02 c 2.23,-1.09 4.84,-1.07 7.04,0.06 L 208.5,105 204.75,98.25 Z" /><path
       id="path144"
       style="fill:none;stroke:#404040;stroke-width:1;stroke-linecap:round;stroke-linejoin:round;stroke-miterlimit:10;stroke-dasharray:none;stroke-opacity:1"
       d="m 60.553,69.662 c 0,-7.795 0,-18.577 9.197,-24.662 l 0.068,0.274 c 9.585,-6.012 29.088,-6.703 43.432,-7.024" /><path
       id="path146"
       style="fill:#404040;fill-opacity:1;fill-rule:evenodd;stroke:none"
       d="m 118.5,38.25 -6.75,-3 -0.13,-0.275 c 1.11,2.214 1.11,4.822 0.01,7.04 L 111.75,42 118.5,38.25 Z" /><path
       id="path148"
       style="fill:none;stroke:#3f51b5;stroke-width:1;stroke-linecap:round;stroke-linejoin:round;stroke-miterlimit:10;stroke-dasharray:none;stroke-opacity:1"
       d="m 147.01,38.481 c 14.53,0 38.02,0 48.74,6.519 l 0.1,0.274 c 7.29,4.569 8.85,12.213 8.9,19.226" /><path
       id="path150"
       style="fill:#3f51b5;fill-opacity:1;fill-rule:evenodd;stroke:none"
       d="m 204.75,69.75 3.75,-7.5 0.02,0.314 c -2.2,1.145 -4.8,1.19 -7.04,0.119 l 0.27,0.317 3,6.75 z" /><path
       id="path152"
       style="fill:#fef1cc;fill-opacity:1;fill-rule:evenodd;stroke:none"
       d="m 101.25,159.75 70.5,0 0,21 -70.5,0 0,-21 z" /><text
       id="text154"
       style="font-variant:normal;font-weight:normal;font-size:7.99991989px;font-family:Arial;-inkscape-font-specification:Arial;writing-mode:lr-tb;fill:#000000;fill-opacity:1;fill-rule:nonzero;stroke:none"
       transform="matrix(1,0,0,-1,121.26,167.86)"><tspan
         id="tspan156"
         y="0"
         x="0 5.7774239 10.226592 14.67576 19.124928 23.574097">Round </tspan></text>
<text
       id="text158"
       style="font-variant:normal;font-weight:normal;font-size:7.99991989px;font-family:Arial;-inkscape-font-specification:Arial;writing-mode:lr-tb;fill:#000000;fill-opacity:1;fill-rule:nonzero;stroke:none"
       transform="matrix(1,0,0,-1,147.06,167.86)"><tspan
         id="tspan160"
         y="0"
         x="0">2</tspan></text>
<text
       id="text162"
       style="font-variant:normal;font-weight:normal;font-size:7.99991989px;font-family:Arial;-inkscape-font-specification:Arial;writing-mode:lr-tb;fill:#3f51b5;fill-opacity:1;fill-rule:nonzero;stroke:none"
       transform="matrix(1,0,0,-1,127.05,150.4)"><tspan
         id="tspan164"
         y="0"
         x="0 2.664216 7.1133838">req</tspan></text>
<text
       id="text166"
       style="font-variant:normal;font-weight:normal;font-size:5.99990416px;font-family:Arial;-inkscape-font-specification:Arial;writing-mode:lr-tb;fill:#3f51b5;fill-opacity:1;fill-rule:nonzero;stroke:none"
       transform="matrix(1,0,0,-1,119.08,142.6)"><tspan
         id="tspan168"
         y="0"
         x="0 3.3368399 6.6736798 10.01052 11.343456 12.676392 17.674343 19.00728">hoplimit</tspan></text>
<text
       id="text170"
       style="font-variant:normal;font-weight:normal;font-size:5.99990416px;font-family:Arial;-inkscape-font-specification:Arial;writing-mode:lr-tb;fill:#3f51b5;fill-opacity:1;fill-rule:nonzero;stroke:none"
       transform="matrix(1,0,0,-1,139.75,142.6)"><tspan
         id="tspan172"
         y="0"
         x="0">=</tspan></text>
<text
       id="text174"
       style="font-variant:normal;font-weight:normal;font-size:5.99990416px;font-family:Arial;-inkscape-font-specification:Arial;writing-mode:lr-tb;fill:#3f51b5;fill-opacity:1;fill-rule:nonzero;stroke:none"
       transform="matrix(1,0,0,-1,143.26,142.6)"><tspan
         id="tspan176"
         y="0"
         x="0">1</tspan></text>
<text
       id="text178"
       style="font-variant:normal;font-weight:normal;font-size:5.99990416px;font-family:Arial;-inkscape-font-specification:Arial;writing-mode:lr-tb;fill:#3f51b5;fill-opacity:1;fill-rule:nonzero;stroke:none"
       transform="matrix(1,0,0,-1,121.74,135.4)"><tspan
         id="tspan180"
         y="0"
         x="0 1.998144 5.3349838 8.6718245 12.008664">round</tspan></text>
<text
       id="text182"
       style="font-variant:normal;font-weight:normal;font-size:5.99990416px;font-family:Arial;-inkscape-font-specification:Arial;writing-mode:lr-tb;fill:#3f51b5;fill-opacity:1;fill-rule:nonzero;stroke:none"
       transform="matrix(1,0,0,-1,137.09,135.4)"><tspan
         id="tspan184"
         y="0"
         x="0">=</tspan></text>
<text
       id="text186"
       style="font-variant:normal;font-weight:normal;font-size:5.99990416px;font-family:Arial;-inkscape-font-specification:Arial;writing-mode:lr-tb;fill:#3f51b5;fill-opacity:1;fill-rule:nonzero;stroke:none"
       transform="matrix(1,0,0,-1,140.59,135.4)"><tspan
         id="tspan188"
         y="0"
         x="0">2</tspan></text>
<text
       id="text190"
       style="font-variant:normal;font-weight:normal;font-size:7.99991989px;font-family:Arial;-inkscape-font-specification:Arial;writing-mode:lr-tb;fill:#3f51b5;fill-opacity:1;fill-rule:nonzero;stroke:none"
       transform="matrix(1,0,0,-1,173.48,31.943)"><tspan
         id="tspan192"
         y="0"
         x="0 2.664216 7.1133838">req</tspan></text>
<text
       id="text194"
       style="font-variant:normal;font-weight:normal;font-size:5.99990416px;font-family:Arial;-inkscape-font-specification:Arial;writing-mode:lr-tb;fill:#3f51b5;fill-opacity:1;fill-rule:nonzero;stroke:none"
       transform="matrix(1,0,0,-1,165.51,24.143)"><tspan
         id="tspan196"
         y="0"
         x="0 3.3368399 6.6736798 10.01052 11.343456 12.676392 17.674343 19.00728">hoplimit</tspan></text>
<text
       id="text198"
       style="font-variant:normal;font-weight:normal;font-size:5.99990416px;font-family:Arial;-inkscape-font-specification:Arial;writing-mode:lr-tb;fill:#3f51b5;fill-opacity:1;fill-rule:nonzero;stroke:none"
       transform="matrix(1,0,0,-1,186.18,24.143)"><tspan
         id="tspan200"
         y="0"
         x="0">=</tspan></text>
<text
       id="text202"
       style="font-variant:normal;font-weight:normal;font-size:5.99990416px;font-family:Arial;-inkscape-font-specification:Arial;writing-mode:lr-tb;fill:#3f51b5;fill-opacity:1;fill-rule:nonzero;stroke:none"
       transform="matrix(1,0,0,-1,189.69,24.143)"><tspan
         id="tspan204"
         y="0"
         x="0">1</tspan></text>
<text
       id="text206"
       style="font-variant:normal;font-weight:normal;font-size:5.99990416px;font-family:Arial;-inkscape-font-specification:Arial;writing-mode:lr-tb;fill:#3f51b5;fill-opacity:1;fill-rule:nonzero;stroke:none"
       transform="matrix(1,0,0,-1,168.17,16.942)"><tspan
         id="tspan208"
         y="0"
         x="0 1.998144 5.3349838 8.6718245 12.008664">round</tspan></text>
<text
       id="text210"
       style="font-variant:normal;font-weight:normal;font-size:5.99990416px;font-family:Arial;-inkscape-font-specification:Arial;writing-mode:lr-tb;fill:#3f51b5;fill-opacity:1;fill-rule:nonzero;stroke:none"
       transform="matrix(1,0,0,-1,183.52,16.942)"><tspan
         id="tspan212"
         y="0"
         x="0">=</tspan></text>
<text
       id="text214"
       style="font-variant:normal;font-weight:normal;font-size:5.99990416px;font-family:Arial;-inkscape-font-specification:Arial;writing-mode:lr-tb;fill:#3f51b5;fill-opacity:1;fill-rule:nonzero;stroke:none"
       transform="matrix(1,0,0,-1,187.02,16.942)"><tspan
         id="tspan216"
         y="0"
         x="0">2</tspan></text>
<path
       id="path218"
       style="fill:none;stroke:#1f477d;stroke-width:1;stroke-linecap:round;stroke-linejoin:round;stroke-miterlimit:10;stroke-dasharray:none;stroke-opacity:1"
       d="M 273.75,134.25 221.25,97.5" /><path
       id="path220"
       style="fill:#ffffff;fill-opacity:1;fill-rule:evenodd;stroke:none"
       d="m 235.5,120 77.25,0 0,28.5 -77.25,0 0,-28.5 z" /><path
       id="path222"
       style="fill:none;stroke:#1f477d;stroke-width:1;stroke-linecap:round;stroke-linejoin:round;stroke-miterlimit:10;stroke-dasharray:none;stroke-opacity:1"
       d="m 235.5,120 77.25,0 0,28.5 -77.25,0 0,-28.5 z" /><text
       id="text224"
       style="font-variant:normal;font-weight:normal;font-size:7.99991989px;font-family:Arial;-inkscape-font-specification:Arial;writing-mode:lr-tb;fill:#000000;fill-opacity:1;fill-rule:nonzero;stroke:none"
       transform="matrix(1,0,0,-1,241.51,131.86)"><tspan
         id="tspan226"
         y="0"
         x="0 5.7774239 7.5547438 11.554848 13.777416 18.226583 22.675753 26.675856 31.125025 33.347591 35.57016 40.019329 42.241898">Distance to n</tspan></text>
<text
       id="text228"
       style="font-variant:normal;font-weight:normal;font-size:7.99991989px;font-family:Arial;-inkscape-font-specification:Arial;writing-mode:lr-tb;fill:#000000;fill-opacity:1;fill-rule:nonzero;stroke:none"
       transform="matrix(1,0,0,-1,288.21,131.86)"><tspan
         id="tspan230"
         y="0"
         x="0 4.4491682">1 </tspan></text>
<text
       id="text232"
       style="font-variant:normal;font-weight:normal;font-size:7.99991989px;font-family:Arial;-inkscape-font-specification:Arial;writing-mode:lr-tb;fill:#000000;fill-opacity:1;fill-rule:nonzero;stroke:none"
       transform="matrix(1,0,0,-1,294.88,131.86)"><tspan
         id="tspan234"
         y="0"
         x="0 4.671936">= </tspan></text>
<text
       id="text236"
       style="font-variant:normal;font-weight:normal;font-size:7.99991989px;font-family:Arial;-inkscape-font-specification:Arial;writing-mode:lr-tb;fill:#000000;fill-opacity:1;fill-rule:nonzero;stroke:none"
       transform="matrix(1,0,0,-1,301.77,131.86)"><tspan
         id="tspan238"
         y="0"
         x="0">2</tspan></text>
</g></svg>