<?xml version="1.0" encoding="UTF-8" standalone="no"?>
<svg
   xmlns:dc="http://purl.org/dc/elements/1.1/"
   xmlns:cc="http://creativecommons.org/ns#"
   xmlns:rdf="http://www.w3.org/1999/02/22-rdf-syntax-ns#"
   xmlns:svg="http://www.w3.org/2000/svg"
   xmlns="http://www.w3.org/2000/svg"
   viewBox="0 0 546.5625 207.1875"
   height="207.1875"
   width="546.5625"
   xml:space="preserve"
   version="1.1"
   id="svg2"><metadata
     id="metadata8"><rdf:RDF><cc:Work
         rdf:about=""><dc:format>image/svg+xml</dc:format><dc:type
           rdf:resource="http://purl.org/dc/dcmitype/StillImage" /></cc:Work></rdf:RDF></metadata><defs
     id="defs6"><clipPath
       id="clipPath50"
       clipPathUnits="userSpaceOnUse"><path
         style="clip-rule:evenodd"
         id="path52"
         d="m 88.507,45.278 c -7.045,0 -12.756,-5.711 -12.756,-12.756 0,-7.045 5.711,-12.756 12.756,-12.756 7.045,0 12.753,5.711 12.753,12.756 0,7.045 -5.708,12.756 -12.753,12.756 z M 0,165.75 l 437.25,0 L 437.25,0 0,0 0,165.75 Z" /></clipPath><clipPath
       id="clipPath74"
       clipPathUnits="userSpaceOnUse"><path
         style="clip-rule:evenodd"
         id="path76"
         d="m 230.24,45.278 c -7.05,0 -12.76,-5.711 -12.76,-12.756 0,-7.045 5.71,-12.756 12.76,-12.756 7.04,0 12.75,5.711 12.75,12.756 0,7.045 -5.71,12.756 -12.75,12.756 z M 0,165.75 l 437.25,0 L 437.25,0 0,0 0,165.75 Z" /></clipPath><clipPath
       id="clipPath98"
       clipPathUnits="userSpaceOnUse"><path
         style="clip-rule:evenodd"
         id="path100"
         d="m 35.357,81.419 c -7.045,0 -12.756,-5.711 -12.756,-12.756 0,-7.044 5.711,-12.756 12.756,-12.756 7.045,0 12.756,5.712 12.756,12.756 0,7.045 -5.711,12.756 -12.756,12.756 z M 0,165.75 l 437.25,0 L 437.25,0 0,0 0,165.75 Z" /></clipPath><clipPath
       id="clipPath122"
       clipPathUnits="userSpaceOnUse"><path
         style="clip-rule:evenodd"
         id="path124"
         d="m 141.66,81.419 c -7.05,0 -12.76,-5.711 -12.76,-12.756 0,-7.044 5.71,-12.756 12.76,-12.756 7.04,0 12.75,5.712 12.75,12.756 0,7.045 -5.71,12.756 -12.75,12.756 z M 0,165.75 l 437.25,0 L 437.25,0 0,0 0,165.75 Z" /></clipPath><clipPath
       id="clipPath146"
       clipPathUnits="userSpaceOnUse"><path
         style="clip-rule:evenodd"
         id="path148"
         d="m 318.82,81.419 c -7.04,0 -12.75,-5.711 -12.75,-12.756 0,-7.044 5.71,-12.756 12.75,-12.756 7.05,0 12.76,5.712 12.76,12.756 0,7.045 -5.71,12.756 -12.76,12.756 z M 0,165.75 l 437.25,0 L 437.25,0 0,0 0,165.75 Z" /></clipPath><clipPath
       id="clipPath170"
       clipPathUnits="userSpaceOnUse"><path
         style="clip-rule:evenodd"
         id="path172"
         d="m 70.79,117.56 c -7.045,0 -12.756,-5.71 -12.756,-12.75 0,-7.05 5.711,-12.761 12.756,-12.761 7.045,0 12.756,5.711 12.756,12.761 0,7.04 -5.711,12.75 -12.756,12.75 z M 0,165.75 l 437.25,0 L 437.25,0 0,0 0,165.75 Z" /></clipPath><clipPath
       id="clipPath194"
       clipPathUnits="userSpaceOnUse"><path
         style="clip-rule:evenodd"
         id="path196"
         d="m 106.22,117.56 c -7.042,0 -12.753,-5.71 -12.753,-12.75 0,-7.05 5.711,-12.761 12.753,-12.761 7.05,0 12.76,5.711 12.76,12.761 0,7.04 -5.71,12.75 -12.76,12.75 z M 0,165.75 l 437.25,0 L 437.25,0 0,0 0,165.75 Z" /></clipPath><clipPath
       id="clipPath218"
       clipPathUnits="userSpaceOnUse"><path
         style="clip-rule:evenodd"
         id="path220"
         d="m 177.09,117.56 c -7.05,0 -12.76,-5.71 -12.76,-12.75 0,-7.05 5.71,-12.761 12.76,-12.761 7.04,0 12.76,5.711 12.76,12.761 0,7.04 -5.72,12.75 -12.76,12.75 z M 0,165.75 l 437.25,0 L 437.25,0 0,0 0,165.75 Z" /></clipPath><clipPath
       id="clipPath242"
       clipPathUnits="userSpaceOnUse"><path
         style="clip-rule:evenodd"
         id="path244"
         d="m 247.96,117.56 c -7.05,0 -12.76,-5.71 -12.76,-12.75 0,-7.05 5.71,-12.761 12.76,-12.761 7.04,0 12.75,5.711 12.75,12.761 0,7.04 -5.71,12.75 -12.75,12.75 z M 0,165.75 l 437.25,0 L 437.25,0 0,0 0,165.75 Z" /></clipPath><clipPath
       id="clipPath266"
       clipPathUnits="userSpaceOnUse"><path
         style="clip-rule:evenodd"
         id="path268"
         d="m 212.52,117.56 c -7.04,0 -12.75,-5.71 -12.75,-12.75 0,-7.05 5.71,-12.761 12.75,-12.761 7.05,0 12.76,5.711 12.76,12.761 0,7.04 -5.71,12.75 -12.76,12.75 z M 0,165.75 l 437.25,0 L 437.25,0 0,0 0,165.75 Z" /></clipPath><clipPath
       id="clipPath290"
       clipPathUnits="userSpaceOnUse"><path
         style="clip-rule:evenodd"
         id="path292"
         d="m 283.39,117.56 c -7.05,0 -12.76,-5.71 -12.76,-12.75 0,-7.05 5.71,-12.761 12.76,-12.761 7.04,0 12.75,5.711 12.75,12.761 0,7.04 -5.71,12.75 -12.75,12.75 z M 0,165.75 l 437.25,0 L 437.25,0 0,0 0,165.75 Z" /></clipPath></defs><g
     transform="matrix(1.25,0,0,-1.25,0,207.1875)"
     id="g10"><path
       id="path12"
       style="fill:none;stroke:#404040;stroke-width:1;stroke-linecap:round;stroke-linejoin:round;stroke-miterlimit:10;stroke-dasharray:none;stroke-opacity:1"
       d="m 33.917,82.859 c 0,5.847 0,14.654 4.333,19.141 l -0.044,-0.1 c 3.281,3.35 9.071,4.12 14.294,4.6" /><path
       id="path14"
       style="fill:#404040;fill-opacity:1;fill-rule:evenodd;stroke:none"
       d="m 56.25,106.5 -5.25,-3 0.029,-0.12 c 0.86,1.77 0.834,3.84 -0.068,5.6 L 51,108.75 56.25,106.5 Z" /><path
       id="path16"
       style="fill:none;stroke:#404040;stroke-width:1;stroke-linecap:round;stroke-linejoin:round;stroke-miterlimit:10;stroke-dasharray:none;stroke-opacity:1"
       d="m 117.54,106.25 c 12.07,-0.29 17.84,-5.08 18.96,-20" /><path
       id="path18"
       style="fill:#404040;fill-opacity:1;fill-rule:evenodd;stroke:none"
       d="m 136.5,82.5 -3,5.25 0.08,0.071 c 1.8,-0.81 3.87,-0.726 5.6,0.227 l 0.32,-0.298 -3,-5.25 z" /><path
       id="path20"
       style="fill:none;stroke:#3f51b5;stroke-width:1;stroke-linecap:round;stroke-linejoin:round;stroke-miterlimit:10;stroke-dasharray:none;stroke-opacity:1"
       d="m 33.917,57.347 c 0,-5.846 0,-14.001 6.583,-18.347 L 40.467,38.982 C 47.019,34.618 60.124,34.047 69.75,33.75" /><path
       id="path22"
       style="fill:#3f51b5;fill-opacity:1;fill-rule:evenodd;stroke:none"
       d="M 74.25,33.75 69,31.5 68.704,31.176 c 0.886,1.761 0.891,3.836 0.014,5.6 L 69,36.75 l 5.25,-3 z" /><path
       id="path24"
       style="fill:none;stroke:#3f51b5;stroke-width:1;stroke-linecap:round;stroke-linejoin:round;stroke-miterlimit:10;stroke-dasharray:none;stroke-opacity:1"
       d="m 99.823,33.962 c 19.277,0 32.487,7.2 34.427,20.038" /><path
       id="path26"
       style="fill:#3f51b5;fill-opacity:1;fill-rule:evenodd;stroke:none"
       d="m 135,58.5 2.25,-6 0.04,0.16 c -1.69,1.027 -3.75,1.203 -5.58,0.473 l 0.29,0.117 3,5.25 z" /><path
       id="path28"
       style="fill:none;stroke:#3f51b5;stroke-width:1;stroke-linecap:round;stroke-linejoin:round;stroke-miterlimit:10;stroke-dasharray:none;stroke-opacity:1"
       d="m 142.95,82.563 c 0.71,10.089 6.06,20.517 16.05,23.187" /><path
       id="path30"
       style="fill:#3f51b5;fill-opacity:1;fill-rule:evenodd;stroke:none"
       d="m 162.75,106.5 -5.25,-3.75 0.24,-0.06 c 0.63,1.87 0.34,3.92 -0.78,5.55 l -0.21,-0.24 6,-1.5 z" /><path
       id="path32"
       style="fill:none;stroke:#3f51b5;stroke-width:1;stroke-linecap:round;stroke-linejoin:round;stroke-miterlimit:10;stroke-dasharray:none;stroke-opacity:1"
       d="m 294.7,106.25 c 5.67,0 14.14,0 18.05,-4.25 l 0.34,-0.1 c 3.34,-3.416 4.08,-9.511 4.16,-14.9" /><path
       id="path34"
       style="fill:#3f51b5;fill-opacity:1;fill-rule:evenodd;stroke:none"
       d="m 317.25,82.5 -3,6 0.27,-0.072 c 1.77,-0.862 3.85,-0.839 5.6,0.062 l 0.13,0.01 -3,-6 z" /><path
       id="path36"
       style="fill:none;stroke:#404040;stroke-width:1;stroke-linecap:round;stroke-linejoin:round;stroke-miterlimit:10;stroke-dasharray:none;stroke-opacity:1"
       d="M 144.42,58.06 C 144.87,39.301 164.51,34.247 211.5,33.75" /><path
       id="path38"
       style="fill:#404040;fill-opacity:1;fill-rule:evenodd;stroke:none"
       d="m 216,33.75 -5.25,-2.25 -0.31,-0.323 c 0.88,1.761 0.89,3.835 0.01,5.6 l 0.3,-0.027 5.25,-3 z" /><path
       id="path40"
       style="fill:none;stroke:#404040;stroke-width:1;stroke-linecap:round;stroke-linejoin:round;stroke-miterlimit:10;stroke-dasharray:none;stroke-opacity:1"
       d="m 241.55,33.962 c 18.96,0 50.73,0 64.45,5.788 l 0.3,-0.315 c 8.55,3.338 10.5,8.71 10.95,13.815" /><path
       id="path42"
       style="fill:#404040;fill-opacity:1;fill-rule:evenodd;stroke:none"
       d="m 317.25,57 3,-5.25 -0.24,-0.087 c -1.74,0.936 -3.81,1 -5.6,0.174 l -0.16,-0.087 3,5.25 z" /><path
       id="path44"
       style="fill:#cdcdcd;fill-opacity:0.49803999;fill-rule:evenodd;stroke:none"
       d="m 75.751,32.522 c 0,7.045 5.711,12.756 12.756,12.756 7.045,0 12.753,-5.711 12.753,-12.756 0,0 0,0 0,0 0,-7.045 -5.708,-12.756 -12.753,-12.756 -7.045,0 -12.756,5.711 -12.756,12.756 z" /><g
       id="g46"><g
         clip-path="url(#clipPath50)"
         id="g48"><path
           id="path54"
           style="fill:none;stroke:#cdcdcd;stroke-width:1;stroke-linecap:round;stroke-linejoin:round;stroke-miterlimit:10;stroke-dasharray:none;stroke-opacity:0.49803999"
           d="m 75.751,32.522 c 0,7.045 5.711,12.756 12.756,12.756 7.045,0 12.753,-5.711 12.753,-12.756 0,0 0,0 0,0 0,-7.045 -5.708,-12.756 -12.753,-12.756 -7.045,0 -12.756,5.711 -12.756,12.756" /></g></g><path
       id="path56"
       style="fill:#d9e7fb;fill-opacity:1;fill-rule:evenodd;stroke:none"
       d="m 74.311,33.962 c 0,7.045 5.711,12.756 12.756,12.756 7.045,0 12.756,-5.711 12.756,-12.756 0,0 0,0 0,0 0,-7.045 -5.711,-12.756 -12.756,-12.756 -7.045,0 -12.756,5.711 -12.756,12.756 z" /><path
       id="path58"
       style="fill:none;stroke:#3f51b5;stroke-width:1;stroke-linecap:round;stroke-linejoin:round;stroke-miterlimit:10;stroke-dasharray:none;stroke-opacity:1"
       d="m 74.311,33.962 c 0,7.045 5.711,12.756 12.756,12.756 7.045,0 12.756,-5.711 12.756,-12.756 0,0 0,0 0,0 0,-7.045 -5.711,-12.756 -12.756,-12.756 -7.045,0 -12.756,5.711 -12.756,12.756 z" /><text
       id="text60"
       style="font-variant:normal;font-weight:normal;font-size:7.99991989px;font-family:Arial;-inkscape-font-specification:Arial;writing-mode:lr-tb;fill:#000000;fill-opacity:1;fill-rule:nonzero;stroke:none"
       transform="matrix(1,0,0,-1,82.618,31.562)"><tspan
         id="tspan62"
         y="0"
         x="0">n</tspan></text>
<text
       id="text64"
       style="font-variant:normal;font-weight:normal;font-size:7.99991989px;font-family:Arial;-inkscape-font-specification:Arial;writing-mode:lr-tb;fill:#000000;fill-opacity:1;fill-rule:nonzero;stroke:none"
       transform="matrix(1,0,0,-1,87.067,31.562)"><tspan
         id="tspan66"
         y="0"
         x="0">4</tspan></text>
<path
       id="path68"
       style="fill:#cdcdcd;fill-opacity:0.49803999;fill-rule:evenodd;stroke:none"
       d="m 217.48,32.522 c 0,7.045 5.71,12.756 12.76,12.756 7.04,0 12.75,-5.711 12.75,-12.756 0,0 0,0 0,0 0,-7.045 -5.71,-12.756 -12.75,-12.756 -7.05,0 -12.76,5.711 -12.76,12.756 z" /><g
       id="g70"><g
         clip-path="url(#clipPath74)"
         id="g72"><path
           id="path78"
           style="fill:none;stroke:#cdcdcd;stroke-width:1;stroke-linecap:round;stroke-linejoin:round;stroke-miterlimit:10;stroke-dasharray:none;stroke-opacity:0.49803999"
           d="m 217.48,32.522 c 0,7.045 5.71,12.756 12.76,12.756 7.04,0 12.75,-5.711 12.75,-12.756 0,0 0,0 0,0 0,-7.045 -5.71,-12.756 -12.75,-12.756 -7.05,0 -12.76,5.711 -12.76,12.756" /></g></g><path
       id="path80"
       style="fill:#ffffff;fill-opacity:1;fill-rule:evenodd;stroke:none"
       d="m 216.04,33.962 c 0,7.045 5.71,12.756 12.76,12.756 7.04,0 12.75,-5.711 12.75,-12.756 0,0 0,0 0,0 0,-7.045 -5.71,-12.756 -12.75,-12.756 -7.05,0 -12.76,5.711 -12.76,12.756 z" /><path
       id="path82"
       style="fill:none;stroke:#404040;stroke-width:1;stroke-linecap:round;stroke-linejoin:round;stroke-miterlimit:10;stroke-dasharray:none;stroke-opacity:1"
       d="m 216.04,33.962 c 0,7.045 5.71,12.756 12.76,12.756 7.04,0 12.75,-5.711 12.75,-12.756 0,0 0,0 0,0 0,-7.045 -5.71,-12.756 -12.75,-12.756 -7.05,0 -12.76,5.711 -12.76,12.756 z" /><text
       id="text84"
       style="font-variant:normal;font-weight:normal;font-size:7.99991989px;font-family:Arial;-inkscape-font-specification:Arial;writing-mode:lr-tb;fill:#000000;fill-opacity:1;fill-rule:nonzero;stroke:none"
       transform="matrix(1,0,0,-1,222.13,31.562)"><tspan
         id="tspan86"
         y="0"
         x="0">n</tspan></text>
<text
       id="text88"
       style="font-variant:normal;font-weight:normal;font-size:7.99991989px;font-family:Arial;-inkscape-font-specification:Arial;writing-mode:lr-tb;fill:#000000;fill-opacity:1;fill-rule:nonzero;stroke:none"
       transform="matrix(1,0,0,-1,226.57,31.562)"><tspan
         id="tspan90"
         y="0"
         x="0 4.4491682">10</tspan></text>
<path
       id="path92"
       style="fill:#cdcdcd;fill-opacity:0.49803999;fill-rule:evenodd;stroke:none"
       d="m 22.601,68.663 c 0,7.045 5.711,12.756 12.756,12.756 7.045,0 12.756,-5.711 12.756,-12.756 0,0 0,0 0,0 0,-7.045 -5.711,-12.756 -12.756,-12.756 -7.045,0 -12.756,5.711 -12.756,12.756 z" /><g
       id="g94"><g
         clip-path="url(#clipPath98)"
         id="g96"><path
           id="path102"
           style="fill:none;stroke:#cdcdcd;stroke-width:1;stroke-linecap:round;stroke-linejoin:round;stroke-miterlimit:10;stroke-dasharray:none;stroke-opacity:0.49803999"
           d="m 22.601,68.663 c 0,7.045 5.711,12.756 12.756,12.756 7.045,0 12.756,-5.711 12.756,-12.756 0,0 0,0 0,0 0,-7.045 -5.711,-12.756 -12.756,-12.756 -7.045,0 -12.756,5.711 -12.756,12.756" /></g></g><path
       id="path104"
       style="fill:#d9e7fb;fill-opacity:1;fill-rule:evenodd;stroke:none"
       d="m 21.161,70.103 c 0,7.045 5.711,12.756 12.756,12.756 7.045,0 12.756,-5.711 12.756,-12.756 0,0 0,0 0,0 0,-7.044 -5.711,-12.756 -12.756,-12.756 -7.045,0 -12.756,5.711 -12.756,12.756 z" /><path
       id="path106"
       style="fill:none;stroke:#3f51b5;stroke-width:1;stroke-linecap:round;stroke-linejoin:round;stroke-miterlimit:10;stroke-dasharray:none;stroke-opacity:1"
       d="m 21.161,70.103 c 0,7.045 5.711,12.756 12.756,12.756 7.045,0 12.756,-5.711 12.756,-12.756 0,0 0,0 0,0 0,-7.044 -5.711,-12.756 -12.756,-12.756 -7.045,0 -12.756,5.711 -12.756,12.756 z" /><text
       id="text108"
       style="font-variant:normal;font-weight:normal;font-size:7.99991989px;font-family:Arial;-inkscape-font-specification:Arial;writing-mode:lr-tb;fill:#000000;fill-opacity:1;fill-rule:nonzero;stroke:none"
       transform="matrix(1,0,0,-1,29.468,67.703)"><tspan
         id="tspan110"
         y="0"
         x="0">n</tspan></text>
<text
       id="text112"
       style="font-variant:normal;font-weight:normal;font-size:7.99991989px;font-family:Arial;-inkscape-font-specification:Arial;writing-mode:lr-tb;fill:#000000;fill-opacity:1;fill-rule:nonzero;stroke:none"
       transform="matrix(1,0,0,-1,33.917,67.703)"><tspan
         id="tspan114"
         y="0"
         x="0">1</tspan></text>
<path
       id="path116"
       style="fill:#cdcdcd;fill-opacity:0.49803999;fill-rule:evenodd;stroke:none"
       d="m 128.9,68.663 c 0,7.045 5.71,12.756 12.76,12.756 7.04,0 12.75,-5.711 12.75,-12.756 0,0 0,0 0,0 0,-7.045 -5.71,-12.756 -12.75,-12.756 -7.05,0 -12.76,5.711 -12.76,12.756 z" /><g
       id="g118"><g
         clip-path="url(#clipPath122)"
         id="g120"><path
           id="path126"
           style="fill:none;stroke:#cdcdcd;stroke-width:1;stroke-linecap:round;stroke-linejoin:round;stroke-miterlimit:10;stroke-dasharray:none;stroke-opacity:0.49803999"
           d="m 128.9,68.663 c 0,7.045 5.71,12.756 12.76,12.756 7.04,0 12.75,-5.711 12.75,-12.756 0,0 0,0 0,0 0,-7.045 -5.71,-12.756 -12.75,-12.756 -7.05,0 -12.76,5.711 -12.76,12.756" /></g></g><path
       id="path128"
       style="fill:#d9e7fb;fill-opacity:1;fill-rule:evenodd;stroke:none"
       d="m 127.46,70.103 c 0,7.045 5.71,12.756 12.76,12.756 7.04,0 12.75,-5.711 12.75,-12.756 0,0 0,0 0,0 0,-7.044 -5.71,-12.756 -12.75,-12.756 -7.05,0 -12.76,5.711 -12.76,12.756 z" /><path
       id="path130"
       style="fill:none;stroke:#3f51b5;stroke-width:1;stroke-linecap:round;stroke-linejoin:round;stroke-miterlimit:10;stroke-dasharray:none;stroke-opacity:1"
       d="m 127.46,70.103 c 0,7.045 5.71,12.756 12.76,12.756 7.04,0 12.75,-5.711 12.75,-12.756 0,0 0,0 0,0 0,-7.044 -5.71,-12.756 -12.75,-12.756 -7.05,0 -12.76,5.711 -12.76,12.756 z" /><text
       id="text132"
       style="font-variant:normal;font-weight:normal;font-size:7.99991989px;font-family:Arial;-inkscape-font-specification:Arial;writing-mode:lr-tb;fill:#000000;fill-opacity:1;fill-rule:nonzero;stroke:none"
       transform="matrix(1,0,0,-1,135.77,67.703)"><tspan
         id="tspan134"
         y="0"
         x="0">n</tspan></text>
<text
       id="text136"
       style="font-variant:normal;font-weight:normal;font-size:7.99991989px;font-family:Arial;-inkscape-font-specification:Arial;writing-mode:lr-tb;fill:#000000;fill-opacity:1;fill-rule:nonzero;stroke:none"
       transform="matrix(1,0,0,-1,140.22,67.703)"><tspan
         id="tspan138"
         y="0"
         x="0">5</tspan></text>
<path
       id="path140"
       style="fill:#cdcdcd;fill-opacity:0.49803999;fill-rule:evenodd;stroke:none"
       d="m 306.07,68.663 c 0,7.045 5.71,12.756 12.75,12.756 7.05,0 12.76,-5.711 12.76,-12.756 0,0 0,0 0,0 0,-7.045 -5.71,-12.756 -12.76,-12.756 -7.04,0 -12.75,5.711 -12.75,12.756 z" /><g
       id="g142"><g
         clip-path="url(#clipPath146)"
         id="g144"><path
           id="path150"
           style="fill:none;stroke:#cdcdcd;stroke-width:1;stroke-linecap:round;stroke-linejoin:round;stroke-miterlimit:10;stroke-dasharray:none;stroke-opacity:0.49803999"
           d="m 306.07,68.663 c 0,7.045 5.71,12.756 12.75,12.756 7.05,0 12.76,-5.711 12.76,-12.756 0,0 0,0 0,0 0,-7.045 -5.71,-12.756 -12.76,-12.756 -7.04,0 -12.75,5.711 -12.75,12.756" /></g></g><path
       id="path152"
       style="fill:#d9e7fb;fill-opacity:1;fill-rule:evenodd;stroke:none"
       d="m 304.63,70.103 c 0,7.045 5.71,12.756 12.75,12.756 7.05,0 12.76,-5.711 12.76,-12.756 0,0 0,0 0,0 0,-7.044 -5.71,-12.756 -12.76,-12.756 -7.04,0 -12.75,5.711 -12.75,12.756 z" /><path
       id="path154"
       style="fill:none;stroke:#3f51b5;stroke-width:1;stroke-linecap:round;stroke-linejoin:round;stroke-miterlimit:10;stroke-dasharray:none;stroke-opacity:1"
       d="m 304.63,70.103 c 0,7.045 5.71,12.756 12.75,12.756 7.05,0 12.76,-5.711 12.76,-12.756 0,0 0,0 0,0 0,-7.044 -5.71,-12.756 -12.76,-12.756 -7.04,0 -12.75,5.711 -12.75,12.756 z" /><text
       id="text156"
       style="font-variant:normal;font-weight:normal;font-size:7.99991989px;font-family:Arial;-inkscape-font-specification:Arial;writing-mode:lr-tb;fill:#000000;fill-opacity:1;fill-rule:nonzero;stroke:none"
       transform="matrix(1,0,0,-1,310.71,67.703)"><tspan
         id="tspan158"
         y="0"
         x="0">n</tspan></text>
<text
       id="text160"
       style="font-variant:normal;font-weight:normal;font-size:7.99991989px;font-family:Arial;-inkscape-font-specification:Arial;writing-mode:lr-tb;fill:#000000;fill-opacity:1;fill-rule:nonzero;stroke:none"
       transform="matrix(1,0,0,-1,315.16,67.703)"><tspan
         id="tspan162"
         y="0"
         x="0 4.4491682">11</tspan></text>
<path
       id="path164"
       style="fill:#cdcdcd;fill-opacity:0.49803999;fill-rule:evenodd;stroke:none"
       d="m 58.034,104.81 c 0,7.04 5.711,12.75 12.756,12.75 7.045,0 12.756,-5.71 12.756,-12.75 0,0 0,0 0,0 0,-7.05 -5.711,-12.761 -12.756,-12.761 -7.045,0 -12.756,5.711 -12.756,12.761 z" /><g
       id="g166"><g
         clip-path="url(#clipPath170)"
         id="g168"><path
           id="path174"
           style="fill:none;stroke:#cdcdcd;stroke-width:1;stroke-linecap:round;stroke-linejoin:round;stroke-miterlimit:10;stroke-dasharray:none;stroke-opacity:0.49803999"
           d="m 58.034,104.81 c 0,7.04 5.711,12.75 12.756,12.75 7.045,0 12.756,-5.71 12.756,-12.75 0,0 0,0 0,0 0,-7.05 -5.711,-12.761 -12.756,-12.761 -7.045,0 -12.756,5.711 -12.756,12.761" /></g></g><path
       id="path176"
       style="fill:#ffffff;fill-opacity:1;fill-rule:evenodd;stroke:none"
       d="m 56.594,106.25 c 0,7.04 5.711,12.75 12.756,12.75 7.045,0 12.756,-5.71 12.756,-12.75 0,0 0,0 0,0 0,-7.05 -5.711,-12.761 -12.756,-12.761 -7.045,0 -12.756,5.711 -12.756,12.761 z" /><path
       id="path178"
       style="fill:none;stroke:#404040;stroke-width:1;stroke-linecap:round;stroke-linejoin:round;stroke-miterlimit:10;stroke-dasharray:none;stroke-opacity:1"
       d="m 56.594,106.25 c 0,7.04 5.711,12.75 12.756,12.75 7.045,0 12.756,-5.71 12.756,-12.75 0,0 0,0 0,0 0,-7.05 -5.711,-12.761 -12.756,-12.761 -7.045,0 -12.756,5.711 -12.756,12.761 z" /><text
       id="text180"
       style="font-variant:normal;font-weight:normal;font-size:7.99991989px;font-family:Arial;-inkscape-font-specification:Arial;writing-mode:lr-tb;fill:#000000;fill-opacity:1;fill-rule:nonzero;stroke:none"
       transform="matrix(1,0,0,-1,64.901,103.85)"><tspan
         id="tspan182"
         y="0"
         x="0">n</tspan></text>
<text
       id="text184"
       style="font-variant:normal;font-weight:normal;font-size:7.99991989px;font-family:Arial;-inkscape-font-specification:Arial;writing-mode:lr-tb;fill:#000000;fill-opacity:1;fill-rule:nonzero;stroke:none"
       transform="matrix(1,0,0,-1,69.35,103.85)"><tspan
         id="tspan186"
         y="0"
         x="0">2</tspan></text>
<path
       id="path188"
       style="fill:#cdcdcd;fill-opacity:0.49803999;fill-rule:evenodd;stroke:none"
       d="m 93.467,104.81 c 0,7.04 5.711,12.75 12.753,12.75 7.05,0 12.76,-5.71 12.76,-12.75 0,0 0,0 0,0 0,-7.05 -5.71,-12.761 -12.76,-12.761 -7.042,0 -12.753,5.711 -12.753,12.761 z" /><g
       id="g190"><g
         clip-path="url(#clipPath194)"
         id="g192"><path
           id="path198"
           style="fill:none;stroke:#cdcdcd;stroke-width:1;stroke-linecap:round;stroke-linejoin:round;stroke-miterlimit:10;stroke-dasharray:none;stroke-opacity:0.49803999"
           d="m 93.467,104.81 c 0,7.04 5.711,12.75 12.753,12.75 7.05,0 12.76,-5.71 12.76,-12.75 0,0 0,0 0,0 0,-7.05 -5.71,-12.761 -12.76,-12.761 -7.042,0 -12.753,5.711 -12.753,12.761" /></g></g><path
       id="path200"
       style="fill:#ffffff;fill-opacity:1;fill-rule:evenodd;stroke:none"
       d="m 92.027,106.25 c 0,7.04 5.711,12.75 12.753,12.75 7.05,0 12.76,-5.71 12.76,-12.75 0,0 0,0 0,0 0,-7.05 -5.71,-12.761 -12.76,-12.761 -7.042,0 -12.753,5.711 -12.753,12.761 z" /><path
       id="path202"
       style="fill:none;stroke:#404040;stroke-width:1;stroke-linecap:round;stroke-linejoin:round;stroke-miterlimit:10;stroke-dasharray:none;stroke-opacity:1"
       d="m 92.027,106.25 c 0,7.04 5.711,12.75 12.753,12.75 7.05,0 12.76,-5.71 12.76,-12.75 0,0 0,0 0,0 0,-7.05 -5.71,-12.761 -12.76,-12.761 -7.042,0 -12.753,5.711 -12.753,12.761 z" /><text
       id="text204"
       style="font-variant:normal;font-weight:normal;font-size:7.99991989px;font-family:Arial;-inkscape-font-specification:Arial;writing-mode:lr-tb;fill:#000000;fill-opacity:1;fill-rule:nonzero;stroke:none"
       transform="matrix(1,0,0,-1,100.33,103.85)"><tspan
         id="tspan206"
         y="0"
         x="0">n</tspan></text>
<text
       id="text208"
       style="font-variant:normal;font-weight:normal;font-size:7.99991989px;font-family:Arial;-inkscape-font-specification:Arial;writing-mode:lr-tb;fill:#000000;fill-opacity:1;fill-rule:nonzero;stroke:none"
       transform="matrix(1,0,0,-1,104.78,103.85)"><tspan
         id="tspan210"
         y="0"
         x="0">3</tspan></text>
<path
       id="path212"
       style="fill:#cdcdcd;fill-opacity:0.49803999;fill-rule:evenodd;stroke:none"
       d="m 164.33,104.81 c 0,7.04 5.71,12.75 12.76,12.75 7.04,0 12.76,-5.71 12.76,-12.75 0,0 0,0 0,0 0,-7.05 -5.72,-12.761 -12.76,-12.761 -7.05,0 -12.76,5.711 -12.76,12.761 z" /><g
       id="g214"><g
         clip-path="url(#clipPath218)"
         id="g216"><path
           id="path222"
           style="fill:none;stroke:#cdcdcd;stroke-width:1;stroke-linecap:round;stroke-linejoin:round;stroke-miterlimit:10;stroke-dasharray:none;stroke-opacity:0.49803999"
           d="m 164.33,104.81 c 0,7.04 5.71,12.75 12.76,12.75 7.04,0 12.76,-5.71 12.76,-12.75 0,0 0,0 0,0 0,-7.05 -5.72,-12.761 -12.76,-12.761 -7.05,0 -12.76,5.711 -12.76,12.761" /></g></g><path
       id="path224"
       style="fill:#d9e7fb;fill-opacity:1;fill-rule:evenodd;stroke:none"
       d="m 162.89,106.25 c 0,7.04 5.71,12.75 12.76,12.75 7.04,0 12.76,-5.71 12.76,-12.75 0,0 0,0 0,0 0,-7.05 -5.72,-12.761 -12.76,-12.761 -7.05,0 -12.76,5.711 -12.76,12.761 z" /><path
       id="path226"
       style="fill:none;stroke:#3f51b5;stroke-width:1;stroke-linecap:round;stroke-linejoin:round;stroke-miterlimit:10;stroke-dasharray:none;stroke-opacity:1"
       d="m 162.89,106.25 c 0,7.04 5.71,12.75 12.76,12.75 7.04,0 12.76,-5.71 12.76,-12.75 0,0 0,0 0,0 0,-7.05 -5.72,-12.761 -12.76,-12.761 -7.05,0 -12.76,5.711 -12.76,12.761 z" /><text
       id="text228"
       style="font-variant:normal;font-weight:normal;font-size:7.99991989px;font-family:Arial;-inkscape-font-specification:Arial;writing-mode:lr-tb;fill:#000000;fill-opacity:1;fill-rule:nonzero;stroke:none"
       transform="matrix(1,0,0,-1,171.2,103.85)"><tspan
         id="tspan230"
         y="0"
         x="0">n</tspan></text>
<text
       id="text232"
       style="font-variant:normal;font-weight:normal;font-size:7.99991989px;font-family:Arial;-inkscape-font-specification:Arial;writing-mode:lr-tb;fill:#000000;fill-opacity:1;fill-rule:nonzero;stroke:none"
       transform="matrix(1,0,0,-1,175.65,103.85)"><tspan
         id="tspan234"
         y="0"
         x="0">6</tspan></text>
<path
       id="path236"
       style="fill:#cdcdcd;fill-opacity:0.49803999;fill-rule:evenodd;stroke:none"
       d="m 235.2,104.81 c 0,7.04 5.71,12.75 12.76,12.75 7.04,0 12.75,-5.71 12.75,-12.75 0,0 0,0 0,0 0,-7.05 -5.71,-12.761 -12.75,-12.761 -7.05,0 -12.76,5.711 -12.76,12.761 z" /><g
       id="g238"><g
         clip-path="url(#clipPath242)"
         id="g240"><path
           id="path246"
           style="fill:none;stroke:#cdcdcd;stroke-width:1;stroke-linecap:round;stroke-linejoin:round;stroke-miterlimit:10;stroke-dasharray:none;stroke-opacity:0.49803999"
           d="m 235.2,104.81 c 0,7.04 5.71,12.75 12.76,12.75 7.04,0 12.75,-5.71 12.75,-12.75 0,0 0,0 0,0 0,-7.05 -5.71,-12.761 -12.75,-12.761 -7.05,0 -12.76,5.711 -12.76,12.761" /></g></g><path
       id="path248"
       style="fill:#d9e7fb;fill-opacity:1;fill-rule:evenodd;stroke:none"
       d="m 233.76,106.25 c 0,7.04 5.71,12.75 12.76,12.75 7.04,0 12.75,-5.71 12.75,-12.75 0,0 0,0 0,0 0,-7.05 -5.71,-12.761 -12.75,-12.761 -7.05,0 -12.76,5.711 -12.76,12.761 z" /><path
       id="path250"
       style="fill:none;stroke:#3f51b5;stroke-width:1;stroke-linecap:round;stroke-linejoin:round;stroke-miterlimit:10;stroke-dasharray:none;stroke-opacity:1"
       d="m 233.76,106.25 c 0,7.04 5.71,12.75 12.76,12.75 7.04,0 12.75,-5.71 12.75,-12.75 0,0 0,0 0,0 0,-7.05 -5.71,-12.761 -12.75,-12.761 -7.05,0 -12.76,5.711 -12.76,12.761 z" /><text
       id="text252"
       style="font-variant:normal;font-weight:normal;font-size:7.99991989px;font-family:Arial;-inkscape-font-specification:Arial;writing-mode:lr-tb;fill:#000000;fill-opacity:1;fill-rule:nonzero;stroke:none"
       transform="matrix(1,0,0,-1,242.07,103.85)"><tspan
         id="tspan254"
         y="0"
         x="0">n</tspan></text>
<text
       id="text256"
       style="font-variant:normal;font-weight:normal;font-size:7.99991989px;font-family:Arial;-inkscape-font-specification:Arial;writing-mode:lr-tb;fill:#000000;fill-opacity:1;fill-rule:nonzero;stroke:none"
       transform="matrix(1,0,0,-1,246.52,103.85)"><tspan
         id="tspan258"
         y="0"
         x="0">8</tspan></text>
<path
       id="path260"
       style="fill:#cdcdcd;fill-opacity:0.49803999;fill-rule:evenodd;stroke:none"
       d="m 199.77,104.81 c 0,7.04 5.71,12.75 12.75,12.75 7.05,0 12.76,-5.71 12.76,-12.75 0,0 0,0 0,0 0,-7.05 -5.71,-12.761 -12.76,-12.761 -7.04,0 -12.75,5.711 -12.75,12.761 z" /><g
       id="g262"><g
         clip-path="url(#clipPath266)"
         id="g264"><path
           id="path270"
           style="fill:none;stroke:#cdcdcd;stroke-width:1;stroke-linecap:round;stroke-linejoin:round;stroke-miterlimit:10;stroke-dasharray:none;stroke-opacity:0.49803999"
           d="m 199.77,104.81 c 0,7.04 5.71,12.75 12.75,12.75 7.05,0 12.76,-5.71 12.76,-12.75 0,0 0,0 0,0 0,-7.05 -5.71,-12.761 -12.76,-12.761 -7.04,0 -12.75,5.711 -12.75,12.761" /></g></g><path
       id="path272"
       style="fill:#d9e7fb;fill-opacity:1;fill-rule:evenodd;stroke:none"
       d="m 198.33,106.25 c 0,7.04 5.71,12.75 12.75,12.75 7.05,0 12.76,-5.71 12.76,-12.75 0,0 0,0 0,0 0,-7.05 -5.71,-12.761 -12.76,-12.761 -7.04,0 -12.75,5.711 -12.75,12.761 z" /><path
       id="path274"
       style="fill:none;stroke:#3f51b5;stroke-width:1;stroke-linecap:round;stroke-linejoin:round;stroke-miterlimit:10;stroke-dasharray:none;stroke-opacity:1"
       d="m 198.33,106.25 c 0,7.04 5.71,12.75 12.75,12.75 7.05,0 12.76,-5.71 12.76,-12.75 0,0 0,0 0,0 0,-7.05 -5.71,-12.761 -12.76,-12.761 -7.04,0 -12.75,5.711 -12.75,12.761 z" /><text
       id="text276"
       style="font-variant:normal;font-weight:normal;font-size:7.99991989px;font-family:Arial;-inkscape-font-specification:Arial;writing-mode:lr-tb;fill:#000000;fill-opacity:1;fill-rule:nonzero;stroke:none"
       transform="matrix(1,0,0,-1,206.63,103.85)"><tspan
         id="tspan278"
         y="0"
         x="0">n</tspan></text>
<text
       id="text280"
       style="font-variant:normal;font-weight:normal;font-size:7.99991989px;font-family:Arial;-inkscape-font-specification:Arial;writing-mode:lr-tb;fill:#000000;fill-opacity:1;fill-rule:nonzero;stroke:none"
       transform="matrix(1,0,0,-1,211.08,103.85)"><tspan
         id="tspan282"
         y="0"
         x="0">7</tspan></text>
<path
       id="path284"
       style="fill:#cdcdcd;fill-opacity:0.49803999;fill-rule:evenodd;stroke:none"
       d="m 270.63,104.81 c 0,7.04 5.71,12.75 12.76,12.75 7.04,0 12.75,-5.71 12.75,-12.75 0,0 0,0 0,0 0,-7.05 -5.71,-12.761 -12.75,-12.761 -7.05,0 -12.76,5.711 -12.76,12.761 z" /><g
       id="g286"><g
         clip-path="url(#clipPath290)"
         id="g288"><path
           id="path294"
           style="fill:none;stroke:#cdcdcd;stroke-width:1;stroke-linecap:round;stroke-linejoin:round;stroke-miterlimit:10;stroke-dasharray:none;stroke-opacity:0.49803999"
           d="m 270.63,104.81 c 0,7.04 5.71,12.75 12.76,12.75 7.04,0 12.75,-5.71 12.75,-12.75 0,0 0,0 0,0 0,-7.05 -5.71,-12.761 -12.75,-12.761 -7.05,0 -12.76,5.711 -12.76,12.761" /></g></g><path
       id="path296"
       style="fill:#d9e7fb;fill-opacity:1;fill-rule:evenodd;stroke:none"
       d="m 269.19,106.25 c 0,7.04 5.71,12.75 12.76,12.75 7.04,0 12.75,-5.71 12.75,-12.75 0,0 0,0 0,0 0,-7.05 -5.71,-12.761 -12.75,-12.761 -7.05,0 -12.76,5.711 -12.76,12.761 z" /><path
       id="path298"
       style="fill:none;stroke:#3f51b5;stroke-width:1;stroke-linecap:round;stroke-linejoin:round;stroke-miterlimit:10;stroke-dasharray:none;stroke-opacity:1"
       d="m 269.19,106.25 c 0,7.04 5.71,12.75 12.76,12.75 7.04,0 12.75,-5.71 12.75,-12.75 0,0 0,0 0,0 0,-7.05 -5.71,-12.761 -12.75,-12.761 -7.05,0 -12.76,5.711 -12.76,12.761 z" /><text
       id="text300"
       style="font-variant:normal;font-weight:normal;font-size:7.99991989px;font-family:Arial;-inkscape-font-specification:Arial;writing-mode:lr-tb;fill:#000000;fill-opacity:1;fill-rule:nonzero;stroke:none"
       transform="matrix(1,0,0,-1,277.5,103.85)"><tspan
         id="tspan302"
         y="0"
         x="0">n</tspan></text>
<text
       id="text304"
       style="font-variant:normal;font-weight:normal;font-size:7.99991989px;font-family:Arial;-inkscape-font-specification:Arial;writing-mode:lr-tb;fill:#000000;fill-opacity:1;fill-rule:nonzero;stroke:none"
       transform="matrix(1,0,0,-1,281.95,103.85)"><tspan
         id="tspan306"
         y="0"
         x="0">9</tspan></text>
<path
       id="path308"
       style="fill:none;stroke:#404040;stroke-width:1;stroke-linecap:round;stroke-linejoin:round;stroke-miterlimit:10;stroke-dasharray:none;stroke-opacity:1"
       d="m 81.75,106.5 6,0" /><path
       id="path310"
       style="fill:#404040;fill-opacity:1;fill-rule:evenodd;stroke:none"
       d="m 92.25,106.5 -6,-3 0.177,-0.05 c 0.882,1.76 0.882,3.83 0,5.6 l -0.177,-0.3 6,-2.25 z" /><path
       id="path312"
       style="fill:none;stroke:#3f51b5;stroke-width:1;stroke-linecap:round;stroke-linejoin:round;stroke-miterlimit:10;stroke-dasharray:none;stroke-opacity:1"
       d="m 188.25,106.5 6,0" /><path
       id="path314"
       style="fill:#3f51b5;fill-opacity:1;fill-rule:evenodd;stroke:none"
       d="m 198,106.5 -5.25,-3 -0.02,-0.05 c 0.88,1.76 0.88,3.83 0,5.6 l 0.02,-0.3 5.25,-2.25 z" /><path
       id="path316"
       style="fill:none;stroke:#3f51b5;stroke-width:1;stroke-linecap:round;stroke-linejoin:round;stroke-miterlimit:10;stroke-dasharray:none;stroke-opacity:1"
       d="m 223.5,106.5 6,0" /><path
       id="path318"
       style="fill:#3f51b5;fill-opacity:1;fill-rule:evenodd;stroke:none"
       d="m 234,106.5 -6,-3 0.16,-0.05 c 0.88,1.76 0.88,3.83 0,5.6 l -0.16,-0.3 6,-2.25 z" /><path
       id="path320"
       style="fill:none;stroke:#3f51b5;stroke-width:1;stroke-linecap:round;stroke-linejoin:round;stroke-miterlimit:10;stroke-dasharray:none;stroke-opacity:1"
       d="m 259.5,106.5 5.25,0" /><path
       id="path322"
       style="fill:#3f51b5;fill-opacity:1;fill-rule:evenodd;stroke:none"
       d="m 269.25,106.5 -6,-3 0.34,-0.05 c 0.88,1.76 0.88,3.83 0,5.6 l -0.34,-0.3 6,-2.25 z" /><path
       id="path324"
       style="fill:none;stroke:#1f477d;stroke-width:1;stroke-linecap:round;stroke-linejoin:round;stroke-miterlimit:10;stroke-dasharray:none;stroke-opacity:1"
       d="M 378.75,123 326.25,85.5" /><path
       id="path326"
       style="fill:#ffffff;fill-opacity:1;fill-rule:evenodd;stroke:none"
       d="m 340.5,98.25 76.5,0 0,48.75 -76.5,0 0,-48.75 z" /><path
       id="path328"
       style="fill:none;stroke:#1f477d;stroke-width:1;stroke-linecap:round;stroke-linejoin:round;stroke-miterlimit:10;stroke-dasharray:none;stroke-opacity:1"
       d="m 340.5,98.25 76.5,0 0,48.75 -76.5,0 0,-48.75 z" /><text
       id="text330"
       style="font-variant:normal;font-weight:normal;font-size:7.99991989px;font-family:Arial;-inkscape-font-specification:Arial;writing-mode:lr-tb;fill:#000000;fill-opacity:1;fill-rule:nonzero;stroke:none"
       transform="matrix(1,0,0,-1,346.34,125.06)"><tspan
         id="tspan332"
         y="0"
         x="0 5.7774239 7.5547438 11.554848 13.777416 18.226583 22.675753 26.675856 31.125025 33.347591 35.57016 40.019329 42.241898">Distance to n</tspan></text>
<text
       id="text334"
       style="font-variant:normal;font-weight:normal;font-size:7.99991989px;font-family:Arial;-inkscape-font-specification:Arial;writing-mode:lr-tb;fill:#000000;fill-opacity:1;fill-rule:nonzero;stroke:none"
       transform="matrix(1,0,0,-1,393.03,125.06)"><tspan
         id="tspan336"
         y="0"
         x="0 4.4491682">1 </tspan></text>
<text
       id="text338"
       style="font-variant:normal;font-weight:normal;font-size:7.99991989px;font-family:Arial;-inkscape-font-specification:Arial;writing-mode:lr-tb;fill:#000000;fill-opacity:1;fill-rule:nonzero;stroke:none"
       transform="matrix(1,0,0,-1,399.7,125.06)"><tspan
         id="tspan340"
         y="0"
         x="0 4.671936">= </tspan></text>
<text
       id="text342"
       style="font-variant:normal;font-weight:normal;font-size:7.99991989px;font-family:Arial;-inkscape-font-specification:Arial;writing-mode:lr-tb;fill:#000000;fill-opacity:1;fill-rule:nonzero;stroke:none"
       transform="matrix(1,0,0,-1,406.6,125.06)"><tspan
         id="tspan344"
         y="0"
         x="0">8</tspan></text>
<path
       id="path346"
       style="fill:none;stroke:#000000;stroke-width:0.39853001;stroke-linecap:butt;stroke-linejoin:miter;stroke-miterlimit:2;stroke-dasharray:none;stroke-opacity:1"
       d="m 346.5,126.75 64.5,0" /><text
       id="text348"
       style="font-variant:normal;font-weight:normal;font-size:7.99991989px;font-family:Arial;-inkscape-font-specification:Arial;writing-mode:lr-tb;fill:#000000;fill-opacity:1;fill-rule:nonzero;stroke:none"
       transform="matrix(1,0,0,-1,346.34,115.46)"><tspan
         id="tspan350"
         y="0"
         x="0 5.7774239 7.5547438 11.554848 13.777416 18.226583 22.675753 26.675856 31.125025 33.347591 35.57016 40.019329 42.241898">Distance to n</tspan></text>
<text
       id="text352"
       style="font-variant:normal;font-weight:normal;font-size:7.99991989px;font-family:Arial;-inkscape-font-specification:Arial;writing-mode:lr-tb;fill:#000000;fill-opacity:1;fill-rule:nonzero;stroke:none"
       transform="matrix(1,0,0,-1,393.03,115.46)"><tspan
         id="tspan354"
         y="0"
         x="0 4.4491682">1 </tspan></text>
<text
       id="text356"
       style="font-variant:normal;font-weight:normal;font-size:7.99991989px;font-family:Arial;-inkscape-font-specification:Arial;writing-mode:lr-tb;fill:#000000;fill-opacity:1;fill-rule:nonzero;stroke:none"
       transform="matrix(1,0,0,-1,399.7,115.46)"><tspan
         id="tspan358"
         y="0"
         x="0 4.671936">= </tspan></text>
<text
       id="text360"
       style="font-variant:normal;font-weight:normal;font-size:7.99991989px;font-family:Arial;-inkscape-font-specification:Arial;writing-mode:lr-tb;fill:#000000;fill-opacity:1;fill-rule:nonzero;stroke:none"
       transform="matrix(1,0,0,-1,406.6,115.46)"><tspan
         id="tspan362"
         y="0"
         x="0">7</tspan></text>
</g></svg>