<?xml version="1.0" encoding="UTF-8" standalone="no"?>
<svg
   xmlns:dc="http://purl.org/dc/elements/1.1/"
   xmlns:cc="http://creativecommons.org/ns#"
   xmlns:rdf="http://www.w3.org/1999/02/22-rdf-syntax-ns#"
   xmlns:svg="http://www.w3.org/2000/svg"
   xmlns="http://www.w3.org/2000/svg"
   id="svg2"
   version="1.1"
   xml:space="preserve"
   width="415.3125"
   height="249.375"
   viewBox="0 0 415.3125 249.375"><metadata
     id="metadata8"><rdf:RDF><cc:Work
         rdf:about=""><dc:format>image/svg+xml</dc:format><dc:type
           rdf:resource="http://purl.org/dc/dcmitype/StillImage" /></cc:Work></rdf:RDF></metadata><defs
     id="defs6"><clipPath
       clipPathUnits="userSpaceOnUse"
       id="clipPath18"><path
         d="m 134.28,51.215 c -7.83,0 -14.18,-6.346 -14.18,-14.174 0,-7.827 6.35,-14.173 14.18,-14.173 7.82,0 14.17,6.346 14.17,14.173 0,7.828 -6.35,14.174 -14.17,14.174 z M 0,199.5 332.25,199.5 332.25,0 0,0 0,199.5 Z"
         id="path20"
         style="clip-rule:evenodd" /></clipPath><clipPath
       clipPathUnits="userSpaceOnUse"
       id="clipPath42"><path
         d="m 61.993,96.569 c -7.828,0 -14.173,-6.346 -14.173,-14.173 0,-7.828 6.345,-14.174 14.173,-14.174 7.827,0 14.173,6.346 14.173,14.174 0,7.827 -6.346,14.173 -14.173,14.173 z M 0,199.5 332.25,199.5 332.25,0 0,0 0,199.5 Z"
         id="path44"
         style="clip-rule:evenodd" /></clipPath><clipPath
       clipPathUnits="userSpaceOnUse"
       id="clipPath66"><path
         d="m 206.56,96.569 c -7.83,0 -14.17,-6.346 -14.17,-14.173 0,-7.828 6.34,-14.174 14.17,-14.174 7.83,0 14.17,6.346 14.17,14.174 0,7.827 -6.34,14.173 -14.17,14.173 z M 0,199.5 332.25,199.5 332.25,0 0,0 0,199.5 Z"
         id="path68"
         style="clip-rule:evenodd" /></clipPath><clipPath
       clipPathUnits="userSpaceOnUse"
       id="clipPath90"><path
         d="m 99.552,141.92 c -7.828,0 -14.173,-6.34 -14.173,-14.17 0,-7.83 6.345,-14.17 14.173,-14.17 7.828,0 14.178,6.34 14.178,14.17 0,7.83 -6.35,14.17 -14.178,14.17 z M 0,199.5 332.25,199.5 332.25,0 0,0 0,199.5 Z"
         id="path92"
         style="clip-rule:evenodd" /></clipPath><clipPath
       clipPathUnits="userSpaceOnUse"
       id="clipPath114"><path
         d="m 169,141.92 c -7.83,0 -14.17,-6.34 -14.17,-14.17 0,-7.83 6.34,-14.17 14.17,-14.17 7.83,0 14.17,6.34 14.17,14.17 0,7.83 -6.34,14.17 -14.17,14.17 z M 0,199.5 332.25,199.5 332.25,0 0,0 0,199.5 Z"
         id="path116"
         style="clip-rule:evenodd" /></clipPath></defs><g
     id="g10"
     transform="matrix(1.25,0,0,-1.25,0,249.375)"><path
       d="m 120.1,37.041 c 0,7.828 6.35,14.174 14.18,14.174 7.82,0 14.17,-6.346 14.17,-14.174 0,0 0,0 0,0 0,-7.827 -6.35,-14.173 -14.17,-14.173 -7.83,0 -14.18,6.346 -14.18,14.173 z"
       style="fill:#cdcdcd;fill-opacity:0.49803999;fill-rule:evenodd;stroke:none"
       id="path12" /><g
       id="g14"><g
         id="g16"
         clip-path="url(#clipPath18)"><path
           d="m 120.1,37.041 c 0,7.828 6.35,14.174 14.18,14.174 7.82,0 14.17,-6.346 14.17,-14.174 0,0 0,0 0,0 0,-7.827 -6.35,-14.173 -14.17,-14.173 -7.83,0 -14.18,6.346 -14.18,14.173"
           style="fill:none;stroke:#cdcdcd;stroke-width:1;stroke-linecap:round;stroke-linejoin:round;stroke-miterlimit:10;stroke-dasharray:none;stroke-opacity:0.49803999"
           id="path22" /></g></g><path
       d="m 118.66,38.481 c 0,7.828 6.35,14.174 14.18,14.174 7.82,0 14.17,-6.346 14.17,-14.174 0,0 0,0 0,0 0,-7.827 -6.35,-14.173 -14.17,-14.173 -7.83,0 -14.18,6.346 -14.18,14.173 z"
       style="fill:#ffffff;fill-opacity:1;fill-rule:evenodd;stroke:none"
       id="path24" /><path
       d="m 118.66,38.481 c 0,7.828 6.35,14.174 14.18,14.174 7.82,0 14.17,-6.346 14.17,-14.174 0,0 0,0 0,0 0,-7.827 -6.35,-14.173 -14.17,-14.173 -7.83,0 -14.18,6.346 -14.18,14.173 z"
       style="fill:none;stroke:#404040;stroke-width:1;stroke-linecap:round;stroke-linejoin:round;stroke-miterlimit:10;stroke-dasharray:none;stroke-opacity:1"
       id="path26" /><text
       transform="matrix(1,0,0,-1,128.39,36.081)"
       style="font-variant:normal;font-weight:normal;font-size:7.99991989px;font-family:Arial;-inkscape-font-specification:Arial;writing-mode:lr-tb;fill:#000000;fill-opacity:1;fill-rule:nonzero;stroke:none"
       id="text28"><tspan
         x="0"
         y="0"
         id="tspan30">n</tspan></text>
<text
       transform="matrix(1,0,0,-1,132.84,36.081)"
       style="font-variant:normal;font-weight:normal;font-size:7.99991989px;font-family:Arial;-inkscape-font-specification:Arial;writing-mode:lr-tb;fill:#000000;fill-opacity:1;fill-rule:nonzero;stroke:none"
       id="text32"><tspan
         x="0"
         y="0"
         id="tspan34">4</tspan></text>
<path
       d="m 47.82,82.396 c 0,7.827 6.345,14.173 14.173,14.173 7.827,0 14.173,-6.346 14.173,-14.173 0,0 0,0 0,0 0,-7.828 -6.346,-14.174 -14.173,-14.174 -7.828,0 -14.173,6.346 -14.173,14.174 z"
       style="fill:#cdcdcd;fill-opacity:0.49803999;fill-rule:evenodd;stroke:none"
       id="path36" /><g
       id="g38"><g
         id="g40"
         clip-path="url(#clipPath42)"><path
           d="m 47.82,82.396 c 0,7.827 6.345,14.173 14.173,14.173 7.827,0 14.173,-6.346 14.173,-14.173 0,0 0,0 0,0 0,-7.828 -6.346,-14.174 -14.173,-14.174 -7.828,0 -14.173,6.346 -14.173,14.174"
           style="fill:none;stroke:#cdcdcd;stroke-width:1;stroke-linecap:round;stroke-linejoin:round;stroke-miterlimit:10;stroke-dasharray:none;stroke-opacity:0.49803999"
           id="path46" /></g></g><path
       d="m 46.38,83.836 c 0,7.827 6.345,14.173 14.173,14.173 7.827,0 14.173,-6.346 14.173,-14.173 0,0 0,0 0,0 0,-7.828 -6.346,-14.174 -14.173,-14.174 -7.828,0 -14.173,6.346 -14.173,14.174 z"
       style="fill:#d9e7fb;fill-opacity:1;fill-rule:evenodd;stroke:none"
       id="path48" /><path
       d="m 46.38,83.836 c 0,7.827 6.345,14.173 14.173,14.173 7.827,0 14.173,-6.346 14.173,-14.173 0,0 0,0 0,0 0,-7.828 -6.346,-14.174 -14.173,-14.174 -7.828,0 -14.173,6.346 -14.173,14.174 z"
       style="fill:none;stroke:#3f51b5;stroke-width:1;stroke-linecap:round;stroke-linejoin:round;stroke-miterlimit:10;stroke-dasharray:none;stroke-opacity:1"
       id="path50" /><text
       transform="matrix(1,0,0,-1,56.104,81.436)"
       style="font-variant:normal;font-weight:normal;font-size:7.99991989px;font-family:Arial;-inkscape-font-specification:Arial;writing-mode:lr-tb;fill:#000000;fill-opacity:1;fill-rule:nonzero;stroke:none"
       id="text52"><tspan
         x="0"
         y="0"
         id="tspan54">n</tspan></text>
<text
       transform="matrix(1,0,0,-1,60.553,81.436)"
       style="font-variant:normal;font-weight:normal;font-size:7.99991989px;font-family:Arial;-inkscape-font-specification:Arial;writing-mode:lr-tb;fill:#000000;fill-opacity:1;fill-rule:nonzero;stroke:none"
       id="text56"><tspan
         x="0"
         y="0"
         id="tspan58">1</tspan></text>
<path
       d="m 192.39,82.396 c 0,7.827 6.34,14.173 14.17,14.173 7.83,0 14.17,-6.346 14.17,-14.173 0,0 0,0 0,0 0,-7.828 -6.34,-14.174 -14.17,-14.174 -7.83,0 -14.17,6.346 -14.17,14.174 z"
       style="fill:#cdcdcd;fill-opacity:0.49803999;fill-rule:evenodd;stroke:none"
       id="path60" /><g
       id="g62"><g
         id="g64"
         clip-path="url(#clipPath66)"><path
           d="m 192.39,82.396 c 0,7.827 6.34,14.173 14.17,14.173 7.83,0 14.17,-6.346 14.17,-14.173 0,0 0,0 0,0 0,-7.828 -6.34,-14.174 -14.17,-14.174 -7.83,0 -14.17,6.346 -14.17,14.174"
           style="fill:none;stroke:#cdcdcd;stroke-width:1;stroke-linecap:round;stroke-linejoin:round;stroke-miterlimit:10;stroke-dasharray:none;stroke-opacity:0.49803999"
           id="path70" /></g></g><path
       d="m 190.95,83.836 c 0,7.827 6.34,14.173 14.17,14.173 7.83,0 14.17,-6.346 14.17,-14.173 0,0 0,0 0,0 0,-7.828 -6.34,-14.174 -14.17,-14.174 -7.83,0 -14.17,6.346 -14.17,14.174 z"
       style="fill:#ffffff;fill-opacity:1;fill-rule:evenodd;stroke:none"
       id="path72" /><path
       d="m 190.95,83.836 c 0,7.827 6.34,14.173 14.17,14.173 7.83,0 14.17,-6.346 14.17,-14.173 0,0 0,0 0,0 0,-7.828 -6.34,-14.174 -14.17,-14.174 -7.83,0 -14.17,6.346 -14.17,14.174 z"
       style="fill:none;stroke:#404040;stroke-width:1;stroke-linecap:round;stroke-linejoin:round;stroke-miterlimit:10;stroke-dasharray:none;stroke-opacity:1"
       id="path74" /><text
       transform="matrix(1,0,0,-1,200.67,81.436)"
       style="font-variant:normal;font-weight:normal;font-size:7.99991989px;font-family:Arial;-inkscape-font-specification:Arial;writing-mode:lr-tb;fill:#000000;fill-opacity:1;fill-rule:nonzero;stroke:none"
       id="text76"><tspan
         x="0"
         y="0"
         id="tspan78">n</tspan></text>
<text
       transform="matrix(1,0,0,-1,205.12,81.436)"
       style="font-variant:normal;font-weight:normal;font-size:7.99991989px;font-family:Arial;-inkscape-font-specification:Arial;writing-mode:lr-tb;fill:#000000;fill-opacity:1;fill-rule:nonzero;stroke:none"
       id="text80"><tspan
         x="0"
         y="0"
         id="tspan82">5</tspan></text>
<path
       d="m 85.379,127.75 c 0,7.83 6.345,14.17 14.173,14.17 7.828,0 14.178,-6.34 14.178,-14.17 0,0 0,0 0,0 0,-7.83 -6.35,-14.17 -14.178,-14.17 -7.828,0 -14.173,6.34 -14.173,14.17 z"
       style="fill:#cdcdcd;fill-opacity:0.49803999;fill-rule:evenodd;stroke:none"
       id="path84" /><g
       id="g86"><g
         id="g88"
         clip-path="url(#clipPath90)"><path
           d="m 85.379,127.75 c 0,7.83 6.345,14.17 14.173,14.17 7.828,0 14.178,-6.34 14.178,-14.17 0,0 0,0 0,0 0,-7.83 -6.35,-14.17 -14.178,-14.17 -7.828,0 -14.173,6.34 -14.173,14.17"
           style="fill:none;stroke:#cdcdcd;stroke-width:1;stroke-linecap:round;stroke-linejoin:round;stroke-miterlimit:10;stroke-dasharray:none;stroke-opacity:0.49803999"
           id="path94" /></g></g><path
       d="m 83.939,129.19 c 0,7.83 6.345,14.17 14.173,14.17 7.828,0 14.178,-6.34 14.178,-14.17 0,0 0,0 0,0 0,-7.83 -6.35,-14.17 -14.178,-14.17 -7.828,0 -14.173,6.34 -14.173,14.17 z"
       style="fill:#ffffff;fill-opacity:1;fill-rule:evenodd;stroke:none"
       id="path96" /><path
       d="m 83.939,129.19 c 0,7.83 6.345,14.17 14.173,14.17 7.828,0 14.178,-6.34 14.178,-14.17 0,0 0,0 0,0 0,-7.83 -6.35,-14.17 -14.178,-14.17 -7.828,0 -14.173,6.34 -14.173,14.17 z"
       style="fill:none;stroke:#404040;stroke-width:1;stroke-linecap:round;stroke-linejoin:round;stroke-miterlimit:10;stroke-dasharray:none;stroke-opacity:1"
       id="path98" /><text
       transform="matrix(1,0,0,-1,93.663,126.79)"
       style="font-variant:normal;font-weight:normal;font-size:7.99991989px;font-family:Arial;-inkscape-font-specification:Arial;writing-mode:lr-tb;fill:#000000;fill-opacity:1;fill-rule:nonzero;stroke:none"
       id="text100"><tspan
         x="0"
         y="0"
         id="tspan102">n</tspan></text>
<text
       transform="matrix(1,0,0,-1,98.112,126.79)"
       style="font-variant:normal;font-weight:normal;font-size:7.99991989px;font-family:Arial;-inkscape-font-specification:Arial;writing-mode:lr-tb;fill:#000000;fill-opacity:1;fill-rule:nonzero;stroke:none"
       id="text104"><tspan
         x="0"
         y="0"
         id="tspan106">2</tspan></text>
<path
       d="m 154.83,127.75 c 0,7.83 6.34,14.17 14.17,14.17 7.83,0 14.17,-6.34 14.17,-14.17 0,0 0,0 0,0 0,-7.83 -6.34,-14.17 -14.17,-14.17 -7.83,0 -14.17,6.34 -14.17,14.17 z"
       style="fill:#cdcdcd;fill-opacity:0.49803999;fill-rule:evenodd;stroke:none"
       id="path108" /><g
       id="g110"><g
         id="g112"
         clip-path="url(#clipPath114)"><path
           d="m 154.83,127.75 c 0,7.83 6.34,14.17 14.17,14.17 7.83,0 14.17,-6.34 14.17,-14.17 0,0 0,0 0,0 0,-7.83 -6.34,-14.17 -14.17,-14.17 -7.83,0 -14.17,6.34 -14.17,14.17"
           style="fill:none;stroke:#cdcdcd;stroke-width:1;stroke-linecap:round;stroke-linejoin:round;stroke-miterlimit:10;stroke-dasharray:none;stroke-opacity:0.49803999"
           id="path118" /></g></g><path
       d="m 153.39,129.19 c 0,7.83 6.34,14.17 14.17,14.17 7.83,0 14.17,-6.34 14.17,-14.17 0,0 0,0 0,0 0,-7.83 -6.34,-14.17 -14.17,-14.17 -7.83,0 -14.17,6.34 -14.17,14.17 z"
       style="fill:#ffffff;fill-opacity:1;fill-rule:evenodd;stroke:none"
       id="path120" /><path
       d="m 153.39,129.19 c 0,7.83 6.34,14.17 14.17,14.17 7.83,0 14.17,-6.34 14.17,-14.17 0,0 0,0 0,0 0,-7.83 -6.34,-14.17 -14.17,-14.17 -7.83,0 -14.17,6.34 -14.17,14.17 z"
       style="fill:none;stroke:#404040;stroke-width:1;stroke-linecap:round;stroke-linejoin:round;stroke-miterlimit:10;stroke-dasharray:none;stroke-opacity:1"
       id="path122" /><text
       transform="matrix(1,0,0,-1,163.11,126.79)"
       style="font-variant:normal;font-weight:normal;font-size:7.99991989px;font-family:Arial;-inkscape-font-specification:Arial;writing-mode:lr-tb;fill:#000000;fill-opacity:1;fill-rule:nonzero;stroke:none"
       id="text124"><tspan
         x="0"
         y="0"
         id="tspan126">n</tspan></text>
<text
       transform="matrix(1,0,0,-1,167.56,126.79)"
       style="font-variant:normal;font-weight:normal;font-size:7.99991989px;font-family:Arial;-inkscape-font-specification:Arial;writing-mode:lr-tb;fill:#000000;fill-opacity:1;fill-rule:nonzero;stroke:none"
       id="text128"><tspan
         x="0"
         y="0"
         id="tspan130">3</tspan></text>
<path
       d="m 60.553,98.009 c 0,7.791 0,19.951 4.697,25.741 l 0.039,0.04 c 3.161,3.9 8.434,4.98 13.461,5.21"
       style="fill:none;stroke:#404040;stroke-width:1;stroke-linecap:round;stroke-linejoin:round;stroke-miterlimit:10;stroke-dasharray:none;stroke-opacity:1"
       id="path132" /><path
       d="m 84,129 -6.75,-3.75 -0.273,0.27 c 1.059,2.24 1.003,4.85 -0.153,7.04 L 76.5,132.75 84,129 Z"
       style="fill:#404040;fill-opacity:1;fill-rule:evenodd;stroke:none"
       id="path134" /><path
       d="m 112.5,129 35.25,0"
       style="fill:none;stroke:#404040;stroke-width:1;stroke-linecap:round;stroke-linejoin:round;stroke-miterlimit:10;stroke-dasharray:none;stroke-opacity:1"
       id="path136" /><path
       d="m 153.75,129 -7.5,-3 0.1,-0.33 c 1.11,2.22 1.11,4.82 0,7.04 l -0.1,0.04 7.5,-3.75 z"
       style="fill:#404040;fill-opacity:1;fill-rule:evenodd;stroke:none"
       id="path138" /><path
       d="m 181.73,129.19 c 5.85,0 14.28,0 18.52,-5.44 l 0.13,0.04 c 3.76,-4.62 4.54,-13.21 4.37,-20.29"
       style="fill:none;stroke:#404040;stroke-width:1;stroke-linecap:round;stroke-linejoin:round;stroke-miterlimit:10;stroke-dasharray:none;stroke-opacity:1"
       id="path140" /><path
       d="m 204.75,98.25 -3,6.75 -0.21,0.02 c 2.23,-1.09 4.84,-1.07 7.04,0.06 L 208.5,105 204.75,98.25 Z"
       style="fill:#404040;fill-opacity:1;fill-rule:evenodd;stroke:none"
       id="path142" /><path
       d="m 60.553,69.662 c 0,-7.795 0,-18.577 9.197,-24.662 l 0.068,0.274 c 9.585,-6.012 29.088,-6.703 43.432,-7.024"
       style="fill:none;stroke:#404040;stroke-width:1;stroke-linecap:round;stroke-linejoin:round;stroke-miterlimit:10;stroke-dasharray:none;stroke-opacity:1"
       id="path144" /><path
       d="m 118.5,38.25 -6.75,-3 -0.13,-0.275 c 1.11,2.214 1.11,4.822 0.01,7.04 L 111.75,42 118.5,38.25 Z"
       style="fill:#404040;fill-opacity:1;fill-rule:evenodd;stroke:none"
       id="path146" /><path
       d="m 147.01,38.481 c 14.53,0 38.02,0 48.74,6.519 l 0.1,0.274 c 7.29,4.569 8.85,12.213 8.9,19.226"
       style="fill:none;stroke:#404040;stroke-width:1;stroke-linecap:round;stroke-linejoin:round;stroke-miterlimit:10;stroke-dasharray:none;stroke-opacity:1"
       id="path148" /><path
       d="m 204.75,69.75 3.75,-7.5 0.02,0.314 c -2.2,1.145 -4.8,1.19 -7.04,0.119 l 0.27,0.317 3,6.75 z"
       style="fill:#404040;fill-opacity:1;fill-rule:evenodd;stroke:none"
       id="path150" /><path
       d="m 101.25,159.75 70.5,0 0,21 -70.5,0 0,-21 z"
       style="fill:#fef1cc;fill-opacity:1;fill-rule:evenodd;stroke:none"
       id="path152" /><text
       transform="matrix(1,0,0,-1,121.26,167.86)"
       style="font-variant:normal;font-weight:normal;font-size:7.99991989px;font-family:Arial;-inkscape-font-specification:Arial;writing-mode:lr-tb;fill:#000000;fill-opacity:1;fill-rule:nonzero;stroke:none"
       id="text154"><tspan
         x="0 5.7774239 10.226592 14.67576 19.124928 23.574097"
         y="0"
         id="tspan156">Round </tspan></text>
<text
       transform="matrix(1,0,0,-1,147.06,167.86)"
       style="font-variant:normal;font-weight:normal;font-size:7.99991989px;font-family:Arial;-inkscape-font-specification:Arial;writing-mode:lr-tb;fill:#000000;fill-opacity:1;fill-rule:nonzero;stroke:none"
       id="text158"><tspan
         x="0"
         y="0"
         id="tspan160">1</tspan></text>
</g></svg>